<svg
                  width="120"
                  height="41"
                  viewBox="0 0 120 41"
                  fill="none"
                  xmlns="http://www.w3.org/2000/svg"
                >
                  <rect
                    y="0.371582"
                    width="120"
                    height="40"
                    rx="7"
                    fill="white"
                  />
                  <path
                    d="M81.5259 19.5724V21.8635H80.0898V23.3659H81.5259V28.4709C81.5259 30.214 82.3144 30.9113 84.2983 30.9113C84.647 30.9113 84.979 30.8698 85.2695 30.82V29.3342C85.0205 29.3591 84.8628 29.3757 84.5889 29.3757C83.7007 29.3757 83.3105 28.9606 83.3105 28.0143V23.3659H85.2695V21.8635H83.3105V19.5724H81.5259Z"
                    fill="#222222"
                  />
                  <path
                    d="M90.3234 31.0358C92.963 31.0358 94.5817 29.2678 94.5817 26.3376C94.5817 23.424 92.9547 21.6476 90.3234 21.6476C87.6837 21.6476 86.0568 23.424 86.0568 26.3376C86.0568 29.2678 87.6754 31.0358 90.3234 31.0358ZM90.3234 29.4504C88.7711 29.4504 87.8995 28.3132 87.8995 26.3376C87.8995 24.3786 88.7711 23.2331 90.3234 23.2331C91.8673 23.2331 92.7472 24.3786 92.7472 26.3376C92.7472 28.3049 91.8673 29.4504 90.3234 29.4504Z"
                    fill="#222222"
                  />
                  <path
                    d="M95.9666 30.8615H97.7512V25.5241C97.7512 24.2541 98.7058 23.3991 100.059 23.3991C100.374 23.3991 100.906 23.4572 101.055 23.507V21.7472C100.864 21.6974 100.524 21.6725 100.258 21.6725C99.0794 21.6725 98.075 22.32 97.8176 23.2082H97.6848V21.822H95.9666V30.8615Z"
                    fill="#222222"
                  />
                  <path
                    d="M105.486 23.1667C106.806 23.1667 107.669 24.0881 107.711 25.5075H103.145C103.245 24.0964 104.166 23.1667 105.486 23.1667ZM107.703 28.4211C107.371 29.1266 106.632 29.5168 105.553 29.5168C104.125 29.5168 103.204 28.5124 103.145 26.9269V26.8273H109.529V26.2048C109.529 23.3659 108.01 21.6476 105.495 21.6476C102.946 21.6476 101.328 23.4821 101.328 26.3708C101.328 29.2595 102.913 31.0358 105.503 31.0358C107.57 31.0358 109.014 30.0397 109.421 28.4211H107.703Z"
                    fill="#222222"
                  />
                  <path
                    d="M69.8223 27.5233C69.9599 29.743 71.8097 31.1626 74.5628 31.1626C77.5052 31.1626 79.3464 29.6742 79.3464 27.2996C79.3464 25.4327 78.2967 24.4003 75.7501 23.8066L74.3821 23.4711C72.7647 23.0925 72.1108 22.5849 72.1108 21.6988C72.1108 20.5803 73.126 19.849 74.6489 19.849C76.0942 19.849 77.0923 20.5631 77.2729 21.7074H79.1485C79.0366 19.6167 77.1955 18.1455 74.6747 18.1455C71.9646 18.1455 70.1578 19.6167 70.1578 21.8278C70.1578 23.6518 71.1816 24.7358 73.4272 25.2606L75.0274 25.6478C76.6707 26.0349 77.3934 26.6028 77.3934 27.5492C77.3934 28.6504 76.2577 29.4505 74.7091 29.4505C73.0486 29.4505 71.8957 28.702 71.7323 27.5233H69.8223Z"
                    fill="#222222"
                  />
                  <path
                    d="M51.3349 21.6725C50.1064 21.6725 49.0439 22.2868 48.4961 23.3161H48.3633V21.822H46.645V33.8664H48.4297V29.4919H48.5708C49.0439 30.4465 50.0649 31.0109 51.3516 31.0109C53.6343 31.0109 55.0869 29.2096 55.0869 26.3376C55.0869 23.4655 53.6343 21.6725 51.3349 21.6725ZM50.8286 29.4089C49.3345 29.4089 48.3965 28.2302 48.3965 26.3459C48.3965 24.4533 49.3345 23.2746 50.8369 23.2746C52.3476 23.2746 53.2524 24.4284 53.2524 26.3376C53.2524 28.2551 52.3476 29.4089 50.8286 29.4089Z"
                    fill="#222222"
                  />
                  <path
                    d="M61.3317 21.6725C60.1032 21.6725 59.0407 22.2868 58.4929 23.3161H58.3601V21.822H56.6418V33.8664H58.4265V29.4919H58.5676C59.0407 30.4465 60.0617 31.0109 61.3483 31.0109C63.6311 31.0109 65.0837 29.2096 65.0837 26.3376C65.0837 23.4655 63.6311 21.6725 61.3317 21.6725ZM60.8254 29.4089C59.3313 29.4089 58.3933 28.2302 58.3933 26.3459C58.3933 24.4533 59.3313 23.2746 60.8337 23.2746C62.3444 23.2746 63.2492 24.4284 63.2492 26.3376C63.2492 28.2551 62.3444 29.4089 60.8254 29.4089Z"
                    fill="#222222"
                  />
                  <path
                    d="M43.443 30.8615H45.4906L41.0082 18.4466H38.9348L34.4523 30.8615H36.4311L37.5754 27.5664H42.3073L43.443 30.8615ZM39.8725 20.7008H40.0188L41.8169 25.9489H38.0658L39.8725 20.7008Z"
                    fill="#222222"
                  />
                  <path
                    d="M35.6511 9.08276V15.0718H37.8135C39.5981 15.0718 40.6316 13.9719 40.6316 12.0586C40.6316 10.1743 39.5898 9.08276 37.8135 9.08276H35.6511ZM36.5808 9.92944H37.7097C38.9507 9.92944 39.6853 10.718 39.6853 12.071C39.6853 13.4448 38.9631 14.2251 37.7097 14.2251H36.5808V9.92944Z"
                    fill="#222222"
                  />
                  <path
                    d="M43.7967 15.1589C45.1165 15.1589 45.9258 14.2749 45.9258 12.8098C45.9258 11.353 45.1124 10.4648 43.7967 10.4648C42.4769 10.4648 41.6634 11.353 41.6634 12.8098C41.6634 14.2749 42.4727 15.1589 43.7967 15.1589ZM43.7967 14.3662C43.0206 14.3662 42.5848 13.7976 42.5848 12.8098C42.5848 11.8303 43.0206 11.2576 43.7967 11.2576C44.5687 11.2576 45.0086 11.8303 45.0086 12.8098C45.0086 13.7935 44.5687 14.3662 43.7967 14.3662Z"
                    fill="#222222"
                  />
                  <path
                    d="M52.818 10.552H51.9256L51.1205 14.001H51.0499L50.1202 10.552H49.2652L48.3355 14.001H48.2691L47.4598 10.552H46.555L47.8001 15.0718H48.7174L49.6471 11.7432H49.7176L50.6515 15.0718H51.577L52.818 10.552Z"
                    fill="#222222"
                  />
                  <path
                    d="M53.8456 15.0718H54.7379V12.428C54.7379 11.7224 55.1571 11.2825 55.817 11.2825C56.477 11.2825 56.7924 11.6436 56.7924 12.3699V15.0718H57.6847V12.1458C57.6847 11.0708 57.1286 10.4648 56.12 10.4648C55.4394 10.4648 54.9911 10.7678 54.7711 11.27H54.7047V10.552H53.8456V15.0718Z"
                    fill="#222222"
                  />
                  <path
                    d="M59.09 15.0718H59.9824V8.78809H59.09V15.0718Z"
                    fill="#222222"
                  />
                  <path
                    d="M63.3384 15.1589C64.6582 15.1589 65.4675 14.2749 65.4675 12.8098C65.4675 11.353 64.6541 10.4648 63.3384 10.4648C62.0186 10.4648 61.2051 11.353 61.2051 12.8098C61.2051 14.2749 62.0144 15.1589 63.3384 15.1589ZM63.3384 14.3662C62.5623 14.3662 62.1265 13.7976 62.1265 12.8098C62.1265 11.8303 62.5623 11.2576 63.3384 11.2576C64.1104 11.2576 64.5503 11.8303 64.5503 12.8098C64.5503 13.7935 64.1104 14.3662 63.3384 14.3662Z"
                    fill="#222222"
                  />
                  <path
                    d="M68.1263 14.3953C67.6407 14.3953 67.2879 14.1587 67.2879 13.752C67.2879 13.3535 67.5701 13.1418 68.1927 13.1003L69.2967 13.0298V13.4075C69.2967 13.9678 68.7986 14.3953 68.1263 14.3953ZM67.898 15.1465C68.4915 15.1465 68.9854 14.8892 69.2552 14.4368H69.3257V15.0718H70.1849V11.9839C70.1849 11.0293 69.5457 10.4648 68.4126 10.4648C67.3875 10.4648 66.657 10.9629 66.5657 11.739H67.429C67.5286 11.4194 67.8731 11.2368 68.3711 11.2368C68.9812 11.2368 69.2967 11.5066 69.2967 11.9839V12.374L68.0723 12.4446C66.9974 12.511 66.3914 12.98 66.3914 13.7935C66.3914 14.6194 67.0264 15.1465 67.898 15.1465Z"
                    fill="#222222"
                  />
                  <path
                    d="M73.213 15.1465C73.8355 15.1465 74.3626 14.8518 74.6324 14.3579H74.703V15.0718H75.558V8.78809H74.6656V11.27H74.5992C74.3543 10.772 73.8314 10.4773 73.213 10.4773C72.0716 10.4773 71.337 11.3821 71.337 12.8098C71.337 14.2417 72.0633 15.1465 73.213 15.1465ZM73.4662 11.2783C74.2132 11.2783 74.6822 11.8718 74.6822 12.814C74.6822 13.7603 74.2174 14.3455 73.4662 14.3455C72.7108 14.3455 72.2584 13.7686 72.2584 12.8098C72.2584 11.8594 72.7149 11.2783 73.4662 11.2783Z"
                    fill="#222222"
                  />
                  <path
                    d="M81.3444 15.1589C82.6643 15.1589 83.4736 14.2749 83.4736 12.8098C83.4736 11.353 82.6601 10.4648 81.3444 10.4648C80.0246 10.4648 79.2111 11.353 79.2111 12.8098C79.2111 14.2749 80.0205 15.1589 81.3444 15.1589ZM81.3444 14.3662C80.5683 14.3662 80.1325 13.7976 80.1325 12.8098C80.1325 11.8303 80.5683 11.2576 81.3444 11.2576C82.1164 11.2576 82.5563 11.8303 82.5563 12.8098C82.5563 13.7935 82.1164 14.3662 81.3444 14.3662Z"
                    fill="#222222"
                  />
                  <path
                    d="M84.6548 15.0718H85.5471V12.428C85.5471 11.7224 85.9663 11.2825 86.6262 11.2825C87.2861 11.2825 87.6016 11.6436 87.6016 12.3699V15.0718H88.4939V12.1458C88.4939 11.0708 87.9377 10.4648 86.9292 10.4648C86.2485 10.4648 85.8003 10.7678 85.5803 11.27H85.5139V10.552H84.6548V15.0718Z"
                    fill="#222222"
                  />
                  <path
                    d="M92.6036 9.42725V10.5728H91.8856V11.324H92.6036V13.8765C92.6036 14.748 92.9979 15.0967 93.9898 15.0967C94.1642 15.0967 94.3302 15.0759 94.4754 15.051V14.3081C94.3509 14.3206 94.2721 14.3289 94.1351 14.3289C93.691 14.3289 93.4959 14.1213 93.4959 13.6482V11.324H94.4754V10.5728H93.4959V9.42725H92.6036Z"
                    fill="#222222"
                  />
                  <path
                    d="M95.6732 15.0718H96.5656V12.4321C96.5656 11.7473 96.9723 11.2866 97.7028 11.2866C98.3336 11.2866 98.6698 11.6519 98.6698 12.374V15.0718H99.5622V12.1541C99.5622 11.0791 98.9687 10.469 98.0058 10.469C97.3251 10.469 96.8478 10.772 96.6278 11.2783H96.5573V8.78809H95.6732V15.0718Z"
                    fill="#222222"
                  />
                  <path
                    d="M102.781 11.2244C103.441 11.2244 103.873 11.6851 103.894 12.3948H101.611C101.661 11.6892 102.121 11.2244 102.781 11.2244ZM103.889 13.8516C103.723 14.2043 103.354 14.3994 102.814 14.3994C102.101 14.3994 101.64 13.8972 101.611 13.1045V13.0547H104.802V12.7434C104.802 11.324 104.043 10.4648 102.785 10.4648C101.511 10.4648 100.702 11.3821 100.702 12.8264C100.702 14.2708 101.495 15.1589 102.789 15.1589C103.823 15.1589 104.545 14.6609 104.748 13.8516H103.889Z"
                    fill="#222222"
                  />
                  <path
                    d="M24.769 20.6722C24.7907 18.9912 25.6934 17.4006 27.1256 16.5201C26.2221 15.2298 24.7088 14.4117 23.1344 14.3624C21.4552 14.1862 19.8272 15.3672 18.9715 15.3672C18.0992 15.3672 16.7817 14.3799 15.363 14.4091C13.5137 14.4689 11.7898 15.5202 10.8901 17.137C8.95607 20.4854 10.3987 25.4064 12.2513 28.1131C13.1782 29.4384 14.2615 30.9189 15.6789 30.8664C17.066 30.8088 17.584 29.9819 19.2583 29.9819C20.9171 29.9819 21.4031 30.8664 22.8493 30.833C24.3377 30.8088 25.2754 29.5017 26.1698 28.1638C26.8358 27.2195 27.3483 26.1758 27.6882 25.0713C25.9391 24.3315 24.771 22.5713 24.769 20.6722Z"
                    fill="#222222"
                  />
                  <path
                    d="M22.0373 12.5824C22.8489 11.6082 23.2487 10.356 23.1518 9.0918C21.912 9.22202 20.7668 9.81458 19.9443 10.7514C19.14 11.6667 18.7214 12.8969 18.8006 14.1128C20.0408 14.1256 21.2601 13.5491 22.0373 12.5824Z"
                    fill="#222222"
                  />
                </svg>