<svg width="131" height="19" viewBox="0 0 131 19" fill="none" xmlns="http://www.w3.org/2000/svg">
<g clip-path="url(#clip0_1680_3347)">
<path d="M126.859 5.53688C126.755 5.53688 126.651 5.46065 126.651 5.38442V4.31719H126.235C126.131 4.31719 126.027 4.24096 126.027 4.16473C126.027 4.0885 126.131 4.01227 126.235 4.01227H127.482C127.586 4.01227 127.69 4.0885 127.69 4.16473C127.69 4.24096 127.586 4.31719 127.482 4.31719H127.066V5.38442C127.066 5.46065 127.014 5.53688 126.859 5.53688ZM129.978 5.53688C129.874 5.53688 129.77 5.46065 129.77 5.38442V4.46965L129.25 5.49876C129.25 5.53687 129.198 5.57499 129.146 5.57499C129.094 5.57499 129.042 5.53687 129.042 5.49876L128.522 4.46965V5.38442C128.522 5.46065 128.418 5.53688 128.314 5.53688C128.21 5.53688 128.106 5.46065 128.106 5.38442V4.27907C128.106 4.12661 128.262 4.01227 128.47 4.01227C128.626 4.01227 128.73 4.0885 128.782 4.16473L129.198 4.92703L129.614 4.16473C129.666 4.05038 129.77 4.01227 129.926 4.01227C130.134 4.01227 130.29 4.12661 130.29 4.27907V5.38442C130.186 5.46065 130.134 5.53688 129.978 5.53688Z" fill="#EE2841"/>
<path d="M15.9716 3.55489C15.9716 3.02127 16.1795 2.52577 16.5954 2.10651C15.4517 2.37331 14.568 3.13562 14.568 4.05039V5.68934L15.9716 5.72745V3.55489Z" fill="#EE2841"/>
<path d="M14.62 14.7989C14.62 15.7137 15.4517 16.5141 16.6474 16.7428C16.2835 16.3235 16.0236 15.828 16.0236 15.2944V12.2452H14.62V14.7989Z" fill="#EE2841"/>
<path d="M18.1031 12.2452H16.6994V15.2944C16.6994 16.2092 17.5312 17.0096 18.7269 17.2383C18.363 16.819 18.1031 16.3235 18.1031 15.7899V12.2452Z" fill="#EE2841"/>
<path d="M18.1031 3.0594C18.1031 2.52579 18.311 2.03029 18.7269 1.61102C17.5832 1.87783 16.6994 2.64014 16.6994 3.5549V5.76559L18.1031 5.8037V3.0594Z" fill="#EE2841"/>
<path d="M2.40317 2.41144C1.36344 2.86882 0.687622 3.66924 0.687622 4.584V14.3034C0.687622 15.2182 1.36344 16.0567 2.40317 16.476C2.19522 16.1329 2.09125 15.7137 2.09125 15.2944V3.55489C2.09125 3.17374 2.19522 2.75448 2.40317 2.41144Z" fill="#EE2841"/>
<path d="M4.17072 2.56389C4.17072 2.14463 4.27469 1.76348 4.48264 1.38232C3.44291 1.83971 2.76709 2.64013 2.76709 3.55489V15.2944C2.76709 16.3997 3.70285 17.3145 5.05449 17.6956C4.48264 17.162 4.17072 16.5141 4.17072 15.828V2.56389Z" fill="#EE2841"/>
<path d="M21.5861 1.03927C20.0265 1.03927 18.7789 1.95404 18.7789 3.0975V6.41352L11.8127 6.1086V2.52577C11.8127 1.11551 10.2531 -0.0279541 8.32961 -0.0279541C6.40612 -0.0279541 4.84653 1.11551 4.84653 2.52577V15.7899C4.84653 17.2001 6.40612 18.3436 8.32961 18.3436C10.2531 18.3436 11.8127 17.2001 11.8127 15.7899V11.7115H18.7789V15.7899C18.7789 16.9333 20.0265 17.8481 21.5861 17.8481C23.1457 17.8481 24.3934 16.9333 24.3934 15.7899V3.05938C24.3414 1.91593 23.0937 1.03927 21.5861 1.03927Z" fill="#EE2841"/>
<path d="M45.6038 13.4649V9.69144H38.0658V13.4649C38.0658 13.8841 37.5979 14.2272 37.0781 14.2272C36.5062 14.2272 36.0383 13.8841 36.0383 13.4649V4.85081C36.0383 4.43154 36.5062 4.0885 37.0781 4.0885C37.6499 4.0885 38.1178 4.43154 38.1178 4.85081V8.35741H45.6558V4.85081C45.6558 4.43154 46.1237 4.0885 46.6955 4.0885C47.2674 4.0885 47.7353 4.43154 47.7353 4.85081V13.4649C47.7353 13.8841 47.2674 14.2272 46.6955 14.2272C46.0717 14.189 45.6038 13.846 45.6038 13.4649Z" fill="#EE2841"/>
<path d="M49.0869 10.4919C49.0869 8.39551 51.0104 6.71844 54.0776 6.71844C57.1448 6.71844 59.0683 8.43363 59.0683 10.4919C59.0683 12.5882 57.1968 14.3034 54.0776 14.3034C51.0104 14.3034 49.0869 12.5882 49.0869 10.4919ZM57.1448 10.4919C57.1448 9.1197 56.0531 7.90001 54.0776 7.90001C52.1021 7.90001 51.0104 9.1197 51.0104 10.4919C51.0104 11.864 52.1021 13.0837 54.0776 13.0837C56.0531 13.1218 57.1448 11.9021 57.1448 10.4919Z" fill="#EE2841"/>
<path d="M69.7255 6.71844C72.6887 6.71844 74.5083 8.39551 74.5083 10.3013C74.5083 10.7205 74.1444 10.9492 73.4165 10.9492H66.7103C66.8663 12.1689 68.0619 13.198 70.0374 13.198C70.8692 13.198 71.753 13.0075 72.4808 12.6263C72.5848 12.5501 72.7407 12.5501 72.8967 12.5501C73.3126 12.5501 73.6245 12.7788 73.6245 13.0837C73.6245 13.2743 73.5205 13.4267 73.3126 13.5411C72.3248 14.0747 71.1811 14.3034 69.8815 14.3034C66.9702 14.3034 64.7868 12.7788 64.7868 10.4919C64.7868 8.43363 66.8143 6.71844 69.7255 6.71844ZM66.7103 9.99635H72.7407C72.6887 9.04347 71.805 7.8619 69.7255 7.8619C67.75 7.82379 66.7623 9.00536 66.7103 9.99635Z" fill="#EE2841"/>
<path d="M75.652 13.5411V4.77458C75.652 4.39342 76.0679 4.0885 76.5877 4.0885C77.0556 4.0885 77.5235 4.39342 77.5235 4.77458V13.5411C77.5235 13.9222 77.1076 14.2272 76.5877 14.2272C76.0679 14.189 75.652 13.9222 75.652 13.5411Z" fill="#EE2841"/>
<path d="M78.6672 13.0075C78.6672 12.6644 79.0311 12.4357 79.447 12.4357C79.6029 12.4357 79.7589 12.4738 79.9149 12.5501C80.6946 12.9693 81.6304 13.2361 82.6701 13.2361C84.0738 13.2361 84.8016 12.8169 84.8016 12.207C84.8016 11.4828 83.6579 11.2542 82.4102 11.0255C80.7466 10.7587 78.7712 10.4156 78.7712 8.85289C78.7712 7.70944 80.1228 6.71844 82.5142 6.71844C83.8658 6.71844 84.9575 7.02337 85.7893 7.48075C85.9973 7.5951 86.1012 7.74755 86.1012 7.93813C86.1012 8.24305 85.7373 8.47174 85.3734 8.47174C85.2175 8.47174 85.0615 8.43363 84.9575 8.3574C84.3337 8.01436 83.4499 7.82378 82.5142 7.82378C81.2665 7.82378 80.4867 8.16682 80.4867 8.77666C80.4867 9.38651 81.5264 9.6152 82.7741 9.80577C84.4897 10.0726 86.5171 10.4156 86.5171 12.0927C86.5171 13.3505 85.1135 14.3034 82.5662 14.3034C81.2145 14.3034 79.9668 14.0366 78.9791 13.503C78.8231 13.3886 78.6672 13.198 78.6672 13.0075Z" fill="#EE2841"/>
<path d="M89.0124 12.4357C89.6883 12.4357 90.3121 12.855 90.3121 13.3505C90.3121 13.846 89.7402 14.3034 89.0124 14.3034C88.3366 14.3034 87.7648 13.8841 87.7648 13.3505C87.7128 12.855 88.2846 12.4357 89.0124 12.4357Z" fill="#EE2841"/>
<path d="M99.8256 10.4919C99.8256 8.39551 101.749 6.71844 104.816 6.71844C107.884 6.71844 109.807 8.43363 109.807 10.4919C109.807 12.5882 107.936 14.3034 104.816 14.3034C101.697 14.3034 99.8256 12.5882 99.8256 10.4919ZM107.832 10.4919C107.832 9.1197 106.74 7.90001 104.764 7.90001C102.789 7.90001 101.697 9.1197 101.697 10.4919C101.697 11.864 102.789 13.0837 104.764 13.0837C106.74 13.1218 107.832 11.9021 107.832 10.4919Z" fill="#EE2841"/>
<path d="M124.935 8.92912V13.5411C124.935 13.9222 124.519 14.2271 123.999 14.2271C123.531 14.2271 123.115 13.9222 123.115 13.5411V9.31028C123.115 8.47174 122.596 8.05248 121.4 8.05248C120.412 8.05248 119.424 8.89101 118.957 9.38651V13.503C118.957 13.8841 118.541 14.189 118.021 14.189C117.553 14.189 117.085 13.8841 117.085 13.503V9.27216C117.085 8.43363 116.617 8.01436 115.37 8.01436C114.434 8.01436 113.446 8.89101 112.978 9.42462V13.503C112.978 13.8841 112.562 14.189 112.042 14.189C111.523 14.189 111.107 13.8841 111.107 13.503V7.48075C111.107 7.0996 111.523 6.79467 111.99 6.79467C112.51 6.79467 112.926 7.0996 112.926 7.48075V7.90001C113.342 7.44263 114.642 6.71844 116.097 6.71844C117.605 6.71844 118.489 7.29017 118.749 8.05248C119.32 7.3664 120.672 6.71844 122.076 6.71844C123.999 6.71844 124.935 7.48074 124.935 8.92912Z" fill="#EE2841"/>
<path d="M95.7707 6.71844C97.1743 6.71844 98.1621 7.06148 98.8899 7.55698C99.0458 7.67132 99.1498 7.82378 99.1498 8.01436C99.1498 8.3574 98.7859 8.62421 98.318 8.62421C98.1101 8.62421 97.9021 8.54797 97.7462 8.47174C97.1743 8.09059 96.5505 7.90001 95.7707 7.90001C93.8472 7.90001 92.5995 9.00536 92.5995 10.4919C92.5995 11.9783 93.8472 13.0456 95.7707 13.0837C97.0703 13.1218 98.37 12.4357 99.4617 11.1779C99.6177 11.0255 99.7736 10.7587 99.9296 10.6062C100.242 10.3394 100.449 10.4537 100.605 10.6062C100.917 10.873 100.917 11.4447 100.709 11.7497C100.138 12.5501 99.6177 12.9312 99.0458 13.3505C98.266 13.9222 97.0704 14.3034 95.6667 14.3034C92.7035 14.3034 90.676 12.6644 90.676 10.4919C90.78 8.3574 92.8075 6.71844 95.7707 6.71844Z" fill="#EE2841"/>
<path d="M66.0865 13.0075C66.0865 13.2743 65.0987 13.846 64.3709 14.0747C63.955 14.2271 63.5391 14.2653 62.9673 14.2653C61.4077 14.2653 60.6279 13.6173 60.6279 12.4738V8.05248H59.6921C59.2762 8.05248 58.8604 7.78567 58.8604 7.44263C58.8604 7.13771 59.2243 6.8709 59.6921 6.8709H60.6279V5.49875C60.6279 5.1176 61.0438 4.81268 61.5636 4.81268C62.0315 4.81268 62.4994 5.1176 62.4994 5.49875V6.8709H63.7991C64.2669 6.8709 64.6308 7.13771 64.6308 7.44263C64.6308 7.78567 64.2669 8.05248 63.7991 8.05248H62.4994V12.207C62.4994 12.7025 62.8113 13.0837 63.4352 13.0837C64.5789 13.0837 65.4626 11.7878 65.9305 11.7878C66.3984 11.8259 66.0865 12.7025 66.0865 13.0075Z" fill="#EE2841"/>
</g>
<defs>
<clipPath id="clip0_1680_3347">
<rect width="129.55" height="18.3715" fill="white" transform="translate(0.674988)"/>
</clipPath>
</defs>
</svg>
