<svg
                  width="135"
                  height="41"
                  viewBox="0 0 135 41"
                  fill="none"
                  xmlns="http://www.w3.org/2000/svg"
                >
                  <rect
                    y="0.371582"
                    width="135"
                    height="40"
                    rx="5"
                    fill="white"
                  />
                  <path
                    d="M68.136 22.1229C65.784 22.1229 63.867 23.9119 63.867 26.3759C63.867 28.8249 65.784 30.6289 68.136 30.6289C70.489 30.6289 72.406 28.8249 72.406 26.3759C72.405 23.9119 70.488 22.1229 68.136 22.1229ZM68.136 28.9549C66.847 28.9549 65.736 27.8919 65.736 26.3769C65.736 24.8459 66.848 23.7989 68.136 23.7989C69.425 23.7989 70.536 24.8459 70.536 26.3769C70.536 27.8909 69.425 28.9549 68.136 28.9549ZM58.822 22.1229C56.47 22.1229 54.553 23.9119 54.553 26.3759C54.553 28.8249 56.47 30.6289 58.822 30.6289C61.175 30.6289 63.092 28.8249 63.092 26.3759C63.092 23.9119 61.175 22.1229 58.822 22.1229ZM58.822 28.9549C57.533 28.9549 56.422 27.8919 56.422 26.3769C56.422 24.8459 57.534 23.7989 58.822 23.7989C60.111 23.7989 61.222 24.8459 61.222 26.3769C61.223 27.8909 60.111 28.9549 58.822 28.9549ZM47.744 23.4289V25.2329H52.062C51.933 26.2479 51.595 26.9889 51.079 27.5039C50.451 28.1319 49.468 28.8249 47.744 28.8249C45.086 28.8249 43.008 26.6819 43.008 24.0239C43.008 21.3659 45.086 19.2229 47.744 19.2229C49.178 19.2229 50.225 19.7869 50.998 20.5119L52.271 19.2389C51.191 18.2079 49.758 17.4189 47.744 17.4189C44.103 17.4189 41.042 20.3829 41.042 24.0239C41.042 27.6649 44.103 30.6289 47.744 30.6289C49.709 30.6289 51.192 29.9839 52.351 28.7759C53.543 27.5839 53.914 25.9079 53.914 24.5549C53.914 24.1369 53.882 23.7499 53.817 23.4279H47.744V23.4289ZM93.052 24.8299C92.698 23.8799 91.618 22.1229 89.411 22.1229C87.22 22.1229 85.399 23.8469 85.399 26.3759C85.399 28.7599 87.204 30.6289 89.62 30.6289C91.569 30.6289 92.697 29.4369 93.165 28.7439L91.715 27.7769C91.232 28.4859 90.571 28.9529 89.62 28.9529C88.67 28.9529 87.993 28.5179 87.558 27.6639L93.245 25.3119L93.052 24.8299ZM87.252 26.2479C87.204 24.6039 88.525 23.7669 89.476 23.7669C90.217 23.7669 90.845 24.1379 91.055 24.6689L87.252 26.2479ZM82.629 30.3719H84.497V17.8709H82.629V30.3719ZM79.567 23.0739H79.503C79.084 22.5739 78.278 22.1229 77.264 22.1229C75.137 22.1229 73.188 23.9919 73.188 26.3929C73.188 28.7769 75.137 30.6299 77.264 30.6299C78.279 30.6299 79.084 30.1789 79.503 29.6639H79.567V30.2759C79.567 31.9029 78.697 32.7729 77.296 32.7729C76.152 32.7729 75.443 31.9519 75.153 31.2589L73.526 31.9359C73.993 33.0629 75.233 34.4489 77.296 34.4489C79.487 34.4489 81.34 33.1599 81.34 30.0179V22.3819H79.568V23.0739H79.567ZM77.425 28.9549C76.136 28.9549 75.057 27.8749 75.057 26.3929C75.057 24.8939 76.136 23.7989 77.425 23.7989C78.697 23.7989 79.696 24.8939 79.696 26.3929C79.696 27.8749 78.697 28.9549 77.425 28.9549ZM101.806 17.8709H97.335V30.3719H99.2V25.6359H101.805C103.873 25.6359 105.907 24.1389 105.907 21.7539C105.907 19.3689 103.874 17.8709 101.806 17.8709ZM101.854 23.8959H99.2V19.6109H101.854C103.249 19.6109 104.041 20.7659 104.041 21.7539C104.041 22.7219 103.249 23.8959 101.854 23.8959ZM113.386 22.1009C112.035 22.1009 110.636 22.6959 110.057 24.0149L111.713 24.7059C112.067 24.0149 112.727 23.7889 113.418 23.7889C114.383 23.7889 115.364 24.3679 115.38 25.3969V25.5259C115.042 25.3329 114.318 25.0439 113.434 25.0439C111.649 25.0439 109.831 26.0249 109.831 27.8579C109.831 29.5309 111.295 30.6079 112.935 30.6079C114.189 30.6079 114.881 30.0449 115.315 29.3849H115.379V30.3499H117.181V25.5569C117.182 23.3389 115.524 22.1009 113.386 22.1009ZM113.16 28.9519C112.55 28.9519 111.697 28.6459 111.697 27.8899C111.697 26.9249 112.759 26.5549 113.676 26.5549C114.495 26.5549 114.882 26.7319 115.38 26.9729C115.235 28.1319 114.238 28.9519 113.16 28.9519ZM123.743 22.3739L121.604 27.7939H121.54L119.32 22.3739H117.31L120.639 29.9489L118.741 34.1629H120.687L125.818 22.3739H123.743ZM106.937 30.3719H108.802V17.8709H106.937V30.3719Z"
                    fill="#222222"
                  />
                  <path
                    d="M47.418 10.6143C47.418 11.4523 47.1701 12.1193 46.673 12.6173C46.109 13.2093 45.3731 13.5053 44.4691 13.5053C43.6031 13.5053 42.8661 13.2053 42.2611 12.6053C41.6551 12.0043 41.3521 11.2603 41.3521 10.3723C41.3521 9.48328 41.6551 8.73928 42.2611 8.13928C42.8661 7.53828 43.6031 7.23828 44.4691 7.23828C44.8991 7.23828 45.3101 7.32228 45.7001 7.48928C46.0911 7.65728 46.404 7.88028 46.6381 8.15928L46.111 8.68728C45.714 8.21228 45.167 7.97528 44.468 7.97528C43.836 7.97528 43.29 8.19728 42.829 8.64128C42.368 9.08528 42.1381 9.66228 42.1381 10.3713C42.1381 11.0803 42.368 11.6573 42.829 12.1013C43.29 12.5453 43.836 12.7673 44.468 12.7673C45.138 12.7673 45.6971 12.5443 46.1441 12.0973C46.4341 11.8063 46.602 11.4013 46.647 10.8823H44.468V10.1613H47.375C47.405 10.3183 47.418 10.4693 47.418 10.6143Z"
                    fill="#222222"
                  />
                  <path
                    d="M52.0281 8.10834H49.2961V10.0103H51.7601V10.7313H49.2961V12.6333H52.0281V13.3713H48.5251V7.37134H52.0281V8.10834Z"
                    fill="#222222"
                  />
                  <path
                    d="M55.279 13.3713H54.508V8.10834H52.832V7.37134H56.955V8.10834H55.279V13.3713Z"
                    fill="#222222"
                  />
                  <path
                    d="M59.938 13.3713V7.37134H60.709V13.3713H59.938Z"
                    fill="#222222"
                  />
                  <path
                    d="M64.1281 13.3713H63.3572V8.10834H61.6812V7.37134H65.8042V8.10834H64.1281V13.3713Z"
                    fill="#222222"
                  />
                  <path
                    d="M73.6089 12.5963C73.0189 13.2023 72.2859 13.5053 71.4089 13.5053C70.5319 13.5053 69.7989 13.2023 69.2099 12.5963C68.6199 11.9903 68.3259 11.2483 68.3259 10.3713C68.3259 9.49433 68.6199 8.75233 69.2099 8.14633C69.7989 7.54033 70.5319 7.23633 71.4089 7.23633C72.2809 7.23633 73.0129 7.54133 73.6049 8.15033C74.1969 8.75933 74.4929 9.49933 74.4929 10.3713C74.4929 11.2483 74.1979 11.9903 73.6089 12.5963ZM69.7789 12.0933C70.2229 12.5433 70.7659 12.7673 71.4089 12.7673C72.0519 12.7673 72.5959 12.5423 73.0389 12.0933C73.4829 11.6433 73.7059 11.0693 73.7059 10.3713C73.7059 9.67333 73.4829 9.09933 73.0389 8.64933C72.5959 8.19933 72.0519 7.97533 71.4089 7.97533C70.7659 7.97533 70.2229 8.20033 69.7789 8.64933C69.3359 9.09933 69.1129 9.67333 69.1129 10.3713C69.1129 11.0693 69.3359 11.6433 69.7789 12.0933Z"
                    fill="#222222"
                  />
                  <path
                    d="M75.5749 13.3713V7.37134H76.513L79.429 12.0383H79.4619L79.429 10.8823V7.37134H80.1999V13.3713H79.3949L76.344 8.47734H76.3109L76.344 9.63334V13.3713H75.5749Z"
                    fill="#222222"
                  />
                  <path
                    d="M47.418 10.6143C47.418 11.4523 47.1701 12.1193 46.673 12.6173C46.109 13.2093 45.3731 13.5053 44.4691 13.5053C43.6031 13.5053 42.8661 13.2053 42.2611 12.6053C41.6551 12.0043 41.3521 11.2603 41.3521 10.3723C41.3521 9.48328 41.6551 8.73928 42.2611 8.13928C42.8661 7.53828 43.6031 7.23828 44.4691 7.23828C44.8991 7.23828 45.3101 7.32228 45.7001 7.48928C46.0911 7.65728 46.404 7.88028 46.6381 8.15928L46.111 8.68728C45.714 8.21228 45.167 7.97528 44.468 7.97528C43.836 7.97528 43.29 8.19728 42.829 8.64128C42.368 9.08528 42.1381 9.66228 42.1381 10.3713C42.1381 11.0803 42.368 11.6573 42.829 12.1013C43.29 12.5453 43.836 12.7673 44.468 12.7673C45.138 12.7673 45.6971 12.5443 46.1441 12.0973C46.4341 11.8063 46.602 11.4013 46.647 10.8823H44.468V10.1613H47.375C47.405 10.3183 47.418 10.4693 47.418 10.6143Z"
                    stroke="#222222"
                    stroke-width="0.2"
                    stroke-miterlimit="10"
                  />
                  <path
                    d="M52.0281 8.10834H49.2961V10.0103H51.7601V10.7313H49.2961V12.6333H52.0281V13.3713H48.5251V7.37134H52.0281V8.10834Z"
                    stroke="#222222"
                    stroke-width="0.2"
                    stroke-miterlimit="10"
                  />
                  <path
                    d="M55.279 13.3713H54.508V8.10834H52.832V7.37134H56.955V8.10834H55.279V13.3713Z"
                    stroke="#222222"
                    stroke-width="0.2"
                    stroke-miterlimit="10"
                  />
                  <path
                    d="M59.938 13.3713V7.37134H60.709V13.3713H59.938Z"
                    stroke="#222222"
                    stroke-width="0.2"
                    stroke-miterlimit="10"
                  />
                  <path
                    d="M64.1281 13.3713H63.3572V8.10834H61.6812V7.37134H65.8042V8.10834H64.1281V13.3713Z"
                    stroke="#222222"
                    stroke-width="0.2"
                    stroke-miterlimit="10"
                  />
                  <path
                    d="M73.6089 12.5963C73.0189 13.2023 72.2859 13.5053 71.4089 13.5053C70.5319 13.5053 69.7989 13.2023 69.2099 12.5963C68.6199 11.9903 68.3259 11.2483 68.3259 10.3713C68.3259 9.49433 68.6199 8.75233 69.2099 8.14633C69.7989 7.54033 70.5319 7.23633 71.4089 7.23633C72.2809 7.23633 73.0129 7.54133 73.6049 8.15033C74.1969 8.75933 74.4929 9.49933 74.4929 10.3713C74.4929 11.2483 74.1979 11.9903 73.6089 12.5963ZM69.7789 12.0933C70.2229 12.5433 70.7659 12.7673 71.4089 12.7673C72.0519 12.7673 72.5959 12.5423 73.0389 12.0933C73.4829 11.6433 73.7059 11.0693 73.7059 10.3713C73.7059 9.67333 73.4829 9.09933 73.0389 8.64933C72.5959 8.19933 72.0519 7.97533 71.4089 7.97533C70.7659 7.97533 70.2229 8.20033 69.7789 8.64933C69.3359 9.09933 69.1129 9.67333 69.1129 10.3713C69.1129 11.0693 69.3359 11.6433 69.7789 12.0933Z"
                    stroke="#222222"
                    stroke-width="0.2"
                    stroke-miterlimit="10"
                  />
                  <path
                    d="M75.5749 13.3713V7.37134H76.513L79.429 12.0383H79.4619L79.429 10.8823V7.37134H80.1999V13.3713H79.3949L76.344 8.47734H76.3109L76.344 9.63334V13.3713H75.5749Z"
                    stroke="#222222"
                    stroke-width="0.2"
                    stroke-miterlimit="10"
                  />
                  <path
                    fill-rule="evenodd"
                    clip-rule="evenodd"
                    d="M25.8548 14.604L14.3332 7.92223C13.8981 7.66163 13.3903 7.51123 12.8469 7.51123C11.7258 7.51123 10.7398 8.19051 10.2669 9.1401L10.3535 9.22667L20.7935 19.6644L25.8548 14.604ZM9.97298 10.2603C9.971 10.3026 9.97 10.3451 9.97 10.3878V30.3554C9.97 30.398 9.971 30.4405 9.97297 30.4828L20.0863 20.3714L9.97298 10.2603ZM10.2669 31.603C10.7399 32.5526 11.726 33.2319 12.8469 33.2319C13.3786 33.2319 13.8778 33.0882 14.3059 32.8358L14.3399 32.8159L25.8746 26.1585L20.7935 21.0785L10.3535 31.5164L10.2669 31.603ZM26.7714 25.641L31.4684 22.93C32.3707 22.4429 32.9832 21.4917 32.9832 20.3948C32.9832 19.3058 32.3789 18.3593 31.4856 17.8706L31.4754 17.8636L26.75 15.1231L21.5007 20.3714L26.7714 25.641Z"
                    fill="#222222"
                  />
                </svg>