<svg width="131" height="19" viewBox="0 0 131 19" fill="none" xmlns="http://www.w3.org/2000/svg">
<g clip-path="url(#clip0_1488_9870)">
<rect x="2.51215" y="1.83716" width="14.6972" height="14.6972" rx="7.34862" fill="white"/>
<path d="M2.61506 10.403C2.77512 11.3661 3.12706 12.2872 3.64999 13.1116C5.54532 12.5831 7.21223 11.5837 7.80502 9.35648C8.45721 6.9051 7.71316 4.33553 5.93296 2.9742C3.50792 4.50945 2.10984 7.39562 2.61506 10.403ZM17.1065 7.96881C17.7789 11.9701 15.0808 15.7596 11.0782 16.4314C10.4046 16.5446 9.73709 16.5624 9.09103 16.4944C8.06584 16.3857 7.07491 16.0629 6.18244 15.5468C5.28997 15.0307 4.51586 14.333 3.91025 13.4986L15.8077 10.0877C15.9785 10.0387 15.9344 9.87394 15.793 9.88374L10.8051 10.2322C11.5081 9.55366 12.0427 8.72143 11.9778 7.57137C11.8468 5.70789 9.9502 3.8891 6.42287 2.6925C7.71298 2.00845 9.17763 1.72426 10.6299 1.8762C13.8315 2.21178 16.5474 4.63928 17.1065 7.96942" fill="#C90018"/>
</g>
<rect x="2.01215" y="1.33716" width="15.6972" height="15.6972" rx="7.84862" stroke="white"/>
<path d="M25.9006 13.0589V6.5299H23.3332V5.31263H29.9065V6.5299H27.3392V13.0589H25.9006Z" fill="#222222"/>
<path d="M34.1766 13.1696C33.1142 13.1696 32.2806 12.8708 31.6756 12.2732C31.0781 11.6757 30.7793 10.8125 30.7793 9.68376V5.31263H32.2179V9.62843C32.2179 10.4252 32.3876 11.0043 32.7269 11.3658C33.0737 11.7273 33.5606 11.9081 34.1877 11.9081C34.8147 11.9081 35.298 11.7273 35.6373 11.3658C35.9767 11.0043 36.1464 10.4252 36.1464 9.62843V5.31263H37.5628V9.68376C37.5628 10.8125 37.2604 11.6757 36.6554 12.2732C36.0578 12.8708 35.2316 13.1696 34.1766 13.1696Z" fill="#222222"/>
<path d="M39.5776 13.0589V5.31263H42.7646C43.4507 5.31263 44.0372 5.42329 44.5241 5.64461C45.0184 5.86594 45.3984 6.18316 45.664 6.5963C45.9295 7.00944 46.0623 7.50004 46.0623 8.0681C46.0623 8.63616 45.9295 9.12676 45.664 9.5399C45.3984 9.94566 45.0184 10.2592 44.5241 10.4805C44.0372 10.6945 43.4507 10.8014 42.7646 10.8014H40.3743L41.0162 10.1485V13.0589H39.5776ZM44.6459 13.0589L42.6872 10.2481H44.2254L46.1951 13.0589H44.6459ZM41.0162 10.3035L40.3743 9.61736H42.6982C43.3327 9.61736 43.8085 9.48088 44.1258 9.20792C44.4504 8.93495 44.6127 8.55501 44.6127 8.0681C44.6127 7.57381 44.4504 7.19387 44.1258 6.92829C43.8085 6.6627 43.3327 6.5299 42.6982 6.5299H40.3743L41.0162 5.82167V10.3035Z" fill="#222222"/>
<path d="M48.9555 11.233L48.8781 9.52883L52.9393 5.31263H54.555L51.1798 8.89806L50.3831 9.77229L48.9555 11.233ZM47.6719 13.0589V5.31263H49.1105V13.0589H47.6719ZM53.0721 13.0589L50.1064 9.52883L51.0581 8.47755L54.7542 13.0589H53.0721Z" fill="#222222"/>
<path d="M55.7337 13.0589V5.31263H57.1723V13.0589H55.7337Z" fill="#222222"/>
<path d="M61.6689 13.1696C61.064 13.1696 60.4848 13.0848 59.9315 12.9151C59.3782 12.738 58.9393 12.513 58.6146 12.24L59.1126 11.1224C59.4225 11.3658 59.8061 11.5687 60.2635 11.731C60.7209 11.8933 61.1894 11.9745 61.6689 11.9745C62.0747 11.9745 62.403 11.9302 62.6538 11.8417C62.9046 11.7531 63.0891 11.6351 63.2071 11.4875C63.3251 11.3326 63.3842 11.1592 63.3842 10.9674C63.3842 10.7314 63.2993 10.5432 63.1296 10.4031C62.96 10.2555 62.7386 10.1412 62.4657 10.06C62.2001 9.97148 61.9013 9.89033 61.5693 9.81656C61.2447 9.74278 60.9164 9.65794 60.5844 9.56203C60.2598 9.45875 59.961 9.32964 59.6881 9.17472C59.4225 9.01241 59.2048 8.79847 59.0352 8.53288C58.8655 8.26729 58.7806 7.92793 58.7806 7.51479C58.7806 7.09428 58.8913 6.71065 59.1126 6.36391C59.3413 6.0098 59.6844 5.72945 60.1418 5.52288C60.6066 5.30894 61.1931 5.20197 61.9013 5.20197C62.3661 5.20197 62.8272 5.26098 63.2846 5.37902C63.742 5.49706 64.1403 5.66674 64.4797 5.88807L64.026 7.00575C63.6793 6.79918 63.3215 6.64794 62.9526 6.55204C62.5837 6.44875 62.2296 6.39711 61.8902 6.39711C61.4918 6.39711 61.1672 6.44506 60.9164 6.54097C60.673 6.63688 60.4922 6.76229 60.3742 6.91722C60.2635 7.07215 60.2082 7.24921 60.2082 7.4484C60.2082 7.68447 60.2893 7.87629 60.4516 8.02384C60.6213 8.16401 60.8389 8.27467 61.1045 8.35582C61.3775 8.43697 61.68 8.51813 62.012 8.59928C62.3439 8.67305 62.6722 8.75789 62.9968 8.8538C63.3288 8.94971 63.6276 9.07512 63.8932 9.23005C64.1662 9.38497 64.3838 9.59523 64.5461 9.86082C64.7158 10.1264 64.8006 10.4621 64.8006 10.8678C64.8006 11.281 64.6863 11.6646 64.4576 12.0187C64.2363 12.3655 63.8932 12.6458 63.4284 12.8597C62.9636 13.0663 62.3771 13.1696 61.6689 13.1696Z" fill="#222222"/>
<path d="M71.6717 5.31263H73.1103V13.0589H71.6717V5.31263ZM67.6657 13.0589H66.2271V5.31263H67.6657V13.0589ZM71.7823 9.73909H67.544V8.51075H71.7823V9.73909Z" fill="#222222"/>
<path d="M77.1487 13.0589L80.6346 5.31263H82.051L85.5479 13.0589H84.0429L81.044 6.07619H81.6195L78.6316 13.0589H77.1487ZM78.7533 11.2662L79.1406 10.1375H83.3237L83.711 11.2662H78.7533Z" fill="#222222"/>
<path d="M86.5331 13.0589V5.31263H87.9717V13.0589H86.5331Z" fill="#222222"/>
<path d="M90.0669 13.0589V5.31263H93.254C93.9401 5.31263 94.5266 5.42329 95.0135 5.64461C95.5078 5.86594 95.8877 6.18316 96.1533 6.5963C96.4189 7.00944 96.5517 7.50004 96.5517 8.0681C96.5517 8.63616 96.4189 9.12676 96.1533 9.5399C95.8877 9.94566 95.5078 10.2592 95.0135 10.4805C94.5266 10.6945 93.9401 10.8014 93.254 10.8014H90.8637L91.5055 10.1485V13.0589H90.0669ZM95.1352 13.0589L93.1765 10.2481H94.7147L96.6845 13.0589H95.1352ZM91.5055 10.3035L90.8637 9.61736H93.1876C93.822 9.61736 94.2979 9.48088 94.6151 9.20792C94.9397 8.93495 95.102 8.55501 95.102 8.0681C95.102 7.57381 94.9397 7.19387 94.6151 6.92829C94.2979 6.6627 93.822 6.5299 93.1876 6.5299H90.8637L91.5055 5.82167V10.3035Z" fill="#222222"/>
<path d="M98.1612 13.0589V5.31263H99.5998V11.8417H103.65V13.0589H98.1612Z" fill="#222222"/>
<path d="M104.786 13.0589V5.31263H106.224V13.0589H104.786Z" fill="#222222"/>
<path d="M108.32 13.0589V5.31263H109.504L114.362 11.2773H113.775V5.31263H115.203V13.0589H114.019L109.161 7.09428H109.747V13.0589H108.32Z" fill="#222222"/>
<path d="M118.606 8.53288H122.457V9.71696H118.606V8.53288ZM118.717 11.8527H123.088V13.0589H117.278V5.31263H122.933V6.51884H118.717V11.8527Z" fill="#222222"/>
<path d="M127.093 13.1696C126.488 13.1696 125.909 13.0848 125.356 12.9151C124.803 12.738 124.364 12.513 124.039 12.24L124.537 11.1224C124.847 11.3658 125.23 11.5687 125.688 11.731C126.145 11.8933 126.614 11.9745 127.093 11.9745C127.499 11.9745 127.827 11.9302 128.078 11.8417C128.329 11.7531 128.513 11.6351 128.631 11.4875C128.749 11.3326 128.809 11.1592 128.809 10.9674C128.809 10.7314 128.724 10.5432 128.554 10.4031C128.384 10.2555 128.163 10.1412 127.89 10.06C127.624 9.97148 127.326 9.89033 126.994 9.81656C126.669 9.74278 126.341 9.65794 126.009 9.56203C125.684 9.45875 125.385 9.32964 125.112 9.17472C124.847 9.01241 124.629 8.79847 124.46 8.53288C124.29 8.26729 124.205 7.92793 124.205 7.51479C124.205 7.09428 124.316 6.71065 124.537 6.36391C124.766 6.0098 125.109 5.72945 125.566 5.52288C126.031 5.30894 126.617 5.20197 127.326 5.20197C127.79 5.20197 128.252 5.26098 128.709 5.37902C129.166 5.49706 129.565 5.66674 129.904 5.88807L129.45 7.00575C129.104 6.79918 128.746 6.64794 128.377 6.55204C128.008 6.44875 127.654 6.39711 127.315 6.39711C126.916 6.39711 126.592 6.44506 126.341 6.54097C126.097 6.63688 125.917 6.76229 125.799 6.91722C125.688 7.07215 125.633 7.24921 125.633 7.4484C125.633 7.68447 125.714 7.87629 125.876 8.02384C126.046 8.16401 126.263 8.27467 126.529 8.35582C126.802 8.43697 127.104 8.51813 127.436 8.59928C127.768 8.67305 128.097 8.75789 128.421 8.8538C128.753 8.94971 129.052 9.07512 129.318 9.23005C129.591 9.38497 129.808 9.59523 129.97 9.86082C130.14 10.1264 130.225 10.4621 130.225 10.8678C130.225 11.281 130.111 11.6646 129.882 12.0187C129.661 12.3655 129.318 12.6458 128.853 12.8597C128.388 13.0663 127.801 13.1696 127.093 13.1696Z" fill="#222222"/>
<defs>
<clipPath id="clip0_1488_9870">
<rect x="2.51215" y="1.83716" width="14.6972" height="14.6972" rx="7.34862" fill="white"/>
</clipPath>
</defs>
</svg>
