<svg width="24" height="24" viewBox="0 0 24 24" fill="none" xmlns="http://www.w3.org/2000/svg">
<path fill-rule="evenodd" clip-rule="evenodd" d="M18.493 6.935C18.6428 7.06578 18.7346 7.25069 18.7481 7.4491C18.7616 7.6475 18.6957 7.84314 18.565 7.993L10.708 16.993C10.6376 17.0736 10.5508 17.1383 10.4533 17.1826C10.3559 17.2269 10.2501 17.2498 10.143 17.2498C10.036 17.2498 9.93015 17.2269 9.8327 17.1826C9.73525 17.1383 9.6484 17.0736 9.57801 16.993L6.43501 13.393C6.30893 13.2425 6.24688 13.0486 6.26217 12.8529C6.27746 12.6572 6.36887 12.4753 6.51679 12.3462C6.66471 12.2172 6.85733 12.1512 7.05331 12.1626C7.24929 12.174 7.433 12.2617 7.56501 12.407L10.143 15.36L17.435 7.007C17.5658 6.85719 17.7507 6.76545 17.9491 6.75195C18.1475 6.73844 18.3431 6.80429 18.493 6.935Z" fill="#222222"/>
</svg>
