<svg width="18" height="19" viewBox="0 0 18 19" fill="none" xmlns="http://www.w3.org/2000/svg">
<path d="M7.65 10.715L3.38062 12.4194C3.11062 12.5319 2.8548 12.5067 2.61315 12.3438C2.3715 12.1809 2.25045 11.9529 2.25 11.66V11.2887C2.25 11.1537 2.28105 11.0244 2.34315 10.9006C2.40525 10.7769 2.49232 10.6756 2.60437 10.5969L7.65 7.07V4.1C7.65 3.72875 7.7823 3.41105 8.0469 3.1469C8.3115 2.88275 8.6292 2.75045 9 2.75C9.3708 2.74955 9.68872 2.88185 9.95377 3.1469C10.2188 3.41195 10.3509 3.72965 10.35 4.1V7.07L15.3956 10.5969C15.5081 10.6756 15.5954 10.7769 15.6575 10.9006C15.7196 11.0244 15.7504 11.1537 15.75 11.2887V11.66C15.75 11.9525 15.6292 12.1804 15.3875 12.3438C15.1459 12.5071 14.8898 12.5323 14.6194 12.4194L10.35 10.715V13.145L12.0881 14.36C12.1781 14.4275 12.2485 14.5092 12.2994 14.605C12.3502 14.7009 12.3754 14.8048 12.375 14.9169V15.3219C12.375 15.5469 12.2821 15.7298 12.0962 15.8706C11.9104 16.0115 11.7052 16.0479 11.4806 15.98L9 15.2375L6.51937 15.98C6.29437 16.0475 6.08895 16.011 5.9031 15.8706C5.71725 15.7302 5.62455 15.5473 5.625 15.3219V14.9169C5.625 14.8044 5.65042 14.7004 5.70127 14.605C5.75212 14.5096 5.82232 14.4279 5.91187 14.36L7.65 13.145V10.715Z" stroke="white" stroke-width="1.2"/>
</svg>
