<svg width="24" height="24" viewBox="0 0 24 24" fill="none" xmlns="http://www.w3.org/2000/svg">
<path d="M10.2 13.62L4.5075 15.8925C4.1475 16.0425 3.8064 16.0089 3.4842 15.7917C3.162 15.5745 3.0006 15.2706 3 14.88V14.385C3 14.205 3.0414 14.0325 3.1242 13.8675C3.207 13.7025 3.3231 13.5675 3.4725 13.4625L10.2 8.76V4.8C10.2 4.305 10.3764 3.8814 10.7292 3.5292C11.082 3.177 11.5056 3.0006 12 3C12.4944 2.9994 12.9183 3.1758 13.2717 3.5292C13.6251 3.8826 13.8012 4.3062 13.8 4.8V8.76L20.5275 13.4625C20.6775 13.5675 20.7939 13.7025 20.8767 13.8675C20.9595 14.0325 21.0006 14.205 21 14.385V14.88C21 15.27 20.8389 15.5739 20.5167 15.7917C20.1945 16.0095 19.8531 16.0431 19.4925 15.8925L13.8 13.62V16.86L16.1175 18.48C16.2375 18.57 16.3314 18.6789 16.3992 18.8067C16.467 18.9345 16.5006 19.0731 16.5 19.2225V19.7625C16.5 20.0625 16.3761 20.3064 16.1283 20.4942C15.8805 20.682 15.6069 20.7306 15.3075 20.64L12 19.65L8.6925 20.64C8.3925 20.73 8.1186 20.6814 7.8708 20.4942C7.623 20.307 7.4994 20.0631 7.5 19.7625V19.2225C7.5 19.0725 7.5339 18.9339 7.6017 18.8067C7.6695 18.6795 7.7631 18.5706 7.8825 18.48L10.2 16.86V13.62Z" stroke="#222222" stroke-width="1.2"/>
</svg>
