<svg width="16" height="17" viewBox="0 0 16 17" fill="none" xmlns="http://www.w3.org/2000/svg">
<g clip-path="url(#clip0_2250_7986)">
<path d="M12.2381 8.98563C12.2599 11.3356 14.2999 12.1178 14.3224 12.1278C14.3051 12.1828 13.9965 13.2423 13.2477 14.3364C12.6005 15.2824 11.9286 16.2249 10.8705 16.2446C9.83075 16.2636 9.49637 15.6279 8.3075 15.6279C7.119 15.6279 6.74762 16.2249 5.76325 16.2636C4.74175 16.3024 3.96387 15.2405 3.31125 14.2981C1.97775 12.3701 0.958622 8.85001 2.327 6.47388C3.00675 5.29388 4.22175 4.54676 5.54037 4.52751C6.54337 4.50838 7.49012 5.20226 8.10325 5.20226C8.716 5.20226 9.8665 4.36776 11.076 4.49026C11.5824 4.51138 13.0036 4.69476 13.9162 6.03076C13.8429 6.07638 12.2205 7.02088 12.2381 8.98563ZM10.284 3.21488C10.8262 2.55851 11.1912 1.64451 11.0917 0.735382C10.31 0.766757 9.36475 1.25626 8.80412 1.91238C8.30162 2.49326 7.86162 3.42326 7.98025 4.31438C8.85162 4.38188 9.74162 3.87163 10.284 3.21488Z" fill="black"/>
</g>
<defs>
<clipPath id="clip0_2250_7986">
<rect width="16" height="16" fill="white" transform="translate(0 0.5)"/>
</clipPath>
</defs>
</svg>
