<svg width="18" height="19" viewBox="0 0 18 19" fill="none" xmlns="http://www.w3.org/2000/svg">
<path d="M13.65 15.5C13.65 15.8314 13.9186 16.1 14.25 16.1C14.5814 16.1 14.85 15.8314 14.85 15.5H13.65ZM14.85 14.375C14.85 14.0436 14.5814 13.775 14.25 13.775C13.9186 13.775 13.65 14.0436 13.65 14.375H14.85ZM3.15 15.5C3.15 15.8314 3.41863 16.1 3.75 16.1C4.08137 16.1 4.35 15.8314 4.35 15.5H3.15ZM4.35 14.375C4.35 14.0436 4.08137 13.775 3.75 13.775C3.41863 13.775 3.15 14.0436 3.15 14.375H4.35ZM1.614 10.4262L2.16834 10.6558L2.16838 10.6557L1.614 10.4262ZM2.42625 9.614L2.65573 10.1684L2.65584 10.1683L2.42625 9.614ZM15.5737 9.614L15.3442 10.1683L15.3443 10.1684L15.5737 9.614ZM16.386 10.4262L15.8316 10.6557L15.8317 10.6558L16.386 10.4262ZM16.386 13.0737L15.8317 12.8442L15.8316 12.8443L16.386 13.0737ZM15.5737 13.886L15.3443 13.3316L15.3442 13.3317L15.5737 13.886ZM2.42625 13.886L2.65584 13.3317L2.65573 13.3316L2.42625 13.886ZM1.614 13.0737L2.16838 12.8443L2.16834 12.8442L1.614 13.0737ZM14.85 15.5V14.375H13.65V15.5H14.85ZM4.35 15.5V14.375H3.15V15.5H4.35ZM2.1 11.75C2.1 11.3923 2.10032 11.154 2.11286 10.97C2.12504 10.7913 2.14669 10.7081 2.16834 10.6558L1.05966 10.1967C0.967305 10.4197 0.931962 10.6488 0.915638 10.8884C0.899676 11.1227 0.9 11.4087 0.9 11.75H2.1ZM2.16838 10.6557C2.21361 10.5465 2.27993 10.4472 2.36356 10.3636L1.51503 9.51503C1.31991 9.71015 1.16516 9.94181 1.05962 10.1968L2.16838 10.6557ZM2.36356 10.3636C2.44718 10.2799 2.54646 10.2136 2.65573 10.1684L2.19677 9.05962C1.94181 9.16516 1.71015 9.31991 1.51503 9.51503L2.36356 10.3636ZM2.65584 10.1683C2.70809 10.1467 2.7913 10.125 2.97 10.1129C3.15403 10.1003 3.3923 10.1 3.75 10.1V8.9C3.4087 8.9 3.12272 8.89968 2.88843 8.91564C2.64883 8.93196 2.41966 8.96731 2.19666 9.05966L2.65584 10.1683ZM3.75 10.1H14.25V8.9H3.75V10.1ZM14.25 10.1C14.6077 10.1 14.846 10.1003 15.03 10.1129C15.2087 10.125 15.2919 10.1467 15.3442 10.1683L15.8033 9.05966C15.5803 8.96731 15.3512 8.93196 15.1116 8.91564C14.8773 8.89968 14.5913 8.9 14.25 8.9V10.1ZM15.3443 10.1684C15.4535 10.2136 15.5528 10.2799 15.6364 10.3636L16.485 9.51503C16.2899 9.31991 16.0582 9.16516 15.8032 9.05962L15.3443 10.1684ZM15.6364 10.3636C15.7201 10.4472 15.7864 10.5465 15.8316 10.6557L16.9404 10.1968C16.8348 9.94181 16.6801 9.71015 16.485 9.51503L15.6364 10.3636ZM15.8317 10.6558C15.8533 10.7081 15.875 10.7913 15.8871 10.97C15.8997 11.154 15.9 11.3923 15.9 11.75H17.1C17.1 11.4087 17.1003 11.1227 17.0844 10.8884C17.068 10.6488 17.0327 10.4197 16.9403 10.1967L15.8317 10.6558ZM15.9 11.75C15.9 12.1077 15.8997 12.346 15.8871 12.53C15.875 12.7087 15.8533 12.7919 15.8317 12.8442L16.9403 13.3033C17.0327 13.0803 17.068 12.8512 17.0844 12.6116C17.1003 12.3773 17.1 12.0913 17.1 11.75H15.9ZM15.8316 12.8443C15.7864 12.9535 15.7201 13.0528 15.6364 13.1364L16.485 13.985C16.6801 13.7899 16.8348 13.5582 16.9404 13.3032L15.8316 12.8443ZM15.6364 13.1364C15.5528 13.2201 15.4535 13.2864 15.3443 13.3316L15.8032 14.4404C16.0582 14.3348 16.2899 14.1801 16.485 13.985L15.6364 13.1364ZM15.3442 13.3317C15.2919 13.3533 15.2087 13.375 15.03 13.3871C14.846 13.3997 14.6077 13.4 14.25 13.4V14.6C14.5913 14.6 14.8773 14.6003 15.1116 14.5844C15.3512 14.568 15.5803 14.5327 15.8033 14.4403L15.3442 13.3317ZM14.25 13.4H3.75V14.6H14.25V13.4ZM3.75 13.4C3.3923 13.4 3.15403 13.3997 2.97 13.3871C2.7913 13.375 2.70809 13.3533 2.65584 13.3317L2.19666 14.4403C2.41966 14.5327 2.64883 14.568 2.88843 14.5844C3.12272 14.6003 3.4087 14.6 3.75 14.6V13.4ZM2.65573 13.3316C2.54646 13.2864 2.44718 13.2201 2.36356 13.1364L1.51503 13.985C1.71015 14.1801 1.94181 14.3348 2.19677 14.4404L2.65573 13.3316ZM2.36356 13.1364C2.27993 13.0528 2.21361 12.9535 2.16838 12.8443L1.05962 13.3032C1.16516 13.5582 1.31991 13.7899 1.51503 13.985L2.36356 13.1364ZM2.16834 12.8442C2.14669 12.7919 2.12504 12.7087 2.11286 12.53C2.10032 12.346 2.1 12.1077 2.1 11.75H0.9C0.9 12.0913 0.899676 12.3773 0.915638 12.6116C0.931962 12.8512 0.967305 13.0803 1.05966 13.3033L2.16834 12.8442ZM16.35 9.5C16.35 8.10284 16.3513 6.9945 16.2348 6.12827C16.1159 5.24479 15.8648 4.52378 15.2951 3.95455L14.4469 4.80345C14.7562 5.11247 14.9446 5.53783 15.0455 6.28823C15.1487 7.05587 15.15 8.06891 15.15 9.5H16.35ZM15.2951 3.95455C14.7256 3.38559 14.0049 3.13445 13.1215 3.01552C12.2554 2.89891 11.1473 2.9 9.75 2.9V4.1C11.181 4.1 12.1939 4.10146 12.9614 4.20479C13.7117 4.3058 14.1374 4.49416 14.4469 4.80345L15.2951 3.95455ZM9.75 2.9H8.25V4.1H9.75V2.9ZM8.25 2.9C6.85284 2.9 5.7445 2.89872 4.87827 3.01523C3.99479 3.13405 3.27378 3.38521 2.70455 3.95492L3.55345 4.80308C3.86247 4.49379 4.28783 4.30545 5.03823 4.20452C5.80587 4.10128 6.81891 4.1 8.25 4.1V2.9ZM2.70455 3.95492C2.13559 4.52436 1.88445 5.24507 1.76552 6.12848C1.64891 6.99463 1.65 8.10275 1.65 9.5H2.85C2.85 8.069 2.85146 7.05612 2.95479 6.28858C3.0558 5.53831 3.24416 5.11263 3.55345 4.80308L2.70455 3.95492ZM14.475 9.5V8.375H13.275V9.5H14.475ZM14.475 8.375C14.475 7.68473 14.4763 7.10681 14.4147 6.64913C14.3508 6.17408 14.2095 5.73996 13.8598 5.39024L13.0112 6.23876C13.101 6.32854 13.1795 6.46742 13.2254 6.80912C13.2737 7.16819 13.275 7.65077 13.275 8.375H14.475ZM13.8598 5.39024C13.51 5.04051 13.0759 4.8992 12.6009 4.83529C12.1432 4.77372 11.5653 4.775 10.875 4.775V5.975C11.5992 5.975 12.0818 5.97628 12.4409 6.02458C12.7826 6.07055 12.9215 6.14899 13.0112 6.23876L13.8598 5.39024ZM10.875 4.775H7.125V5.975H10.875V4.775ZM7.125 4.775C6.43473 4.775 5.85681 4.77372 5.39913 4.83529C4.92408 4.8992 4.48996 5.04051 4.14024 5.39024L4.98876 6.23876C5.07854 6.14899 5.21742 6.07055 5.55912 6.02458C5.91819 5.97628 6.40077 5.975 7.125 5.975V4.775ZM4.14024 5.39024C3.79051 5.73996 3.6492 6.17408 3.58529 6.64913C3.52372 7.10681 3.525 7.68473 3.525 8.375H4.725C4.725 7.65077 4.72628 7.16819 4.77458 6.80912C4.82055 6.46742 4.89899 6.32854 4.98876 6.23876L4.14024 5.39024ZM3.525 8.375V9.5H4.725V8.375H3.525ZM8.4 5.75V9.5H9.6V5.75H8.4Z" fill="white"/>
</svg>
