<svg width="24" height="24" viewBox="0 0 24 24" fill="none" xmlns="http://www.w3.org/2000/svg">
<path d="M18.4 20C18.4 20.3314 18.6686 20.6 19 20.6C19.3314 20.6 19.6 20.3314 19.6 20H18.4ZM19.6 18.5C19.6 18.1686 19.3314 17.9 19 17.9C18.6686 17.9 18.4 18.1686 18.4 18.5H19.6ZM4.4 20C4.4 20.3314 4.66863 20.6 5 20.6C5.33137 20.6 5.6 20.3314 5.6 20H4.4ZM5.6 18.5C5.6 18.1686 5.33137 17.9 5 17.9C4.66863 17.9 4.4 18.1686 4.4 18.5H5.6ZM2.152 13.235L2.70634 13.4646L2.70638 13.4645L2.152 13.235ZM3.235 12.152L3.46448 12.7064L3.46459 12.7063L3.235 12.152ZM20.765 12.152L20.5354 12.7063L20.5355 12.7064L20.765 12.152ZM21.848 13.235L21.2936 13.4645L21.2937 13.4646L21.848 13.235ZM21.848 16.765L21.2937 16.5354L21.2936 16.5355L21.848 16.765ZM20.765 17.848L20.5355 17.2936L20.5354 17.2937L20.765 17.848ZM3.235 17.848L3.46459 17.2937L3.46448 17.2936L3.235 17.848ZM2.152 16.765L2.70638 16.5355L2.70634 16.5354L2.152 16.765ZM19.6 20V18.5H18.4V20H19.6ZM5.6 20V18.5H4.4V20H5.6ZM2.6 15C2.6 14.5258 2.60032 14.2002 2.61761 13.9464C2.63454 13.698 2.66569 13.5627 2.70634 13.4646L1.59766 13.0054C1.48631 13.2743 1.44146 13.5555 1.42039 13.8648C1.39968 14.1688 1.4 14.5422 1.4 15H2.6ZM2.70638 13.4645C2.77674 13.2945 2.87991 13.1401 3.00999 13.01L2.16146 12.1615C1.91988 12.403 1.72829 12.6899 1.59762 13.0055L2.70638 13.4645ZM3.00999 13.01C3.14007 12.8799 3.29451 12.7767 3.46448 12.7064L3.00552 11.5976C2.68985 11.7283 2.40304 11.9199 2.16146 12.1615L3.00999 13.01ZM3.46459 12.7063C3.56272 12.6657 3.69799 12.6345 3.94641 12.6176C4.20016 12.6003 4.5258 12.6 5 12.6V11.4C4.5422 11.4 4.16884 11.3997 3.86484 11.4204C3.55551 11.4415 3.27428 11.4863 3.00541 11.5977L3.46459 12.7063ZM5 12.6H19V11.4H5V12.6ZM19 12.6C19.4742 12.6 19.7998 12.6003 20.0536 12.6176C20.302 12.6345 20.4373 12.6657 20.5354 12.7063L20.9946 11.5977C20.7257 11.4863 20.4445 11.4415 20.1352 11.4204C19.8312 11.3997 19.4578 11.4 19 11.4V12.6ZM20.5355 12.7064C20.7055 12.7767 20.8599 12.8799 20.99 13.01L21.8385 12.1615C21.597 11.9199 21.3101 11.7283 20.9945 11.5976L20.5355 12.7064ZM20.99 13.01C21.1201 13.1401 21.2233 13.2945 21.2936 13.4645L22.4024 13.0055C22.2717 12.6899 22.0801 12.403 21.8385 12.1615L20.99 13.01ZM21.2937 13.4646C21.3343 13.5627 21.3655 13.698 21.3824 13.9464C21.3997 14.2002 21.4 14.5258 21.4 15H22.6C22.6 14.5422 22.6003 14.1688 22.5796 13.8648C22.5585 13.5555 22.5137 13.2743 22.4023 13.0054L21.2937 13.4646ZM21.4 15C21.4 15.4742 21.3997 15.7998 21.3824 16.0536C21.3655 16.302 21.3343 16.4373 21.2937 16.5354L22.4023 16.9946C22.5137 16.7257 22.5585 16.4445 22.5796 16.1352C22.6003 15.8312 22.6 15.4578 22.6 15H21.4ZM21.2936 16.5355C21.2233 16.7055 21.1201 16.8599 20.99 16.99L21.8385 17.8385C22.0801 17.597 22.2717 17.3101 22.4024 16.9945L21.2936 16.5355ZM20.99 16.99C20.8599 17.1201 20.7055 17.2233 20.5355 17.2936L20.9945 18.4024C21.3101 18.2717 21.597 18.0801 21.8385 17.8385L20.99 16.99ZM20.5354 17.2937C20.4373 17.3343 20.302 17.3655 20.0536 17.3824C19.7998 17.3997 19.4742 17.4 19 17.4V18.6C19.4578 18.6 19.8312 18.6003 20.1352 18.5796C20.4445 18.5585 20.7257 18.5137 20.9946 18.4023L20.5354 17.2937ZM19 17.4H5V18.6H19V17.4ZM5 17.4C4.5258 17.4 4.20016 17.3997 3.94641 17.3824C3.69799 17.3655 3.56272 17.3343 3.46459 17.2937L3.00541 18.4023C3.27428 18.5137 3.55551 18.5585 3.86484 18.5796C4.16884 18.6003 4.5422 18.6 5 18.6V17.4ZM3.46448 17.2936C3.29451 17.2233 3.14007 17.1201 3.00999 16.99L2.16146 17.8385C2.40304 18.0801 2.68985 18.2717 3.00552 18.4024L3.46448 17.2936ZM3.00999 16.99C2.87991 16.8599 2.77674 16.7055 2.70638 16.5355L1.59762 16.9945C1.72829 17.3101 1.91988 17.597 2.16146 17.8385L3.00999 16.99ZM2.70634 16.5354C2.66569 16.4373 2.63454 16.302 2.61761 16.0536C2.60032 15.7998 2.6 15.4742 2.6 15H1.4C1.4 15.4578 1.39968 15.8312 1.42039 16.1352C1.44146 16.4445 1.48631 16.7257 1.59766 16.9946L2.70634 16.5354ZM21.6 12C21.6 10.1315 21.6013 8.66956 21.4481 7.53102C21.2927 6.37523 20.9683 5.46315 20.2521 4.74755L19.4039 5.59645C19.8597 6.05185 20.1213 6.66827 20.2589 7.69098C20.3987 8.73094 20.4 10.0975 20.4 12H21.6ZM20.2521 4.74755C19.5361 4.03222 18.6244 3.70783 17.4687 3.55224C16.3302 3.39898 14.8686 3.4 13 3.4V4.6C14.9024 4.6 16.2688 4.60152 17.3086 4.74151C18.3311 4.87917 18.9479 5.14078 19.4039 5.59645L20.2521 4.74755ZM13 3.4H11V4.6H13V3.4ZM11 3.4C9.13147 3.4 7.66956 3.39872 6.53102 3.55185C5.37523 3.7073 4.46315 4.03171 3.74755 4.74792L4.59645 5.59608C5.05185 5.14029 5.66827 4.8787 6.69098 4.74115C7.73094 4.60128 9.09753 4.6 11 4.6V3.4ZM3.74755 4.74792C3.03222 5.46387 2.70783 6.37563 2.55224 7.53132C2.39898 8.66976 2.4 10.1314 2.4 12H3.6C3.6 10.0976 3.60152 8.73124 3.74151 7.69143C3.87917 6.66887 4.14078 6.05213 4.59645 5.59608L3.74755 4.74792ZM19.1 12V10.5H17.9V12H19.1ZM19.1 10.5C19.1 9.57398 19.1013 8.81931 19.0214 8.2255C18.9392 7.61433 18.7612 7.08471 18.3383 6.66174L17.4897 7.51026C17.6528 7.67329 17.7678 7.90767 17.8321 8.3855C17.8987 8.88069 17.9 9.54002 17.9 10.5H19.1ZM18.3383 6.66174C17.9153 6.23876 17.3857 6.06083 16.7745 5.97861C16.1807 5.89872 15.426 5.9 14.5 5.9V7.1C15.46 7.1 16.1193 7.10128 16.6145 7.16789C17.0923 7.23217 17.3267 7.34724 17.4897 7.51026L18.3383 6.66174ZM14.5 5.9H9.5V7.1H14.5V5.9ZM9.5 5.9C8.57398 5.9 7.81931 5.89872 7.2255 5.97861C6.61433 6.06083 6.08471 6.23876 5.66174 6.66174L6.51026 7.51026C6.67329 7.34724 6.90767 7.23217 7.3855 7.16789C7.88069 7.10128 8.54002 7.1 9.5 7.1V5.9ZM5.66174 6.66174C5.23876 7.08471 5.06083 7.61433 4.97861 8.2255C4.89872 8.81931 4.9 9.57398 4.9 10.5H6.1C6.1 9.54002 6.10128 8.88069 6.16789 8.3855C6.23217 7.90767 6.34724 7.67329 6.51026 7.51026L5.66174 6.66174ZM4.9 10.5V12H6.1V10.5H4.9ZM11.4 7V12H12.6V7H11.4Z" fill="#222222"/>
</svg>
