<svg width="18" height="19" viewBox="0 0 18 19" fill="none" xmlns="http://www.w3.org/2000/svg">
<path d="M16.3696 11.4239V10.8043C16.3702 10.3224 16.2863 9.84409 16.1217 9.39112M16.3696 11.4239L15.8696 11.4228L15.8696 10.8043V10.8037C15.8701 10.3802 15.7964 9.95994 15.6518 9.56193L16.1217 9.39112M16.3696 11.4239C16.3685 11.9027 16.2559 12.3747 16.0408 12.8025C15.8258 13.2302 15.5141 13.6021 15.1304 13.8885L16.3696 11.4239ZM16.1217 9.39112L15.6518 9.56186M16.1217 9.39112L14.4489 4.78899C14.2307 4.19186 13.8344 3.67612 13.3137 3.31147C12.7929 2.94682 12.1727 2.75083 11.537 2.75L15.6518 9.56186M15.6518 9.56186L13.9793 4.96061C13.9792 4.96038 13.9791 4.96014 13.979 4.9599C13.7959 4.45924 13.4636 4.02683 13.0269 3.72105C12.59 3.41518 12.0699 3.25076 11.5366 3.25M15.6518 9.56186L11.5366 3.25M11.5366 3.25H6.33296C5.79971 3.25076 5.27953 3.41518 4.84271 3.72105C4.4059 4.0269 4.0735 4.45946 3.8904 4.96028C3.89036 4.96039 3.89032 4.9605 3.89028 4.96061L2.21782 9.56112C2.07321 9.95944 1.9995 10.38 2 10.8038L2 10.8043L2 11.4233C2.00101 11.8243 2.09531 12.2196 2.27544 12.5779C2.45565 12.9363 2.71683 13.2479 3.03829 13.4879L3.23913 13.6379V13.8885V13.8886V13.8886V13.8886V13.8887V13.8887V13.8887V13.8887V13.8888V13.8888V13.8888V13.8889V13.8889V13.8889V13.8889V13.889V13.889V13.889V13.8891V13.8891V13.8891V13.8891V13.8892V13.8892V13.8892V13.8893V13.8893V13.8893V13.8893V13.8894V13.8894V13.8894V13.8895V13.8895V13.8895V13.8895V13.8896V13.8896V13.8896V13.8897V13.8897V13.8897V13.8897V13.8898V13.8898V13.8898V13.8899V13.8899V13.8899V13.8899V13.89V13.89V13.89V13.89V13.8901V13.8901V13.8901V13.8902V13.8902V13.8902V13.8902V13.8903V13.8903V13.8903V13.8903V13.8904V13.8904V13.8904V13.8905V13.8905V13.8905V13.8905V13.8906V13.8906V13.8906V13.8906V13.8907V13.8907V13.8907V13.8908V13.8908V13.8908V13.8908V13.8909V13.8909V13.8909V13.8909V13.891V13.891V13.891V13.8911V13.8911V13.8911V13.8911V13.8912V13.8912V13.8912V13.8912V13.8913V13.8913V13.8913V13.8914V13.8914V13.8914V13.8914V13.8915V13.8915V13.8915V13.8915V13.8916V13.8916V13.8916V13.8916V13.8917V13.8917V13.8917V13.8918V13.8918V13.8918V13.8918V13.8919V13.8919V13.8919V13.8919V13.892V13.892V13.892V13.892V13.8921V13.8921V13.8921V13.8921V13.8922V13.8922V13.8922V13.8923V13.8923V13.8923V13.8923V13.8924V13.8924V13.8924V13.8924V13.8925V13.8925V13.8925V13.8925V13.8926V13.8926V13.8926V13.8926V13.8927V13.8927V13.8927V13.8927V13.8928V13.8928V13.8928V13.8929V13.8929V13.8929V13.8929V13.893V13.893V13.893V13.893V13.8931V13.8931V13.8931V13.8931V13.8932V13.8932V13.8932V13.8932V13.8933V13.8933V13.8933V13.8933V13.8934V13.8934V13.8934V13.8934V13.8935V13.8935V13.8935V13.8935V13.8936V13.8936V13.8936V13.8937V13.8937V13.8937V13.8937V13.8938V13.8938V13.8938V13.8938V13.8939V13.8939V13.8939V13.8939V13.894V13.894V13.894V13.894V13.8941V13.8941V13.8941V13.8941V13.8942V13.8942V13.8942V13.8942V13.8943V13.8943V13.8943V13.8943V13.8944V13.8944V13.8944V13.8944V13.8945V13.8945V13.8945V13.8945V13.8946V13.8946V13.8946V13.8946V13.8947V13.8947V13.8947V13.8947V13.8948V13.8948V13.8948V13.8948V13.8949V13.8949V13.8949V13.895V13.895V13.895V13.895V13.8951V13.8951V13.8951V13.8951V13.8952V13.8952V13.8952V13.8952V13.8953V13.8953V13.8953V13.8953V13.8954V13.8954V13.8954V13.8954V13.8955V13.8955V13.8955V13.8955V13.8956V13.8956V13.8956V13.8956V13.8957V13.8957V13.8957V13.8957V13.8958V13.8958V13.8958V13.8958V13.8959V13.8959V13.8959V13.8959V13.896V13.896V13.896V13.896V13.8961V13.8961V13.8961V13.8961V13.8962V13.8962V13.8962V13.8962V13.8963V13.8963V13.8963V13.8964V13.8964V13.8964V13.8964V13.8965V13.8965V13.8965V13.8965V13.8966V13.8966V13.8966V13.8966V13.8967V13.8967V13.8967V13.8967V13.8968V13.8968V13.8968V13.8968V13.8969V13.8969V13.8969V13.8969V13.897V13.897V13.897V13.897V13.8971V13.8971V13.8971V13.8971V13.8972V13.8972V13.8972V13.8972V13.8973V13.8973V13.8973V13.8973V13.8974V13.8974V13.8974V13.8975V13.8975V13.8975V13.8975V13.8976V13.8976V13.8976V13.8976V13.8977V13.8977V13.8977V13.8977V13.8978V13.8978V13.8978V13.8978V13.8979V13.8979V13.8979V13.8979V13.898V13.898V13.898V13.898V13.8981V13.8981V13.8981V13.8982V13.8982V13.8982V13.8982V13.8983V13.8983V13.8983V13.8983V13.8984V13.8984V13.8984V13.8984V13.8985V13.8985V13.8985V13.8985V13.8986V13.8986V13.8986V13.8986V13.8987V13.8987V13.8987V13.8988V13.8988V13.8988V13.8988V13.8989V13.8989V13.8989V13.8989V13.899V13.899V13.899V13.899V13.8991V13.8991V13.8991V13.8992V13.8992V13.8992V13.8992V13.8993V13.8993V13.8993V13.8993V13.8994V13.8994V13.8994V13.8994V13.8995V13.8995V13.8995V13.8996V13.8996V13.8996V13.8996V13.8997V13.8997V13.8997V13.8997V13.8998V13.8998V13.8998V13.8998V13.8999V13.8999V13.8999V13.9V13.9V13.9V13.9V13.9001V13.9001V13.9001V13.9001V13.9002V13.9002V13.9002V13.9003V13.9003V13.9003V13.9003V13.9004V13.9004V13.9004V13.9004V13.9005V13.9005V13.9005V13.9006V13.9006V13.9006V13.9006V13.9007V13.9007V13.9007V13.9008V13.9008V13.9008V13.9008V13.9009V13.9009V13.9009V13.9009V13.901V13.901V13.901V13.9011V13.9011V13.9011V13.9011V13.9012V13.9012V13.9012V13.9013V13.9013V13.9013V13.9013V13.9014V13.9014V13.9014V13.9015V13.9015V13.9015V13.9015V13.9016V13.9016V13.9016V13.9017V13.9017V13.9017V13.9017V13.9018V13.9018V13.9018V13.9019V13.9019V13.9019V13.9019V13.902V13.902V13.902V13.9021V13.9021V13.9021V13.9021V13.9022V15.1413C3.23913 15.5017 3.38228 15.8472 3.63709 16.102L3.29768 16.4415L3.63709 16.102C3.89189 16.3569 4.23748 16.5 4.59783 16.5C4.95818 16.5 5.30377 16.3569 5.55857 16.102C5.81338 15.8472 5.95653 15.5017 5.95653 15.1413V14.5217V14.0217H6.45653H11.413H11.913V14.5217V15.1413C11.913 15.5017 12.0562 15.8472 12.311 16.102C12.5658 16.3569 12.9114 16.5 13.2717 16.5C13.6321 16.5 13.9777 16.3569 14.2325 16.102C14.4873 15.8472 14.6304 15.5017 14.6304 15.1413V13.9022V13.9021V13.9021V13.9021V13.9021V13.902V13.902V13.902V13.9019V13.9019V13.9019V13.9019V13.9018V13.9018V13.9018V13.9017V13.9017V13.9017V13.9017V13.9016V13.9016V13.9016V13.9015V13.9015V13.9015V13.9015V13.9014V13.9014V13.9014V13.9013V13.9013V13.9013V13.9013V13.9012V13.9012V13.9012V13.9011V13.9011V13.9011V13.9011V13.901V13.901V13.901V13.9009V13.9009V13.9009V13.9009V13.9008V13.9008V13.9008V13.9008V13.9007V13.9007V13.9007V13.9006V13.9006V13.9006V13.9006V13.9005V13.9005V13.9005V13.9004V13.9004V13.9004V13.9004V13.9003V13.9003V13.9003V13.9003V13.9002V13.9002V13.9002V13.9001V13.9001V13.9001V13.9001V13.9V13.9V13.9V13.9V13.8999V13.8999V13.8999V13.8998V13.8998V13.8998V13.8998V13.8997V13.8997V13.8997V13.8997V13.8996V13.8996V13.8996V13.8996V13.8995V13.8995V13.8995V13.8994V13.8994V13.8994V13.8994V13.8993V13.8993V13.8993V13.8993V13.8992V13.8992V13.8992V13.8992V13.8991V13.8991V13.8991V13.899V13.899V13.899V13.899V13.8989V13.8989V13.8989V13.8989V13.8988V13.8988V13.8988V13.8988V13.8987V13.8987V13.8987V13.8986V13.8986V13.8986V13.8986V13.8985V13.8985V13.8985V13.8985V13.8984V13.8984V13.8984V13.8984V13.8983V13.8983V13.8983V13.8983V13.8982V13.8982V13.8982V13.8982V13.8981V13.8981V13.8981V13.898V13.898V13.898V13.898V13.8979V13.8979V13.8979V13.8979V13.8978V13.8978V13.8978V13.8978V13.8977V13.8977V13.8977V13.8977V13.8976V13.8976V13.8976V13.8976V13.8975V13.8975V13.8975V13.8975V13.8974V13.8974V13.8974V13.8973V13.8973V13.8973V13.8973V13.8972V13.8972V13.8972V13.8972V13.8971V13.8971V13.8971V13.8971V13.897V13.897V13.897V13.897V13.8969V13.8969V13.8969V13.8969V13.8968V13.8968V13.8968V13.8968V13.8967V13.8967V13.8967V13.8967V13.8966V13.8966V13.8966V13.8966V13.8965V13.8965V13.8965V13.8965V13.8964V13.8964V13.8964V13.8964V13.8963V13.8963V13.8963V13.8962V13.8962V13.8962V13.8962V13.8961V13.8961V13.8961V13.8961V13.896V13.896V13.896V13.896V13.8959V13.8959V13.8959V13.8959V13.8958V13.8958V13.8958V13.8958V13.8957V13.8957V13.8957V13.8957V13.8956V13.8956V13.8956V13.8956V13.8955V13.8955V13.8955V13.8955V13.8954V13.8954V13.8954V13.8954V13.8953V13.8953V13.8953V13.8953V13.8952V13.8952V13.8952V13.8952V13.8951V13.8951V13.8951V13.8951V13.895V13.895V13.895V13.895V13.8949V13.8949V13.8949V13.8948V13.8948V13.8948V13.8948V13.8947V13.8947V13.8947V13.8947V13.8946V13.8946V13.8946V13.8946V13.8945V13.8945V13.8945V13.8945V13.8944V13.8944V13.8944V13.8944V13.8943V13.8943V13.8943V13.8943V13.8942V13.8942V13.8942V13.8942V13.8941V13.8941V13.8941V13.8941V13.894V13.894V13.894V13.894V13.8939V13.8939V13.8939V13.8939V13.8938V13.8938V13.8938V13.8938V13.8937V13.8937V13.8937V13.8937V13.8936V13.8936V13.8936V13.8935V13.8935V13.8935V13.8935V13.8934V13.8934V13.8934V13.8934V13.8933V13.8933V13.8933V13.8933V13.8932V13.8932V13.8932V13.8932V13.8931V13.8931V13.8931V13.8931V13.893V13.893V13.893V13.893V13.8929V13.8929V13.8929V13.8929V13.8928V13.8928V13.8928V13.8927V13.8927V13.8927V13.8927V13.8926V13.8926V13.8926V13.8926V13.8925V13.8925V13.8925V13.8925V13.8924V13.8924V13.8924V13.8924V13.8923V13.8923V13.8923V13.8923V13.8922V13.8922V13.8922V13.8921V13.8921V13.8921V13.8921V13.892V13.892V13.892V13.892V13.8919V13.8919V13.8919V13.8919V13.8918V13.8918V13.8918V13.8918V13.8917V13.8917V13.8917V13.8916V13.8916V13.8916V13.8916V13.8915V13.8915V13.8915V13.8915V13.8914V13.8914V13.8914V13.8914V13.8913V13.8913V13.8913V13.8912V13.8912V13.8912V13.8912V13.8911V13.8911V13.8911V13.8911V13.891V13.891V13.891V13.8909V13.8909V13.8909V13.8909V13.8908V13.8908V13.8908V13.8908V13.8907V13.8907V13.8907V13.8906V13.8906V13.8906V13.8906V13.8905V13.8905V13.8905V13.8905V13.8904V13.8904V13.8904V13.8903V13.8903V13.8903V13.8903V13.8902V13.8902V13.8902V13.8902V13.8901V13.8901V13.8901V13.89V13.89V13.89V13.89V13.8899V13.8899V13.8899V13.8899V13.8898V13.8898V13.8898V13.8897V13.8897V13.8897V13.8897V13.8896V13.8896V13.8896V13.8895V13.8895V13.8895V13.8895V13.8894V13.8894V13.8894V13.8893V13.8893V13.8893V13.8893V13.8892V13.8892V13.8892V13.8891V13.8891V13.8891V13.8891V13.889V13.889V13.889V13.8889V13.8889V13.8889V13.8889V13.8888V13.8888V13.8888V13.8887V13.8887V13.8887V13.8887V13.8886V13.8886V13.8886V13.8885V13.6379L14.8313 13.4879C15.1527 13.2479 15.4139 12.9363 15.5941 12.5779C15.7743 12.2195 15.8686 11.8242 15.8696 11.4232L11.5366 3.25ZM4.11712 5.04096L4.11678 5.04189L2.75932 8.77477L2.51535 9.44565H3.22921H14.6397H15.3533L15.1097 8.77498L13.7541 5.0421L13.7537 5.04095C13.5875 4.58668 13.2859 4.19433 12.8897 3.91683C12.4935 3.63934 12.0216 3.49006 11.5379 3.48913H11.537L6.33261 3.48913L6.33132 3.48913C5.84786 3.49038 5.3764 3.63981 4.9805 3.91728C4.58459 4.19476 4.28326 4.58693 4.11712 5.04096ZM4.07776 13.9698L3.47826 13.848V14.4598V15.1413C3.47826 15.4382 3.59622 15.723 3.80618 15.933C4.01614 16.1429 4.3009 16.2609 4.59783 16.2609C4.89476 16.2609 5.17952 16.1429 5.38948 15.933C5.59944 15.723 5.71739 15.4382 5.71739 15.1413V14.5217V14.0217H5.21739H4.59783H4.59733C4.42284 14.0219 4.24877 14.0045 4.07776 13.9698ZM12.6522 14.0217H12.1522V14.5217V15.1413C12.1522 15.4382 12.2701 15.723 12.4801 15.933C12.6901 16.1429 12.9748 16.2609 13.2717 16.2609C13.5687 16.2609 13.8534 16.1429 14.0634 15.933C14.2734 15.723 14.3913 15.4382 14.3913 15.1413V14.4598V13.848L13.7918 13.9698C13.6208 14.0045 13.4467 14.0219 13.2722 14.0217H13.2717H12.6522ZM2.23917 10.7983L2.23913 10.7983V10.8043V11.4239C2.23913 12.0495 2.48764 12.6494 2.92998 13.0918C3.37232 13.5341 3.97227 13.7826 4.59783 13.7826H13.2717C13.8973 13.7826 14.4973 13.5341 14.9396 13.0918C15.3819 12.6494 15.6304 12.0495 15.6304 11.4239V10.8043H15.6305L15.6304 10.7984C15.6275 10.5536 15.598 10.3098 15.5424 10.0713L15.4524 9.68478H15.0555H13.8913H13.3913V10.1848V10.8043C13.3913 10.8361 13.3787 10.8665 13.3563 10.8889C13.3339 10.9113 13.3035 10.9239 13.2717 10.9239C13.24 10.9239 13.2096 10.9113 13.1872 10.8889C13.1648 10.8665 13.1522 10.8361 13.1522 10.8043V10.1848V9.68478H12.6522H5.21739H4.71739V10.1848V10.8043C4.71739 10.8361 4.7048 10.8665 4.68238 10.8889C4.65995 10.9113 4.62954 10.9239 4.59783 10.9239C4.56612 10.9239 4.53571 10.9113 4.51328 10.8889C4.49086 10.8665 4.47826 10.8361 4.47826 10.8043V10.1848V9.68478H3.97826H2.8141H2.41713L2.32712 10.0714C2.27162 10.3098 2.24213 10.5535 2.23917 10.7983Z" stroke="white"/>
</svg>
