<svg width="24" height="24" viewBox="0 0 24 24" fill="none" xmlns="http://www.w3.org/2000/svg">
<path d="M21.8261 14.5652V13.7391C21.8269 13.0965 21.7151 12.4588 21.4957 11.8548M21.8261 14.5652L21.3261 14.5641L21.3261 13.7391V13.7385C21.3269 13.1544 21.2252 12.5746 21.0257 12.0256L21.4957 11.8548M21.8261 14.5652C21.8246 15.2036 21.6746 15.8329 21.3878 16.4033C21.101 16.9736 20.6854 17.4694 20.1739 17.8514L21.8261 14.5652ZM21.4957 11.8548L21.0257 12.0256M21.4957 11.8548L19.2652 5.71865C18.9743 4.92248 18.4459 4.23483 17.7515 3.74863C17.0572 3.26243 16.2303 3.00111 15.3826 3L21.0257 12.0256M21.0257 12.0256L18.7956 5.89027C18.7956 5.89017 18.7955 5.89006 18.7955 5.88996C18.5396 5.19009 18.0751 4.58562 17.4647 4.1582C16.8543 3.73079 16.1274 3.50104 15.3823 3.5M21.0257 12.0256L15.3823 3.5M15.3823 3.5H8.44382C7.69865 3.50104 6.97175 3.73079 6.36134 4.1582C5.75098 4.58559 5.2865 5.19001 5.03066 5.88982C5.0306 5.88997 5.03054 5.89012 5.03049 5.89027L2.80042 12.0246C2.80039 12.0247 2.80037 12.0248 2.80034 12.0248C2.60095 12.5742 2.4993 13.1541 2.5 13.7385L2.5 13.7391L2.5 14.5646C2.50138 15.1252 2.63319 15.6778 2.88501 16.1787C3.13691 16.6797 3.50198 17.1152 3.95133 17.4508L4.15217 17.6007V17.8514V17.8514V17.8515V17.8515V17.8515V17.8516V17.8516V17.8517V17.8517V17.8517V17.8518V17.8518V17.8519V17.8519V17.8519V17.852V17.852V17.852V17.8521V17.8521V17.8522V17.8522V17.8522V17.8523V17.8523V17.8523V17.8524V17.8524V17.8525V17.8525V17.8525V17.8526V17.8526V17.8526V17.8527V17.8527V17.8528V17.8528V17.8528V17.8529V17.8529V17.8529V17.853V17.853V17.8531V17.8531V17.8531V17.8532V17.8532V17.8532V17.8533V17.8533V17.8534V17.8534V17.8534V17.8535V17.8535V17.8535V17.8536V17.8536V17.8537V17.8537V17.8537V17.8538V17.8538V17.8538V17.8539V17.8539V17.8539V17.854V17.854V17.8541V17.8541V17.8541V17.8542V17.8542V17.8542V17.8543V17.8543V17.8543V17.8544V17.8544V17.8545V17.8545V17.8545V17.8546V17.8546V17.8546V17.8547V17.8547V17.8547V17.8548V17.8548V17.8548V17.8549V17.8549V17.855V17.855V17.855V17.8551V17.8551V17.8551V17.8552V17.8552V17.8552V17.8553V17.8553V17.8553V17.8554V17.8554V17.8555V17.8555V17.8555V17.8556V17.8556V17.8556V17.8557V17.8557V17.8557V17.8558V17.8558V17.8558V17.8559V17.8559V17.8559V17.856V17.856V17.8561V17.8561V17.8561V17.8562V17.8562V17.8562V17.8563V17.8563V17.8563V17.8564V17.8564V17.8564V17.8565V17.8565V17.8565V17.8566V17.8566V17.8566V17.8567V17.8567V17.8568V17.8568V17.8568V17.8569V17.8569V17.8569V17.857V17.857V17.857V17.8571V17.8571V17.8571V17.8572V17.8572V17.8572V17.8573V17.8573V17.8573V17.8574V17.8574V17.8574V17.8575V17.8575V17.8575V17.8576V17.8576V17.8577V17.8577V17.8577V17.8578V17.8578V17.8578V17.8579V17.8579V17.8579V17.858V17.858V17.858V17.8581V17.8581V17.8581V17.8582V17.8582V17.8582V17.8583V17.8583V17.8583V17.8584V17.8584V17.8584V17.8585V17.8585V17.8585V17.8586V17.8586V17.8586V17.8587V17.8587V17.8587V17.8588V17.8588V17.8588V17.8589V17.8589V17.859V17.859V17.859V17.8591V17.8591V17.8591V17.8592V17.8592V17.8592V17.8593V17.8593V17.8593V17.8594V17.8594V17.8594V17.8595V17.8595V17.8595V17.8596V17.8596V17.8596V17.8597V17.8597V17.8597V17.8598V17.8598V17.8598V17.8599V17.8599V17.8599V17.86V17.86V17.86V17.8601V17.8601V17.8601V17.8602V17.8602V17.8602V17.8603V17.8603V17.8603V17.8604V17.8604V17.8604V17.8605V17.8605V17.8605V17.8606V17.8606V17.8606V17.8607V17.8607V17.8607V17.8608V17.8608V17.8609V17.8609V17.8609V17.861V17.861V17.861V17.8611V17.8611V17.8611V17.8612V17.8612V17.8612V17.8613V17.8613V17.8613V17.8614V17.8614V17.8614V17.8615V17.8615V17.8615V17.8616V17.8616V17.8616V17.8617V17.8617V17.8617V17.8618V17.8618V17.8618V17.8619V17.8619V17.8619V17.862V17.862V17.862V17.8621V17.8621V17.8621V17.8622V17.8622V17.8622V17.8623V17.8623V17.8623V17.8624V17.8624V17.8624V17.8625V17.8625V17.8626V17.8626V17.8626V17.8627V17.8627V17.8627V17.8628V17.8628V17.8628V17.8629V17.8629V17.8629V17.863V17.863V17.863V17.8631V17.8631V17.8631V17.8632V17.8632V17.8632V17.8633V17.8633V17.8633V17.8634V17.8634V17.8634V17.8635V17.8635V17.8635V17.8636V17.8636V17.8636V17.8637V17.8637V17.8638V17.8638V17.8638V17.8639V17.8639V17.8639V17.864V17.864V17.864V17.8641V17.8641V17.8641V17.8642V17.8642V17.8642V17.8643V17.8643V17.8643V17.8644V17.8644V17.8644V17.8645V17.8645V17.8646V17.8646V17.8646V17.8647V17.8647V17.8647V17.8648V17.8648V17.8648V17.8649V17.8649V17.8649V17.865V17.865V17.865V17.8651V17.8651V17.8651V17.8652V17.8652V17.8653V17.8653V17.8653V17.8654V17.8654V17.8654V17.8655V17.8655V17.8655V17.8656V17.8656V17.8656V17.8657V17.8657V17.8658V17.8658V17.8658V17.8659V17.8659V17.8659V17.866V17.866V17.866V17.8661V17.8661V17.8661V17.8662V17.8662V17.8663V17.8663V17.8663V17.8664V17.8664V17.8664V17.8665V17.8665V17.8665V17.8666V17.8666V17.8666V17.8667V17.8667V17.8668V17.8668V17.8668V17.8669V17.8669V17.8669V17.867V17.867V17.867V17.8671V17.8671V17.8672V17.8672V17.8672V17.8673V17.8673V17.8673V17.8674V17.8674V17.8675V17.8675V17.8675V17.8676V17.8676V17.8676V17.8677V17.8677V17.8677V17.8678V17.8678V17.8679V17.8679V17.8679V17.868V17.868V17.868V17.8681V17.8681V17.8682V17.8682V17.8682V17.8683V17.8683V17.8683V17.8684V17.8684V17.8685V17.8685V17.8685V17.8686V17.8686V17.8686V17.8687V17.8687V17.8688V17.8688V17.8688V17.8689V17.8689V17.8689V17.869V17.869V17.8691V17.8691V17.8691V17.8692V17.8692V17.8693V17.8693V17.8693V17.8694V17.8694V17.8694V17.8695V17.8695V17.8696V19.5217C4.15217 20.0464 4.36059 20.5496 4.73159 20.9206C5.10259 21.2916 5.60576 21.5 6.13043 21.5C6.6551 21.5 7.15828 21.2916 7.52927 20.9206C7.90027 20.5496 8.10869 20.0464 8.10869 19.5217V18.6957V18.1957H8.60869H15.2174H15.7174V18.6957V19.5217C15.7174 20.0464 15.9258 20.5496 16.2968 20.9206C16.6678 21.2916 17.171 21.5 17.6957 21.5C18.2203 21.5 18.7235 21.2916 19.0945 20.9206C19.4655 20.5496 19.6739 20.0464 19.6739 19.5217V17.8696V17.8695V17.8695V17.8694V17.8694V17.8694V17.8693V17.8693V17.8693V17.8692V17.8692V17.8691V17.8691V17.8691V17.869V17.869V17.8689V17.8689V17.8689V17.8688V17.8688V17.8688V17.8687V17.8687V17.8686V17.8686V17.8686V17.8685V17.8685V17.8685V17.8684V17.8684V17.8683V17.8683V17.8683V17.8682V17.8682V17.8682V17.8681V17.8681V17.868V17.868V17.868V17.8679V17.8679V17.8679V17.8678V17.8678V17.8677V17.8677V17.8677V17.8676V17.8676V17.8676V17.8675V17.8675V17.8675V17.8674V17.8674V17.8673V17.8673V17.8673V17.8672V17.8672V17.8672V17.8671V17.8671V17.867V17.867V17.867V17.8669V17.8669V17.8669V17.8668V17.8668V17.8668V17.8667V17.8667V17.8666V17.8666V17.8666V17.8665V17.8665V17.8665V17.8664V17.8664V17.8664V17.8663V17.8663V17.8663V17.8662V17.8662V17.8661V17.8661V17.8661V17.866V17.866V17.866V17.8659V17.8659V17.8659V17.8658V17.8658V17.8658V17.8657V17.8657V17.8656V17.8656V17.8656V17.8655V17.8655V17.8655V17.8654V17.8654V17.8654V17.8653V17.8653V17.8653V17.8652V17.8652V17.8651V17.8651V17.8651V17.865V17.865V17.865V17.8649V17.8649V17.8649V17.8648V17.8648V17.8648V17.8647V17.8647V17.8647V17.8646V17.8646V17.8646V17.8645V17.8645V17.8644V17.8644V17.8644V17.8643V17.8643V17.8643V17.8642V17.8642V17.8642V17.8641V17.8641V17.8641V17.864V17.864V17.864V17.8639V17.8639V17.8639V17.8638V17.8638V17.8638V17.8637V17.8637V17.8636V17.8636V17.8636V17.8635V17.8635V17.8635V17.8634V17.8634V17.8634V17.8633V17.8633V17.8633V17.8632V17.8632V17.8632V17.8631V17.8631V17.8631V17.863V17.863V17.863V17.8629V17.8629V17.8629V17.8628V17.8628V17.8628V17.8627V17.8627V17.8627V17.8626V17.8626V17.8626V17.8625V17.8625V17.8624V17.8624V17.8624V17.8623V17.8623V17.8623V17.8622V17.8622V17.8622V17.8621V17.8621V17.8621V17.862V17.862V17.862V17.8619V17.8619V17.8619V17.8618V17.8618V17.8618V17.8617V17.8617V17.8617V17.8616V17.8616V17.8616V17.8615V17.8615V17.8615V17.8614V17.8614V17.8614V17.8613V17.8613V17.8613V17.8612V17.8612V17.8612V17.8611V17.8611V17.8611V17.861V17.861V17.861V17.8609V17.8609V17.8609V17.8608V17.8608V17.8607V17.8607V17.8607V17.8606V17.8606V17.8606V17.8605V17.8605V17.8605V17.8604V17.8604V17.8604V17.8603V17.8603V17.8603V17.8602V17.8602V17.8602V17.8601V17.8601V17.8601V17.86V17.86V17.86V17.8599V17.8599V17.8599V17.8598V17.8598V17.8598V17.8597V17.8597V17.8597V17.8596V17.8596V17.8596V17.8595V17.8595V17.8595V17.8594V17.8594V17.8594V17.8593V17.8593V17.8593V17.8592V17.8592V17.8592V17.8591V17.8591V17.8591V17.859V17.859V17.859V17.8589V17.8589V17.8588V17.8588V17.8588V17.8587V17.8587V17.8587V17.8586V17.8586V17.8586V17.8585V17.8585V17.8585V17.8584V17.8584V17.8584V17.8583V17.8583V17.8583V17.8582V17.8582V17.8582V17.8581V17.8581V17.8581V17.858V17.858V17.858V17.8579V17.8579V17.8579V17.8578V17.8578V17.8578V17.8577V17.8577V17.8577V17.8576V17.8576V17.8575V17.8575V17.8575V17.8574V17.8574V17.8574V17.8573V17.8573V17.8573V17.8572V17.8572V17.8572V17.8571V17.8571V17.8571V17.857V17.857V17.857V17.8569V17.8569V17.8569V17.8568V17.8568V17.8568V17.8567V17.8567V17.8566V17.8566V17.8566V17.8565V17.8565V17.8565V17.8564V17.8564V17.8564V17.8563V17.8563V17.8563V17.8562V17.8562V17.8562V17.8561V17.8561V17.8561V17.856V17.856V17.8559V17.8559V17.8559V17.8558V17.8558V17.8558V17.8557V17.8557V17.8557V17.8556V17.8556V17.8556V17.8555V17.8555V17.8555V17.8554V17.8554V17.8553V17.8553V17.8553V17.8552V17.8552V17.8552V17.8551V17.8551V17.8551V17.855V17.855V17.855V17.8549V17.8549V17.8548V17.8548V17.8548V17.8547V17.8547V17.8547V17.8546V17.8546V17.8546V17.8545V17.8545V17.8545V17.8544V17.8544V17.8543V17.8543V17.8543V17.8542V17.8542V17.8542V17.8541V17.8541V17.8541V17.854V17.854V17.8539V17.8539V17.8539V17.8538V17.8538V17.8538V17.8537V17.8537V17.8537V17.8536V17.8536V17.8535V17.8535V17.8535V17.8534V17.8534V17.8534V17.8533V17.8533V17.8532V17.8532V17.8532V17.8531V17.8531V17.8531V17.853V17.853V17.8529V17.8529V17.8529V17.8528V17.8528V17.8528V17.8527V17.8527V17.8526V17.8526V17.8526V17.8525V17.8525V17.8525V17.8524V17.8524V17.8523V17.8523V17.8523V17.8522V17.8522V17.8522V17.8521V17.8521V17.852V17.852V17.852V17.8519V17.8519V17.8519V17.8518V17.8518V17.8517V17.8517V17.8517V17.8516V17.8516V17.8515V17.8515V17.8515V17.8514V17.8514V17.6007L19.8748 17.4508C20.3241 17.1152 20.6892 16.6797 20.9411 16.1787C21.1929 15.6779 21.3247 15.1254 21.3261 14.5649L15.3823 3.5ZM5.64601 6.11188L5.64567 6.11282L3.83571 11.09L3.59175 11.7609H4.30561H19.5197H20.2332L19.9896 11.0902L18.1821 6.11302L18.1817 6.11188C17.9718 5.53821 17.591 5.04273 17.0906 4.6923C16.5903 4.34186 15.9944 4.15334 15.3836 4.15217H15.3826L8.44348 4.15217L8.44219 4.15218C7.83165 4.15375 7.23628 4.34246 6.73631 4.69286C6.23634 5.04327 5.85581 5.53852 5.64601 6.11188ZM5.40384 18.123L4.80434 18.0013V18.613V19.5217C4.80434 19.8734 4.94406 20.2107 5.19275 20.4594C5.44144 20.7081 5.77873 20.8478 6.13043 20.8478C6.48213 20.8478 6.81943 20.7081 7.06812 20.4594C7.31681 20.2107 7.45652 19.8734 7.45652 19.5217V18.6957V18.1957H6.95652H6.13043H6.12993C5.88608 18.1959 5.64282 18.1716 5.40384 18.123ZM16.8696 18.1957H16.3696V18.6957V19.5217C16.3696 19.8734 16.5093 20.2107 16.758 20.4594C17.0067 20.7081 17.344 20.8478 17.6957 20.8478C18.0473 20.8478 18.3846 20.7081 18.6333 20.4594C18.882 20.2107 19.0217 19.8734 19.0217 19.5217V18.613V18.0013L18.4222 18.123C18.1833 18.1716 17.94 18.1959 17.6962 18.1957H17.6957H16.8696ZM3.15221 13.7331L3.15217 13.7331V13.7391V14.5652C3.15217 15.3551 3.46595 16.1126 4.02448 16.6712C4.58302 17.2297 5.34055 17.5435 6.13043 17.5435H17.6957C18.4855 17.5435 19.2431 17.2297 19.8016 16.6712C20.3601 16.1126 20.6739 15.3551 20.6739 14.5652V13.7391H20.6739L20.6739 13.7332C20.6701 13.4188 20.6322 13.1058 20.5609 12.7996L20.4709 12.413H20.074H18.5217H18.0217V12.913V13.7391C18.0217 13.8256 17.9874 13.9086 17.9262 13.9697C17.8651 14.0309 17.7821 14.0652 17.6957 14.0652C17.6092 14.0652 17.5262 14.0309 17.4651 13.9697C17.4039 13.9086 17.3696 13.8256 17.3696 13.7391V12.913V12.413H16.8696H6.95652H6.45652V12.913V13.7391C6.45652 13.8256 6.42216 13.9086 6.36101 13.9697L6.71456 14.3233L6.36101 13.9697C6.29986 14.0309 6.21692 14.0652 6.13043 14.0652C6.04395 14.0652 5.96101 14.0309 5.89985 13.9697C5.8387 13.9086 5.80434 13.8256 5.80434 13.7391V12.913V12.413H5.30434H3.75213H3.35516L3.26515 12.7997C3.19388 13.1058 3.15601 13.4188 3.15221 13.7331Z" stroke="#222222"/>
</svg>
