<svg width="12" height="13" viewBox="0 0 12 13" fill="none" xmlns="http://www.w3.org/2000/svg">
<path fill-rule="evenodd" clip-rule="evenodd" d="M9.24644 3.96752C9.32135 4.0329 9.36722 4.12536 9.37397 4.22456C9.38072 4.32376 9.3478 4.42158 9.28244 4.49652L5.35394 8.99652C5.31874 9.03684 5.27532 9.06916 5.22659 9.0913C5.17787 9.11344 5.12496 9.1249 5.07144 9.1249C5.01792 9.1249 4.96502 9.11344 4.91629 9.0913C4.86756 9.06916 4.82414 9.03684 4.78894 8.99652L3.21744 7.19652C3.1544 7.12128 3.12338 7.02433 3.13102 6.92647C3.13867 6.82861 3.18438 6.73766 3.25833 6.67312C3.33229 6.60859 3.4286 6.57563 3.52659 6.58131C3.62458 6.58699 3.71644 6.63087 3.78244 6.70352L5.07144 8.18002L8.71744 4.00352C8.78283 3.92861 8.87529 3.88274 8.97449 3.87599C9.07369 3.86924 9.17151 3.90216 9.24644 3.96752Z" fill="#919191"/>
</svg>
