<svg width="19" height="19" viewBox="0 0 19 19" fill="none" xmlns="http://www.w3.org/2000/svg">
<path fill-rule="evenodd" clip-rule="evenodd" d="M14.6406 5.49021C14.7592 5.59374 14.8318 5.74013 14.8425 5.8972C14.8532 6.05427 14.8011 6.20915 14.6976 6.32779L8.47748 13.4528C8.42175 13.5166 8.353 13.5678 8.27585 13.6029C8.1987 13.6379 8.11493 13.6561 8.03019 13.6561C7.94544 13.6561 7.86168 13.6379 7.78453 13.6029C7.70738 13.5678 7.63863 13.5166 7.5829 13.4528L5.09469 10.6028C4.99488 10.4837 4.94575 10.3302 4.95786 10.1752C4.96997 10.0203 5.04234 9.87627 5.15944 9.77409C5.27654 9.67191 5.42903 9.61972 5.58418 9.62871C5.73933 9.63771 5.88477 9.70718 5.98927 9.82221L8.03019 12.16L13.803 5.54721C13.9066 5.42861 14.0529 5.35598 14.21 5.34529C14.3671 5.3346 14.522 5.38673 14.6406 5.49021Z" fill="white"/>
</svg>
