<svg width="24" height="24" viewBox="0 0 24 24" fill="none" xmlns="http://www.w3.org/2000/svg">
<path d="M7 17.5L6.693 17.96C6.50537 18.241 6.43262 18.5832 6.48973 18.9162C6.54685 19.2492 6.72947 19.5476 7 19.75C7.56 20.17 7.695 20.956 7.306 21.54L7 22M12 17.5L11.693 17.96C11.5054 18.241 11.4326 18.5832 11.4897 18.9162C11.5468 19.2492 11.7295 19.5476 12 19.75C12.56 20.17 12.695 20.956 12.306 21.54L12 22M17 17.5L16.693 17.96C16.5054 18.241 16.4326 18.5832 16.4897 18.9162C16.5468 19.2492 16.7295 19.5476 17 19.75C17.56 20.17 17.695 20.956 17.306 21.54L17 22M18 14.5C18 14.035 18 13.803 17.961 13.61C17.884 13.222 17.6936 12.8655 17.4139 12.5857C17.1343 12.3059 16.778 12.1153 16.39 12.038C16.197 12 15.964 12 15.5 12H9C8.068 12 7.602 12 7.234 12.152C6.99137 12.2526 6.77093 12.4001 6.58528 12.5859C6.39963 12.7717 6.2524 12.9923 6.152 13.235C6.03 13.53 6.006 13.888 6.001 14.5M6 8.5H18M6 6H18M2 7.571C2 5.157 2 3.951 2.655 3.13C2.795 2.954 2.95333 2.79567 3.13 2.655C3.95 2 5.157 2 7.57 2H16.428C18.842 2 20.048 2 20.87 2.655C21.0453 2.795 21.2037 2.95333 21.345 3.13C22 3.95 22 5.157 22 7.57C22 10.79 22 12.399 21.127 13.493C20.9403 13.7277 20.7293 13.9387 20.494 14.126C19.4 15 17.79 15 14.571 15H9.43C6.21 15 4.601 15 3.507 14.127C3.27298 13.9403 3.06065 13.728 2.874 13.494C2 12.4 2 10.79 2 7.571Z" stroke="black" stroke-width="1.2" stroke-linecap="round"/>
</svg>
