<svg width="18" height="19" viewBox="0 0 18 19" fill="none" xmlns="http://www.w3.org/2000/svg">
<path d="M3.00898 12.3215L4.27648 8.51979C4.85098 6.79629 5.13823 5.93454 5.81773 5.77479C6.49723 5.61354 7.13998 6.25629 8.42398 7.54104L10.959 10.0753C12.243 11.36 12.8857 12.002 12.7252 12.6815C12.5647 13.361 11.703 13.649 9.97948 14.2228L6.17773 15.4903C4.10398 16.1818 3.06673 16.5275 2.51923 15.98C1.97173 15.4325 2.31748 14.3953 3.00898 12.3215Z" stroke="white" stroke-width="1.2" stroke-linecap="round"/>
<path d="M9.17624 14.2595C9.17624 14.2595 8.60774 12.5487 8.60774 11.417C8.60774 10.2845 9.17624 8.573 9.17624 8.573M6.04874 15.113C6.04874 15.113 5.56874 13.0483 5.48024 11.7005C5.33399 9.47375 6.04874 6.01475 6.04874 6.01475M10.8825 8.0045L10.9897 7.4645C11.0992 6.91925 11.4922 6.4745 12.0195 6.299C12.2784 6.21227 12.5099 6.05879 12.6906 5.85402C12.8712 5.64926 12.9947 5.40047 13.0485 5.13275L13.1565 4.59275M13.1767 9.68975L13.3365 9.782C13.5766 9.92096 13.8543 9.98075 14.1303 9.95288C14.4063 9.92501 14.6665 9.8109 14.874 9.62675C15.0627 9.4588 15.2957 9.34853 15.5452 9.30905C15.7948 9.26956 16.0504 9.30252 16.2817 9.404L16.5 9.5M7.90124 2.75C7.77821 2.95116 7.72648 3.18788 7.75437 3.42203C7.78226 3.65617 7.88815 3.87412 8.05499 4.04075L8.12849 4.11425C8.42324 4.409 8.53199 4.84175 8.41124 5.2415" stroke="white" stroke-width="1.2" stroke-linecap="round"/>
<path d="M10.1707 3.79694C10.3215 3.64694 10.3972 3.57119 10.4842 3.54344C10.5579 3.5201 10.6371 3.5201 10.7107 3.54344C10.7977 3.57119 10.8735 3.64619 11.0242 3.79694C11.1742 3.94844 11.25 4.02344 11.2777 4.11044C11.3011 4.18414 11.3011 4.26325 11.2777 4.33694C11.25 4.42469 11.175 4.49969 11.0242 4.65044C10.8735 4.80119 10.7977 4.87694 10.7107 4.90469C10.6371 4.92804 10.5579 4.92804 10.4842 4.90469C10.3972 4.87694 10.3215 4.80119 10.1707 4.65044C10.02 4.50044 9.94425 4.42469 9.91725 4.33694C9.8939 4.26325 9.8939 4.18414 9.91725 4.11044C9.94425 4.02344 10.02 3.94844 10.1707 3.79694ZM14.601 6.10094C14.7855 5.91719 14.877 5.82494 14.9812 5.78519C15.1027 5.73845 15.2371 5.73845 15.3585 5.78519C15.462 5.82494 15.5542 5.91719 15.7387 6.10094C15.9225 6.28544 16.0147 6.37694 16.0545 6.48119C16.1012 6.6026 16.1012 6.73704 16.0545 6.85844C16.0147 6.96194 15.9225 7.05419 15.7387 7.23869C15.5542 7.42244 15.462 7.51469 15.3585 7.55444C15.2371 7.60118 15.1027 7.60118 14.9812 7.55444C14.877 7.51469 14.7855 7.42244 14.601 7.23869C14.4172 7.05419 14.325 6.96194 14.2852 6.85844C14.2385 6.73704 14.2385 6.6026 14.2852 6.48119C14.325 6.37694 14.4172 6.28544 14.601 6.10094ZM5.19525 3.45494C5.23267 3.41757 5.2771 3.38793 5.32598 3.36772C5.37486 3.34751 5.42724 3.33712 5.48014 3.33716C5.53303 3.33719 5.5854 3.34765 5.63426 3.36792C5.68311 3.38819 5.7275 3.41789 5.76487 3.45532C5.80225 3.49275 5.83189 3.53717 5.8521 3.58605C5.87231 3.63493 5.88269 3.68731 5.88266 3.74021C5.88262 3.7931 5.87217 3.84547 5.8519 3.89433C5.83162 3.94318 5.80192 3.98757 5.7645 4.02494C5.68891 4.10043 5.58643 4.1428 5.47961 4.14273C5.37278 4.14266 5.27036 4.10016 5.19487 4.02457C5.11939 3.94898 5.07702 3.8465 5.07709 3.73968C5.07716 3.63285 5.11966 3.53043 5.19525 3.45494ZM14.2935 11.9847C14.3309 11.9473 14.3752 11.9177 14.4241 11.8974C14.4729 11.8772 14.5253 11.8668 14.5781 11.8668C14.631 11.8668 14.6833 11.8772 14.7322 11.8974C14.781 11.9177 14.8254 11.9473 14.8627 11.9847C14.9001 12.0221 14.9298 12.0664 14.95 12.1153C14.9702 12.1641 14.9806 12.2165 14.9806 12.2693C14.9806 12.3222 14.9702 12.3745 14.95 12.4234C14.9298 12.4722 14.9001 12.5166 14.8627 12.5539C14.7873 12.6294 14.6849 12.6718 14.5781 12.6718C14.4714 12.6718 14.369 12.6294 14.2935 12.5539C14.218 12.4785 14.1756 12.3761 14.1756 12.2693C14.1756 12.1626 14.218 12.0602 14.2935 11.9847ZM13.125 7.80569C13.1624 7.76832 13.2068 7.73868 13.2557 7.71847C13.3046 7.69826 13.357 7.68787 13.4099 7.68791C13.4628 7.68794 13.5152 7.6984 13.564 7.71867C13.6129 7.73894 13.6572 7.76864 13.6946 7.80607C13.732 7.8435 13.7616 7.88792 13.7819 7.9368C13.8021 7.98568 13.8124 8.03806 13.8124 8.09096C13.8124 8.14385 13.8019 8.19622 13.7816 8.24508C13.7614 8.29393 13.7317 8.33832 13.6942 8.37569C13.6187 8.45118 13.5162 8.49355 13.4094 8.49348C13.3025 8.49341 13.2001 8.45091 13.1246 8.37532C13.0491 8.29973 13.0068 8.19725 13.0068 8.09043C13.0069 7.9836 13.0494 7.88118 13.125 7.80569Z" fill="white"/>
</svg>
