<svg width="24" height="24" viewBox="0 0 24 24" fill="none" xmlns="http://www.w3.org/2000/svg">
<path d="M17.6997 7.05025C17.6997 6.85134 17.6207 6.66057 17.4801 6.51992C17.3394 6.37927 17.1487 6.30025 16.9497 6.30025C16.7508 6.30025 16.5601 6.37927 16.4194 6.51992L6.51992 16.4194C6.37927 16.5601 6.30025 16.7508 6.30025 16.9497C6.30025 17.1487 6.37927 17.3394 6.51992 17.4801C6.66058 17.6207 6.85134 17.6997 7.05025 17.6997C7.24917 17.6997 7.43993 17.6207 7.58058 17.4801L17.4801 7.58058C17.6207 7.43993 17.6997 7.24916 17.6997 7.05025Z" fill="#222222"/>
<path d="M16.9498 17.6998C17.1487 17.6998 17.3394 17.6207 17.4801 17.4801C17.6207 17.3394 17.6998 17.1487 17.6998 16.9498C17.6998 16.7508 17.6207 16.5601 17.4801 16.4194L7.58059 6.51993C7.43994 6.37928 7.24917 6.30026 7.05026 6.30026C6.85135 6.30026 6.66058 6.37928 6.51993 6.51993C6.37928 6.66058 6.30026 6.85135 6.30026 7.05026C6.30026 7.24917 6.37928 7.43994 6.51993 7.58059L16.4194 17.4801C16.5601 17.6207 16.7508 17.6998 16.9498 17.6998Z" fill="#222222"/>
</svg>
