<svg width="16" height="16" viewBox="0 0 16 16" fill="none" xmlns="http://www.w3.org/2000/svg">
<path d="M11.7999 4.70017C11.7999 4.56756 11.7473 4.44039 11.6535 4.34662C11.5597 4.25285 11.4325 4.20017 11.2999 4.20017C11.1673 4.20017 11.0401 4.25285 10.9464 4.34662L4.34672 10.9463C4.25295 11.0401 4.20027 11.1672 4.20027 11.2998C4.20027 11.4324 4.25295 11.5596 4.34672 11.6534C4.44049 11.7472 4.56766 11.7998 4.70027 11.7998C4.83288 11.7998 4.96006 11.7472 5.05382 11.6534L11.6535 5.05373C11.7473 4.95996 11.7999 4.83278 11.7999 4.70017Z" fill="#266462"/>
<path d="M11.2999 11.7998C11.4325 11.7998 11.5596 11.7472 11.6534 11.6534C11.7472 11.5596 11.7999 11.4325 11.7999 11.2998C11.7999 11.1672 11.7472 11.0401 11.6534 10.9463L5.05375 4.34663C4.95998 4.25286 4.8328 4.20018 4.7002 4.20018C4.56759 4.20018 4.44041 4.25286 4.34664 4.34663C4.25287 4.44039 4.2002 4.56757 4.2002 4.70018C4.2002 4.83279 4.25287 4.95996 4.34664 5.05373L10.9463 11.6534C11.0401 11.7472 11.1672 11.7998 11.2999 11.7998Z" fill="#266462"/>
</svg>
