<svg width="16" height="16" viewBox="0 0 16 16" fill="none" xmlns="http://www.w3.org/2000/svg">
<g clip-path="url(#clip0_1850_3579)">
<path fill-rule="evenodd" clip-rule="evenodd" d="M8.00065 1.83333C6.36515 1.83333 4.79663 2.48303 3.64016 3.63951C2.48369 4.79598 1.83398 6.3645 1.83398 8C1.83398 9.6355 2.48369 11.204 3.64016 12.3605C4.79663 13.517 6.36515 14.1667 8.00065 14.1667C9.63615 14.1667 11.2047 13.517 12.3611 12.3605C13.5176 11.204 14.1673 9.6355 14.1673 8C14.1673 6.3645 13.5176 4.79598 12.3611 3.63951C11.2047 2.48303 9.63615 1.83333 8.00065 1.83333ZM0.833984 8C0.833984 4.042 4.04265 0.833332 8.00065 0.833332C11.9587 0.833332 15.1673 4.042 15.1673 8C15.1673 11.958 11.9587 15.1667 8.00065 15.1667C4.04265 15.1667 0.833984 11.958 0.833984 8ZM8.00065 3.5C8.13326 3.5 8.26044 3.55268 8.3542 3.64645C8.44797 3.74021 8.50065 3.86739 8.50065 4V4.21133C9.58732 4.406 10.5007 5.22267 10.5007 6.33333C10.5007 6.46594 10.448 6.59312 10.3542 6.68689C10.2604 6.78065 10.1333 6.83333 10.0007 6.83333C9.86804 6.83333 9.74087 6.78065 9.6471 6.68689C9.55333 6.59312 9.50065 6.46594 9.50065 6.33333C9.50065 5.88133 9.12465 5.402 8.50065 5.23133V7.54467C9.58732 7.73933 10.5007 8.556 10.5007 9.66667C10.5007 10.7773 9.58732 11.594 8.50065 11.7887V12C8.50065 12.1326 8.44797 12.2598 8.3542 12.3536C8.26044 12.4473 8.13326 12.5 8.00065 12.5C7.86804 12.5 7.74087 12.4473 7.6471 12.3536C7.55333 12.2598 7.50065 12.1326 7.50065 12V11.7887C6.41398 11.594 5.50065 10.7773 5.50065 9.66667C5.50065 9.53406 5.55333 9.40688 5.6471 9.31311C5.74087 9.21934 5.86804 9.16667 6.00065 9.16667C6.13326 9.16667 6.26044 9.21934 6.3542 9.31311C6.44797 9.40688 6.50065 9.53406 6.50065 9.66667C6.50065 10.1187 6.87665 10.598 7.50065 10.768V8.45533C6.41398 8.26067 5.50065 7.444 5.50065 6.33333C5.50065 5.22267 6.41398 4.406 7.50065 4.21133V4C7.50065 3.86739 7.55333 3.74021 7.6471 3.64645C7.74087 3.55268 7.86804 3.5 8.00065 3.5ZM7.50065 5.23133C6.87665 5.402 6.50065 5.88133 6.50065 6.33333C6.50065 6.78533 6.87665 7.26467 7.50065 7.43467V5.23133ZM8.50065 8.56467V10.7687C9.12465 10.598 9.50065 10.1193 9.50065 9.66667C9.50065 9.21467 9.12465 8.73467 8.50065 8.56467Z" fill="white"/>
</g>
<defs>
<clipPath id="clip0_1850_3579">
<rect width="16" height="16" fill="white"/>
</clipPath>
</defs>
</svg>
