<svg width="24" height="24" viewBox="0 0 24 24" fill="none" xmlns="http://www.w3.org/2000/svg">
<path d="M15.121 2.879L14.6965 3.30302L14.697 3.30351L15.121 2.879ZM3.879 2.879L4.30302 3.30351L4.30351 3.30302L3.879 2.879ZM10.0145 10.3087C10.185 10.0245 10.0928 9.65599 9.8087 9.4855C9.52455 9.31502 9.15599 9.40715 8.9855 9.6913L10.0145 10.3087ZM8 12.5L7.4855 12.1913C7.37429 12.3767 7.37138 12.6075 7.47788 12.7956C7.58438 12.9837 7.78384 13.1 8 13.1V12.5ZM11 12.5L11.5145 12.8087C11.6257 12.6233 11.6286 12.3925 11.5221 12.2044C11.4156 12.0163 11.2162 11.9 11 11.9V12.5ZM8.9855 14.6913C8.81502 14.9755 8.90715 15.344 9.1913 15.5145C9.47545 15.685 9.84401 15.5928 10.0145 15.3087L8.9855 14.6913ZM17 22.6C17.3314 22.6 17.6 22.3314 17.6 22C17.6 21.6686 17.3314 21.4 17 21.4V22.6ZM2 21.4C1.66863 21.4 1.4 21.6686 1.4 22C1.4 22.3314 1.66863 22.6 2 22.6V21.4ZM19.8747 3.5314C19.6159 3.32445 19.2384 3.36648 19.0314 3.62528C18.8244 3.88407 18.8665 4.26164 19.1253 4.4686L19.8747 3.5314ZM20.733 4.986L20.3583 5.4546L20.359 5.45518L20.733 4.986ZM21.003 5.208L21.4037 4.76138L21.4016 4.75955L21.003 5.208ZM21.995 7.274L21.3959 7.30742L21.3961 7.30965L21.995 7.274ZM16 16.4C15.6686 16.4 15.4 16.6686 15.4 17C15.4 17.3314 15.6686 17.6 16 17.6V16.4ZM22 8.6C22.3314 8.6 22.6 8.33137 22.6 8C22.6 7.66863 22.3314 7.4 22 7.4V8.6ZM20.5 8V7.4V8ZM19 11.919H18.4V11.9191L19 11.919ZM20.026 13.342L20.2157 12.7728L20.2156 12.7727L20.026 13.342ZM21.8103 14.5692C22.1246 14.674 22.4644 14.5041 22.5692 14.1897C22.674 13.8754 22.5041 13.5356 22.1897 13.4308L21.8103 14.5692ZM16.6 22V8H15.4V22H16.6ZM16.6 8C16.6 6.60296 16.6013 5.49456 16.4848 4.62828C16.366 3.74478 16.1148 3.02363 15.545 2.45449L14.697 3.30351C15.0062 3.61237 15.1945 4.03772 15.2955 4.78822C15.3987 5.55594 15.4 6.56904 15.4 8H16.6ZM15.5455 2.45498C14.9764 1.88519 14.2552 1.63405 13.3717 1.51523C12.5054 1.39873 11.397 1.4 10 1.4V2.6C11.431 2.6 12.4441 2.60127 13.2118 2.70452C13.9623 2.80545 14.3876 2.99381 14.6965 3.30302L15.5455 2.45498ZM10 1.4H9V2.6H10V1.4ZM9 1.4C7.60296 1.4 6.49457 1.39873 5.62828 1.51523C4.74478 1.63405 4.02363 1.88519 3.45449 2.45498L4.30351 3.30302C4.61237 2.99381 5.03772 2.80545 5.78822 2.70452C6.55593 2.60127 7.56904 2.6 9 2.6V1.4ZM3.45498 2.45449C2.88519 3.02363 2.63405 3.74478 2.51523 4.62828C2.39873 5.49456 2.4 6.60296 2.4 8H3.6C3.6 6.56904 3.60127 5.55594 3.70452 4.78822C3.80545 4.03772 3.99381 3.61237 4.30302 3.30351L3.45498 2.45449ZM2.4 8V22H3.6V8H2.4ZM8.9855 9.6913L7.4855 12.1913L8.5145 12.8087L10.0145 10.3087L8.9855 9.6913ZM8 13.1H11V11.9H8V13.1ZM10.4855 12.1913L8.9855 14.6913L10.0145 15.3087L11.5145 12.8087L10.4855 12.1913ZM17 21.4H2V22.6H17V21.4ZM19.1253 4.4686L20.3583 5.4546L21.1077 4.5174L19.8747 3.5314L19.1253 4.4686ZM20.359 5.45518C20.4987 5.56651 20.5553 5.6128 20.6044 5.65645L21.4016 4.75955C21.3247 4.6912 21.2433 4.62549 21.107 4.51682L20.359 5.45518ZM20.6023 5.65461C21.0752 6.07881 21.3606 6.67317 21.3959 7.30741L22.5941 7.24059C22.541 6.28921 22.1129 5.39768 21.4037 4.76139L20.6023 5.65461ZM21.3961 7.30965C21.3998 7.37167 21.4 7.43879 21.4 7.622H22.6C22.6 7.45321 22.6002 7.34433 22.5939 7.23835L21.3961 7.30965ZM21.4 7.622V18.5H22.6V7.622H21.4ZM21.4 18.5C21.4 18.7387 21.3052 18.9676 21.1364 19.1364L21.9849 19.9849C22.3787 19.5911 22.6 19.057 22.6 18.5H21.4ZM21.1364 19.1364C20.9676 19.3052 20.7387 19.4 20.5 19.4V20.6C21.057 20.6 21.5911 20.3787 21.9849 19.9849L21.1364 19.1364ZM20.5 19.4C20.2613 19.4 20.0324 19.3052 19.8636 19.1364L19.0151 19.9849C19.4089 20.3787 19.943 20.6 20.5 20.6V19.4ZM19.8636 19.1364C19.6948 18.9676 19.6 18.7387 19.6 18.5H18.4C18.4 19.057 18.6213 19.5911 19.0151 19.9849L19.8636 19.1364ZM19.6 18.5V18.429H18.4V18.5H19.6ZM19.6 18.429C19.6 17.3074 18.6911 16.4 17.571 16.4V17.6C18.0289 17.6 18.4 17.9706 18.4 18.429H19.6ZM17.571 16.4H16V17.6H17.571V16.4ZM22 7.4H20.5V8.6H22V7.4ZM20.5 7.4C19.943 7.4 19.4089 7.62125 19.0151 8.01508L19.8636 8.8636C20.0324 8.69482 20.2613 8.6 20.5 8.6V7.4ZM19.0151 8.01508C18.6213 8.4089 18.4 8.94304 18.4 9.5H19.6C19.6 9.26131 19.6948 9.03239 19.8636 8.8636L19.0151 8.01508ZM18.4 9.5V11.919H19.6V9.5H18.4ZM18.4 11.9191C18.4 12.3599 18.5388 12.7895 18.7966 13.147L19.77 12.4452C19.6595 12.292 19.6 12.1079 19.6 11.9189L18.4 11.9191ZM18.7966 13.147C19.0544 13.5046 19.4182 13.772 19.8364 13.9113L20.2156 12.7727C20.0364 12.713 19.8805 12.5985 19.77 12.4452L18.7966 13.147ZM19.8363 13.9112L21.8103 14.5692L22.1897 13.4308L20.2157 12.7728L19.8363 13.9112Z" fill="#222222"/>
</svg>
