<svg width="24" height="24" viewBox="0 0 24 24" fill="none" xmlns="http://www.w3.org/2000/svg">
<g clip-path="url(#clip0_323_612)">
<path d="M15.9163 17.1686L3.34748 9.93846C2.95857 9.71455 2.67856 9.39918 2.50744 8.99236C2.33632 8.58553 2.30403 8.16433 2.41057 7.72876L3.48891 3.43308C3.55962 3.1031 3.75124 2.87046 4.06378 2.73517C4.37632 2.59988 4.67967 2.62038 4.97383 2.79669L5.48648 3.09721C5.6279 3.19149 5.74575 3.30368 5.84003 3.43379C5.93432 3.5639 5.98735 3.71687 5.99913 3.8927L6.28198 7.00397L9.41092 8.82477L10.3832 2.08958C10.4421 1.65353 10.663 1.3384 11.0458 1.14418C11.4285 0.949959 11.8146 0.964573 12.204 1.18802L12.6636 1.47086C12.8286 1.56514 12.9731 1.69784 13.0971 1.86896C13.2211 2.04008 13.2887 2.22558 13.3 2.42546L14.0778 11.5118L17.8962 13.7038C18.3794 13.9749 18.6917 14.3758 18.8331 14.9066C18.9745 15.4374 18.9097 15.9439 18.6387 16.4262C18.3676 16.9084 17.9669 17.221 17.4366 17.3638C16.9063 17.5066 16.3995 17.4416 15.9163 17.1686Z" fill="#222222"/>
<path d="M3.288 20.712C3.47934 20.904 3.71667 21 4 21H20C20.2833 21.0013 20.5207 20.9057 20.712 20.713C20.9033 20.5203 20.9993 20.2827 21 20C21.0007 19.7173 20.905 19.48 20.713 19.288C20.521 19.096 20.2833 19 20 19H4C3.718 19 3.48067 19.096 3.288 19.288C3.09534 19.48 2.99934 19.7173 3 20C3.00067 20.2827 3.09667 20.52 3.288 20.712Z" fill="#222222"/>
</g>
<defs>
<clipPath id="clip0_323_612">
<rect width="24" height="24" fill="white"/>
</clipPath>
</defs>
</svg>
