<svg width="24" height="24" viewBox="0 0 24 24" fill="none" xmlns="http://www.w3.org/2000/svg">
<path d="M20.2 11.825L6.20002 15.6C5.76669 15.7167 5.34569 15.6917 4.93702 15.525C4.52835 15.3583 4.20769 15.0833 3.97502 14.7L1.70002 10.9C1.51669 10.6167 1.48769 10.3167 1.61302 10C1.73835 9.68333 1.96735 9.48333 2.30002 9.4L2.87502 9.25C3.04169 9.21666 3.20435 9.21266 3.36302 9.238C3.52169 9.26333 3.66735 9.334 3.80002 9.45L6.20002 11.45L9.70002 10.525L5.62502 5.075C5.35835 4.725 5.29169 4.346 5.42502 3.938C5.55835 3.53 5.84169 3.26733 6.27502 3.15L6.80002 3.025C6.98335 2.975 7.17935 2.96666 7.38802 3C7.59669 3.03333 7.77569 3.11666 7.92502 3.25L14.9 9.125L19.15 7.975C19.6834 7.825 20.1877 7.88766 20.663 8.163C21.1384 8.43833 21.4507 8.84233 21.6 9.375C21.7494 9.90766 21.687 10.412 21.413 10.888C21.139 11.364 20.7347 11.6763 20.2 11.825ZM4.00002 21C3.71669 21 3.47935 20.904 3.28802 20.712C3.09669 20.52 3.00069 20.2827 3.00002 20C2.99935 19.7173 3.09535 19.48 3.28802 19.288C3.48069 19.096 3.71802 19 4.00002 19H20C20.2834 19 20.521 19.096 20.713 19.288C20.905 19.48 21.0007 19.7173 21 20C20.9994 20.2827 20.9034 20.5203 20.712 20.713C20.5207 20.9057 20.2834 21.0013 20 21H4.00002Z" fill="#222222"/>
</svg>
