<svg width="16" height="17" viewBox="0 0 16 17" fill="none" xmlns="http://www.w3.org/2000/svg">
<g clip-path="url(#clip0_2250_7997)">
<path d="M5.57375 1.02625C3.9751 1.58083 2.59643 2.63346 1.64024 4.0295C0.684049 5.42554 0.20074 7.09143 0.261304 8.78245C0.321867 10.4735 0.923111 12.1005 1.97672 13.4246C3.03033 14.7486 4.48077 15.6999 6.115 16.1387C7.4399 16.4806 8.82801 16.4956 10.16 16.1825C11.3666 15.9115 12.4822 15.3317 13.3975 14.5C14.3501 13.6079 15.0415 12.4731 15.3975 11.2175C15.7844 9.85208 15.8532 8.41616 15.5988 7.02H8.15875V10.1062H12.4675C12.3814 10.5985 12.1969 11.0683 11.9249 11.4875C11.653 11.9068 11.2993 12.2669 10.885 12.5462C10.3589 12.8943 9.76575 13.1285 9.14375 13.2337C8.51993 13.3497 7.88007 13.3497 7.25625 13.2337C6.62399 13.103 6.02587 12.8421 5.5 12.4675C4.65519 11.8695 4.02085 11.0199 3.6875 10.04C3.34852 9.04174 3.34852 7.95951 3.6875 6.96125C3.92478 6.26152 4.31704 5.62442 4.835 5.0975C5.42774 4.48343 6.17817 4.04449 7.00395 3.82884C7.82972 3.61319 8.69895 3.62916 9.51625 3.875C10.1547 4.07099 10.7386 4.41342 11.2213 4.875C11.7071 4.39166 12.1921 3.90708 12.6763 3.42125C12.9263 3.16 13.1988 2.91125 13.445 2.64375C12.7082 1.95809 11.8434 1.42457 10.9 1.07375C9.18213 0.449985 7.30247 0.433222 5.57375 1.02625Z" fill="white"/>
<path d="M5.57375 1.02624C7.30233 0.432816 9.18199 0.449138 10.9 1.07249C11.8435 1.4257 12.708 1.96179 13.4438 2.64999C13.1938 2.91749 12.93 3.16749 12.675 3.42749C12.19 3.91166 11.7054 4.39416 11.2213 4.87499C10.7386 4.41342 10.1547 4.07098 9.51625 3.87499C8.69922 3.6283 7.83002 3.6114 7.00403 3.82617C6.17803 4.04094 5.42714 4.47907 4.83375 5.09249C4.31579 5.61941 3.92353 6.25652 3.68625 6.95624L1.095 4.94999C2.02251 3.1107 3.62844 1.70377 5.57375 1.02624Z" fill="#E33629"/>
<path d="M0.407499 6.9375C0.546775 6.24724 0.778003 5.57878 1.095 4.95L3.68625 6.96125C3.34727 7.9595 3.34727 9.04174 3.68625 10.04C2.82292 10.7067 1.95917 11.3767 1.095 12.05C0.301437 10.4704 0.0594147 8.67062 0.407499 6.9375Z" fill="#F8BD00"/>
<path d="M8.15875 7.01875H15.5988C15.8532 8.41492 15.7844 9.85084 15.3975 11.2163C15.0415 12.4719 14.3501 13.6067 13.3975 14.4988C12.5613 13.8463 11.7213 13.1988 10.885 12.5463C11.2996 12.2666 11.6535 11.9061 11.9254 11.4864C12.1973 11.0667 12.3817 10.5964 12.4675 10.1038H8.15875C8.1575 9.07625 8.15875 8.0475 8.15875 7.01875Z" fill="#587DBD"/>
<path d="M1.09375 12.05C1.95792 11.3833 2.82167 10.7133 3.685 10.04C4.01901 11.0202 4.65426 11.8699 5.5 12.4675C6.02751 12.8403 6.62691 13.0992 7.26 13.2275C7.88382 13.3435 8.52368 13.3435 9.1475 13.2275C9.76949 13.1222 10.3626 12.888 10.8888 12.54C11.725 13.1925 12.565 13.84 13.4012 14.4925C12.4861 15.3247 11.3705 15.9048 10.1637 16.1762C8.83176 16.4894 7.44365 16.4744 6.11875 16.1325C5.07088 15.8527 4.09209 15.3595 3.24375 14.6837C2.34583 13.9709 1.61244 13.0725 1.09375 12.05Z" fill="#319F43"/>
</g>
<defs>
<clipPath id="clip0_2250_7997">
<rect width="16" height="16" fill="white" transform="translate(0 0.5)"/>
</clipPath>
</defs>
</svg>
