<svg width="24" height="25" viewBox="0 0 24 25" fill="none" xmlns="http://www.w3.org/2000/svg">
<path d="M2.5 12.0439C2.5 7.56595 2.5 5.32595 3.891 3.93495C5.282 2.54395 7.521 2.54395 12 2.54395C16.478 2.54395 18.718 2.54395 20.109 3.93495C21.5 5.32595 21.5 7.56495 21.5 12.0439C21.5 16.5219 21.5 18.7619 20.109 20.1529C18.718 21.5439 16.479 21.5439 12 21.5439C7.522 21.5439 5.282 21.5439 3.891 20.1529C2.5 18.7619 2.5 16.5229 2.5 12.0439Z" stroke="white" stroke-width="1.5" stroke-linecap="round" stroke-linejoin="round"/>
<path d="M17.508 6.54395H17.498M16.5 12.0439C16.5 13.2374 16.0259 14.382 15.182 15.2259C14.3381 16.0698 13.1935 16.5439 12 16.5439C10.8065 16.5439 9.66193 16.0698 8.81802 15.2259C7.97411 14.382 7.5 13.2374 7.5 12.0439C7.5 10.8505 7.97411 9.70588 8.81802 8.86197C9.66193 8.01805 10.8065 7.54395 12 7.54395C13.1935 7.54395 14.3381 8.01805 15.182 8.86197C16.0259 9.70588 16.5 10.8505 16.5 12.0439Z" stroke="white" stroke-width="1.5" stroke-linecap="round" stroke-linejoin="round"/>
</svg>
