<svg width="36" height="36" viewBox="0 0 36 36" fill="none" xmlns="http://www.w3.org/2000/svg">
<rect width="36" height="36" rx="18" fill="#222222" fill-opacity="0.2"/>
<path d="M18 12.5L17.46 13.02C17.53 13.0926 17.6138 13.1503 17.7066 13.1897C17.7994 13.2292 17.8992 13.2495 18 13.2495C18.1008 13.2495 18.2006 13.2292 18.2934 13.1897C18.3862 13.1503 18.47 13.0926 18.54 13.02L18 12.5ZM15.426 25.322C13.91 24.127 12.253 22.96 10.938 21.48C9.65 20.028 8.75 18.335 8.75 16.137H7.25C7.25 18.803 8.36 20.837 9.817 22.476C11.247 24.086 13.071 25.376 14.497 26.5L15.426 25.322ZM8.75 16.137C8.75 13.987 9.965 12.183 11.624 11.424C13.236 10.687 15.402 10.882 17.46 13.02L18.54 11.981C16.1 9.44399 13.264 9.02499 11 10.06C8.786 11.073 7.25 13.425 7.25 16.137H8.75ZM14.497 26.5C15.01 26.904 15.56 27.334 16.117 27.66C16.674 27.986 17.31 28.25 18 28.25V26.75C17.69 26.75 17.326 26.63 16.874 26.365C16.421 26.101 15.952 25.737 15.426 25.322L14.497 26.5ZM21.503 26.5C22.929 25.375 24.753 24.087 26.183 22.476C27.64 20.836 28.75 18.803 28.75 16.137H27.25C27.25 18.335 26.35 20.028 25.062 21.48C23.747 22.96 22.09 24.127 20.574 25.322L21.503 26.5ZM28.75 16.137C28.75 13.425 27.215 11.073 25 10.06C22.736 9.02499 19.902 9.44399 17.46 11.98L18.54 13.02C20.598 10.883 22.764 10.687 24.376 11.424C26.035 12.183 27.25 13.986 27.25 16.137H28.75ZM20.574 25.322C20.048 25.737 19.579 26.101 19.126 26.365C18.673 26.629 18.31 26.75 18 26.75V28.25C18.69 28.25 19.326 27.985 19.883 27.66C20.441 27.334 20.99 26.904 21.503 26.5L20.574 25.322Z" fill="white"/>
</svg>
