<svg width="20" height="21" viewBox="0 0 20 21" fill="none" xmlns="http://www.w3.org/2000/svg">
<path d="M5.33333 4.33834C6.57526 3.12125 8.24733 2.44345 9.98619 2.45223C11.725 2.46102 13.3902 3.15567 14.6198 4.38524C15.8493 5.61482 16.544 7.27996 16.5528 9.01881C16.5616 10.7577 15.8838 12.4297 14.6667 13.6717L11.1783 17.16C10.8658 17.4725 10.4419 17.648 10 17.648C9.55806 17.648 9.13421 17.4725 8.82167 17.16L5.33333 13.6717C4.09574 12.434 3.40047 10.7553 3.40047 9.00501C3.40047 7.2547 4.09574 5.57606 5.33333 4.33834Z" stroke="#ADADAD" stroke-width="1.5" stroke-linejoin="round"/>
<path d="M10 11.5051C11.3807 11.5051 12.5 10.3858 12.5 9.00513C12.5 7.62441 11.3807 6.50513 10 6.50513C8.61929 6.50513 7.5 7.62441 7.5 9.00513C7.5 10.3858 8.61929 11.5051 10 11.5051Z" stroke="#ADADAD" stroke-width="1.5" stroke-linecap="round" stroke-linejoin="round"/>
</svg>
