<svg width="18" height="19" viewBox="0 0 18 19" fill="none" xmlns="http://www.w3.org/2000/svg">
<path d="M4.8 4.07001C5.91773 2.97463 7.4226 2.36461 8.98757 2.37251C10.5525 2.38042 12.0512 3.00561 13.1578 4.11222C14.2644 5.21884 14.8896 6.71746 14.8975 8.28244C14.9054 9.84741 14.2954 11.3523 13.2 12.47L10.0605 15.6095C9.7792 15.8907 9.39774 16.0487 9 16.0487C8.60225 16.0487 8.22079 15.8907 7.9395 15.6095L4.8 12.47C3.68616 11.3561 3.06042 9.84529 3.06042 8.27001C3.06042 6.69473 3.68616 5.18396 4.8 4.07001Z" stroke="white" stroke-width="1.5" stroke-linecap="round" stroke-linejoin="round"/>
<path d="M9 10.52C10.2426 10.52 11.25 9.51265 11.25 8.27001C11.25 7.02737 10.2426 6.02001 9 6.02001C7.75736 6.02001 6.75 7.02737 6.75 8.27001C6.75 9.51265 7.75736 10.52 9 10.52Z" stroke="white" stroke-width="1.5" stroke-linecap="round" stroke-linejoin="round"/>
</svg>
