<svg width="24" height="24" viewBox="0 0 24 24" fill="none" xmlns="http://www.w3.org/2000/svg">
<g clip-path="url(#clip0_1_433)">
<path fill-rule="evenodd" clip-rule="evenodd" d="M0.968289 10.9756C0.980236 10.4925 1.13644 10.0241 1.4168 9.63051C1.69716 9.23695 2.08886 8.93628 2.5415 8.76716L18.5711 2.62538C18.9763 2.45889 19.4216 2.41598 19.8511 2.50204C20.2806 2.5881 20.6751 2.79929 20.9848 3.10902C21.2945 3.41876 21.5057 3.8132 21.5918 4.24269C21.6778 4.67218 21.6349 5.11754 21.4684 5.5227L15.3253 21.5523C15.1562 22.005 14.8555 22.3967 14.462 22.677C14.0684 22.9574 13.6 23.1136 13.1169 23.1255C12.2111 23.1463 11.2744 22.638 10.9515 21.5751L9.10362 15.4945C9.06804 15.375 9.00325 15.2662 8.91509 15.1781C8.82693 15.0899 8.71818 15.0251 8.59869 14.9895L2.51935 13.1403C1.45778 12.8174 0.948145 11.8807 0.96896 10.9749M2.39311 11.0078C2.38506 11.3677 2.56769 11.6658 2.9343 11.7773L2.72683 12.4588L2.93363 11.778L9.01499 13.6251C9.71531 13.838 10.2558 14.3785 10.4687 15.0788L12.3159 21.1602C12.4273 21.5268 12.7261 21.7088 13.086 21.7007C13.4533 21.692 13.8293 21.4771 13.9965 21.0413L20.139 5.01239C20.4102 4.30334 19.7898 3.68292 19.0814 3.95485L3.05114 10.0973C2.86243 10.1653 2.69862 10.2886 2.58111 10.4512C2.4636 10.6137 2.39852 10.8073 2.39311 11.0078Z" fill="#222222"/>
</g>
<defs>
<clipPath id="clip0_1_433">
<rect width="24" height="24" fill="white"/>
</clipPath>
</defs>
</svg>
