<svg width="20" height="21" viewBox="0 0 20 21" fill="none" xmlns="http://www.w3.org/2000/svg">
<path d="M7.5 6.0325V17.5833M12.5 3V14.6667M2.5 7.75833C2.5 6.53 2.5 5.91667 2.8275 5.55833C2.94341 5.43086 3.08441 5.32872 3.24167 5.25833C3.685 5.06167 4.2675 5.25583 5.4325 5.64417C6.32167 5.94083 6.76583 6.08917 7.21583 6.07333C7.38091 6.06791 7.54505 6.04613 7.70583 6.00833C8.14333 5.90417 8.53333 5.64417 9.31333 5.125L10.465 4.35667C11.465 3.69 11.9642 3.35667 12.5375 3.28083C13.1108 3.20333 13.6808 3.39333 14.82 3.77333L15.7908 4.09667C16.6158 4.37167 17.0283 4.50917 17.2642 4.83667C17.5 5.16417 17.5 5.6 17.5 6.46833V13.2425C17.5 14.47 17.5 15.0842 17.1725 15.4425C17.0564 15.5694 16.9154 15.6709 16.7583 15.7408C16.315 15.9383 15.7325 15.7442 14.5675 15.3558C13.6783 15.0592 13.2342 14.9108 12.7842 14.9267C12.6191 14.9321 12.455 14.9539 12.2942 14.9917C11.8567 15.0958 11.4667 15.3558 10.6867 15.875L9.535 16.6433C8.535 17.31 8.03583 17.6433 7.4625 17.7192C6.88917 17.7967 6.31917 17.6067 5.18 17.2267L4.20917 16.9033C3.38417 16.6283 2.97167 16.4908 2.73583 16.1633C2.5 15.8358 2.5 15.4 2.5 14.5317V7.75833Z" stroke="white" stroke-width="1.5"/>
</svg>
