<svg width="44" height="44" viewBox="0 0 44 44" fill="none" xmlns="http://www.w3.org/2000/svg">
<rect width="44" height="44" rx="22" fill="#F9F9F9"/>
<path d="M16.4 14.76C17.8903 13.2995 19.8968 12.4861 21.9834 12.4967C24.0701 12.5072 26.0682 13.3408 27.5437 14.8163C29.0192 16.2918 29.8528 18.29 29.8633 20.3766C29.8739 22.4632 29.0605 24.4697 27.6 25.96L23.414 30.146C23.0389 30.521 22.5303 30.7316 22 30.7316C21.4697 30.7316 20.9611 30.521 20.586 30.146L16.4 25.96C14.9149 24.4747 14.0806 22.4604 14.0806 20.36C14.0806 18.2596 14.9149 16.2453 16.4 14.76Z" stroke="#222222" stroke-width="1.5" stroke-linecap="round" stroke-linejoin="round"/>
<path d="M22 23.36C23.6569 23.36 25 22.0169 25 20.36C25 18.7032 23.6569 17.36 22 17.36C20.3431 17.36 19 18.7032 19 20.36C19 22.0169 20.3431 23.36 22 23.36Z" stroke="#222222" stroke-width="1.5" stroke-linecap="round" stroke-linejoin="round"/>
</svg>
