<svg width="18" height="19" viewBox="0 0 18 19" fill="none" xmlns="http://www.w3.org/2000/svg">
<g clip-path="url(#clip0_501_721)">
<mask id="path-1-inside-1_501_721" fill="white">
<path fill-rule="evenodd" clip-rule="evenodd" d="M0.726216 8.73168C0.735177 8.36938 0.852328 8.01805 1.0626 7.72288C1.27287 7.42772 1.56664 7.20221 1.90613 7.07537L13.9283 2.46903C14.2322 2.34417 14.5662 2.31198 14.8883 2.37653C15.2105 2.44107 15.5063 2.59947 15.7386 2.83177C15.9709 3.06407 16.1293 3.3599 16.1938 3.68202C16.2584 4.00414 16.2262 4.33815 16.1013 4.64202L11.494 16.6642C11.3671 17.0037 11.1416 17.2975 10.8465 17.5078C10.5513 17.718 10.2 17.8352 9.83767 17.8441C9.15833 17.8598 8.45582 17.4785 8.21359 16.6814L6.82771 12.1208C6.80103 12.0312 6.75244 11.9497 6.68631 11.8835C6.62019 11.8174 6.53864 11.7688 6.44901 11.7421L1.88951 10.3553C1.09333 10.113 0.711109 9.41052 0.72672 8.73117M1.79483 8.75585C1.78879 9.02578 1.92577 9.24937 2.20073 9.33296L2.04512 9.84411L2.20022 9.33347L6.76124 10.7188C7.28649 10.8785 7.69188 11.2839 7.85151 11.8091L9.23689 16.3701C9.32048 16.6451 9.54458 16.7816 9.81451 16.7755C10.09 16.769 10.372 16.6078 10.4974 16.281L15.1042 4.25929C15.3077 3.7275 14.8424 3.26219 14.3111 3.46614L2.28835 8.07298C2.14682 8.12398 2.02397 8.21648 1.93583 8.33839C1.8477 8.46031 1.79889 8.60547 1.79483 8.75585Z"/>
</mask>
<path fill-rule="evenodd" clip-rule="evenodd" d="M0.726216 8.73168C0.735177 8.36938 0.852328 8.01805 1.0626 7.72288C1.27287 7.42772 1.56664 7.20221 1.90613 7.07537L13.9283 2.46903C14.2322 2.34417 14.5662 2.31198 14.8883 2.37653C15.2105 2.44107 15.5063 2.59947 15.7386 2.83177C15.9709 3.06407 16.1293 3.3599 16.1938 3.68202C16.2584 4.00414 16.2262 4.33815 16.1013 4.64202L11.494 16.6642C11.3671 17.0037 11.1416 17.2975 10.8465 17.5078C10.5513 17.718 10.2 17.8352 9.83767 17.8441C9.15833 17.8598 8.45582 17.4785 8.21359 16.6814L6.82771 12.1208C6.80103 12.0312 6.75244 11.9497 6.68631 11.8835C6.62019 11.8174 6.53864 11.7688 6.44901 11.7421L1.88951 10.3553C1.09333 10.113 0.711109 9.41052 0.72672 8.73117M1.79483 8.75585C1.78879 9.02578 1.92577 9.24937 2.20073 9.33296L2.04512 9.84411L2.20022 9.33347L6.76124 10.7188C7.28649 10.8785 7.69188 11.2839 7.85151 11.8091L9.23689 16.3701C9.32048 16.6451 9.54458 16.7816 9.81451 16.7755C10.09 16.769 10.372 16.6078 10.4974 16.281L15.1042 4.25929C15.3077 3.7275 14.8424 3.26219 14.3111 3.46614L2.28835 8.07298C2.14682 8.12398 2.02397 8.21648 1.93583 8.33839C1.8477 8.46031 1.79889 8.60547 1.79483 8.75585Z" fill="#222222"/>
<path d="M6.97277 12.5993L7.48442 12.4442L7.19431 11.4872L6.68266 11.6423L6.97277 12.5993ZM1.90613 7.07537L2.25613 8.01216L2.26392 8.00917L1.90613 7.07537ZM13.9283 2.46903L14.2861 3.40283L14.2973 3.39854L14.3084 3.39399L13.9283 2.46903ZM15.7386 2.83177L16.4457 2.12466L15.7386 2.83177ZM16.1013 4.64202L15.1764 4.26195L15.1718 4.273L15.1676 4.28417L16.1013 4.64202ZM11.494 16.6642L10.5602 16.3064L10.5572 16.3142L11.494 16.6642ZM9.83767 17.8441L9.86065 18.8439L9.8624 18.8438L9.83767 17.8441ZM8.21359 16.6814L9.1704 16.3906L9.17039 16.3906L8.21359 16.6814ZM6.82771 12.1208L5.86927 12.4062L5.87092 12.4116L6.82771 12.1208ZM6.44901 11.7421L6.158 12.6989L6.16368 12.7006L6.44901 11.7421ZM1.88951 10.3553L1.59844 11.312L1.5985 11.312L1.88951 10.3553ZM1.79483 8.75585L0.795187 8.72891L0.795085 8.73347L1.79483 8.75585ZM2.20073 9.33296L3.15738 9.6242L3.44872 8.6672L2.49161 8.37621L2.20073 9.33296ZM2.04512 9.84411L1.08829 9.55347L3.00177 10.1353L2.04512 9.84411ZM2.20022 9.33347L2.49086 8.37663L1.53403 8.086L1.24339 9.04283L2.20022 9.33347ZM6.76124 10.7188L7.05204 9.76206L7.05187 9.76201L6.76124 10.7188ZM7.85151 11.8091L8.80835 11.5185L8.8083 11.5183L7.85151 11.8091ZM9.23689 16.3701L8.28005 16.6608L8.28013 16.661L9.23689 16.3701ZM9.81451 16.7755L9.83689 17.7753L9.83827 17.7752L9.81451 16.7755ZM10.4974 16.281L11.431 16.6392L11.4312 16.6388L10.4974 16.281ZM15.1042 4.25929L16.038 4.61713L16.0382 4.61661L15.1042 4.25929ZM14.3111 3.46614L14.6689 4.39994L14.6694 4.39971L14.3111 3.46614ZM2.28835 8.07298L2.62735 9.01377L2.63679 9.01037L2.64616 9.00678L2.28835 8.07298ZM1.72591 8.7564C1.72994 8.5936 1.78258 8.43573 1.87707 8.30309L0.248129 7.14268C-0.0779248 7.60038 -0.259583 8.14516 -0.273478 8.70695L1.72591 8.7564ZM1.87707 8.30309C1.97155 8.17045 2.10356 8.06912 2.25612 8.01212L1.55614 6.13862C1.02972 6.3353 0.574183 6.68498 0.248129 7.14268L1.87707 8.30309ZM2.26392 8.00917L14.2861 3.40283L13.5705 1.53523L1.54834 6.14157L2.26392 8.00917ZM14.3084 3.39399C14.4298 3.34411 14.5632 3.33126 14.6919 3.35704L15.0848 1.39602C14.5692 1.29271 14.0346 1.34422 13.5483 1.54408L14.3084 3.39399ZM14.6919 3.35704C14.8205 3.38282 14.9387 3.44609 15.0315 3.53887L16.4457 2.12466C16.0739 1.75284 15.6004 1.49933 15.0848 1.39602L14.6919 3.35704ZM15.0315 3.53887C15.1243 3.63166 15.1875 3.74982 15.2133 3.87849L17.1743 3.48555C17.071 2.96997 16.8175 2.49648 16.4457 2.12466L15.0315 3.53887ZM15.2133 3.87849C15.2391 4.00716 15.2262 4.14057 15.1764 4.26195L17.0263 5.0221C17.2261 4.53574 17.2776 4.00112 17.1743 3.48555L15.2133 3.87849ZM15.1676 4.28417L10.5602 16.3064L12.4278 17.0221L17.0351 4.99988L15.1676 4.28417ZM10.5572 16.3142C10.5002 16.4668 10.3989 16.5988 10.2663 16.6933L11.4267 18.3222C11.8844 17.9962 12.2341 17.5406 12.4307 17.0142L10.5572 16.3142ZM10.2663 16.6933C10.1336 16.7878 9.97575 16.8404 9.81295 16.8444L9.8624 18.8438C10.4242 18.8299 10.969 18.6483 11.4267 18.3222L10.2663 16.6933ZM9.8147 16.8444C9.51445 16.8513 9.26296 16.6952 9.1704 16.3906L7.25679 16.9721C7.64869 18.2618 8.80221 18.8682 9.86065 18.8439L9.8147 16.8444ZM9.17039 16.3906L7.78451 11.8301L5.87092 12.4116L7.2568 16.9721L9.17039 16.3906ZM7.78614 11.8355C7.71204 11.5866 7.57706 11.3601 7.39342 11.1764L5.97921 12.5906C5.92781 12.5392 5.89003 12.4758 5.86929 12.4062L7.78614 11.8355ZM7.39342 11.1764C7.20978 10.9928 6.98326 10.8578 6.73435 10.7837L6.16368 12.7006C6.09401 12.6798 6.03061 12.642 5.97921 12.5906L7.39342 11.1764ZM6.74002 10.7854L2.18052 9.39853L1.5985 11.312L6.158 12.6989L6.74002 10.7854ZM2.18057 9.39855C1.87606 9.30591 1.71957 9.05368 1.72646 8.75415L-0.273016 8.7082C-0.297355 9.76736 0.310604 10.9201 1.59844 11.312L2.18057 9.39855ZM0.795085 8.73347C0.780181 9.39919 1.15739 10.061 1.90985 10.2897L2.49161 8.37621C2.5564 8.3959 2.65011 8.44987 2.72011 8.55311C2.78592 8.65018 2.79548 8.73824 2.79458 8.77823L0.795085 8.73347ZM1.24408 9.04173L1.08847 9.55287L3.00177 10.1353L3.15738 9.6242L1.24408 9.04173ZM3.00195 10.1347L3.15706 9.6241L1.24339 9.04283L1.08829 9.55347L3.00195 10.1347ZM1.90959 10.2903L6.47061 11.6757L7.05187 9.76201L2.49086 8.37663L1.90959 10.2903ZM6.47044 11.6756C6.6765 11.7383 6.8321 11.8939 6.89473 12.0999L8.8083 11.5183C8.55165 10.6739 7.89647 10.0187 7.05204 9.76206L6.47044 11.6756ZM6.89468 12.0997L8.28005 16.6608L10.1937 16.0795L8.80835 11.5185L6.89468 12.0997ZM8.28013 16.661C8.50957 17.4157 9.17369 17.7901 9.83689 17.7753L9.79212 15.7758C9.83132 15.7749 9.91886 15.7842 10.0158 15.8497C10.1192 15.9196 10.1737 16.0135 10.1936 16.0793L8.28013 16.661ZM9.83827 17.7752C10.491 17.7597 11.1506 17.37 11.431 16.6392L9.56373 15.9228C9.57364 15.897 9.6008 15.8548 9.65017 15.8213C9.69471 15.791 9.74364 15.7769 9.79075 15.7758L9.83827 17.7752ZM11.4312 16.6388L16.038 4.61713L14.1704 3.90146L9.56359 15.9232L11.4312 16.6388ZM16.0382 4.61661C16.275 3.9977 16.1381 3.32754 15.6903 2.87971C15.2423 2.43175 14.5718 2.2949 13.9527 2.53257L14.6694 4.39971C14.5816 4.43343 14.4094 4.42726 14.2761 4.29392C14.1428 4.16071 14.1369 3.9891 14.1702 3.90198L16.0382 4.61661ZM13.9533 2.53235L1.93054 7.13919L2.64616 9.00678L14.6689 4.39994L13.9533 2.53235ZM1.94936 7.1322C1.61857 7.25139 1.33142 7.46758 1.12542 7.75253L2.74624 8.92426C2.71652 8.96537 2.67508 8.99657 2.62735 9.01377L1.94936 7.1322ZM1.12542 7.75253C0.918559 8.03868 0.804629 8.37892 0.795198 8.72891L2.79447 8.78279C2.79315 8.83202 2.77684 8.88194 2.74624 8.92426L1.12542 7.75253Z" fill="white" mask="url(#path-1-inside-1_501_721)"/>
</g>
<defs>
<clipPath id="clip0_501_721">
<rect width="18" height="18" fill="white" transform="translate(0 0.5)"/>
</clipPath>
</defs>
</svg>
