<svg width="24" height="24" viewBox="0 0 24 24" fill="none" xmlns="http://www.w3.org/2000/svg">
<path opacity="0.5" d="M12 23C18.075 23 23 18.075 23 12C23 5.925 18.075 1 12 1C5.925 1 1 5.925 1 12C1 13.76 1.413 15.423 2.148 16.898C2.343 17.29 2.408 17.738 2.295 18.161L1.64 20.609C1.57523 20.8513 1.57532 21.1064 1.64027 21.3486C1.70522 21.5909 1.83274 21.8118 2.01004 21.9892C2.18734 22.1666 2.40817 22.2942 2.65038 22.3593C2.89259 22.4244 3.14767 22.4246 3.39 22.36L5.84 21.705C6.26455 21.599 6.71319 21.6512 7.102 21.852C8.62357 22.6093 10.3004 23.0023 12 23Z" fill="#222222"/>
<path d="M10.9 12C10.9 12.2917 11.0159 12.5715 11.2222 12.7778C11.4285 12.9841 11.7083 13.1 12 13.1C12.2917 13.1 12.5715 12.9841 12.7778 12.7778C12.9841 12.5715 13.1 12.2917 13.1 12C13.1 11.7083 12.9841 11.4285 12.7778 11.2222C12.5715 11.0159 12.2917 10.9 12 10.9C11.7083 10.9 11.4285 11.0159 11.2222 11.2222C11.0159 11.4285 10.9 11.7083 10.9 12ZM6.5 12C6.5 12.2917 6.61589 12.5715 6.82218 12.7778C7.02847 12.9841 7.30826 13.1 7.6 13.1C7.89174 13.1 8.17153 12.9841 8.37782 12.7778C8.58411 12.5715 8.7 12.2917 8.7 12C8.7 11.7083 8.58411 11.4285 8.37782 11.2222C8.17153 11.0159 7.89174 10.9 7.6 10.9C7.30826 10.9 7.02847 11.0159 6.82218 11.2222C6.61589 11.4285 6.5 11.7083 6.5 12ZM15.3 12C15.3 12.2917 15.4159 12.5715 15.6222 12.7778C15.8285 12.9841 16.1083 13.1 16.4 13.1C16.6917 13.1 16.9715 12.9841 17.1778 12.7778C17.3841 12.5715 17.5 12.2917 17.5 12C17.5 11.7083 17.3841 11.4285 17.1778 11.2222C16.9715 11.0159 16.6917 10.9 16.4 10.9C16.1083 10.9 15.8285 11.0159 15.6222 11.2222C15.4159 11.4285 15.3 11.7083 15.3 12Z" fill="#222222"/>
</svg>
