<svg width="20" height="20" viewBox="0 0 20 20" fill="none" xmlns="http://www.w3.org/2000/svg">
<path d="M16 10C16 10.0869 15.9693 10.1587 15.9316 10.2019C15.8959 10.243 15.8634 10.25 15.8468 10.25H3.65323C3.63663 10.25 3.60414 10.243 3.56837 10.2019C3.53068 10.1587 3.5 10.0869 3.5 10C3.5 9.9131 3.53068 9.84132 3.56837 9.79806C3.60414 9.75699 3.63663 9.75 3.65323 9.75H15.8468C15.8634 9.75 15.8959 9.75699 15.9316 9.79806C15.9693 9.84132 16 9.9131 16 10Z" fill="white" stroke="white"/>
<path d="M10.2803 3.44133C10.1397 3.31882 9.94891 3.25 9.75 3.25C9.55109 3.25 9.36032 3.31882 9.21967 3.44133C9.07902 3.56383 9 3.72998 9 3.90323L9 16.0968C9 16.27 9.07902 16.4362 9.21967 16.5587C9.36032 16.6812 9.55109 16.75 9.75 16.75C9.94891 16.75 10.1397 16.6812 10.2803 16.5587C10.421 16.4362 10.5 16.27 10.5 16.0968L10.5 3.90323C10.5 3.72998 10.421 3.56383 10.2803 3.44133Z" fill="white"/>
</svg>
