<svg width="24" height="24" viewBox="0 0 24 24" fill="none" xmlns="http://www.w3.org/2000/svg">
<path d="M18.3087 12.5303C18.4312 12.3897 18.5 12.1989 18.5 12C18.5 11.8011 18.4312 11.6103 18.3087 11.4697C18.1862 11.329 18.02 11.25 17.8468 11.25H5.65323C5.47998 11.25 5.31383 11.329 5.19133 11.4697C5.06882 11.6103 5 11.8011 5 12C5 12.1989 5.06882 12.3897 5.19133 12.5303C5.31383 12.671 5.47998 12.75 5.65323 12.75H17.8468C18.02 12.75 18.1862 12.671 18.3087 12.5303Z" fill="#222222"/>
<path d="M12.2803 5.44133C12.1397 5.31882 11.9489 5.25 11.75 5.25C11.5511 5.25 11.3603 5.31882 11.2197 5.44133C11.079 5.56383 11 5.72998 11 5.90323L11 18.0968C11 18.27 11.079 18.4362 11.2197 18.5587C11.3603 18.6812 11.5511 18.75 11.75 18.75C11.9489 18.75 12.1397 18.6812 12.2803 18.5587C12.421 18.4362 12.5 18.27 12.5 18.0968L12.5 5.90323C12.5 5.72998 12.421 5.56383 12.2803 5.44133Z" fill="#222222"/>
</svg>
