<svg width="40" height="40" viewBox="0 0 40 40" fill="none" xmlns="http://www.w3.org/2000/svg">
<path fill-rule="evenodd" clip-rule="evenodd" d="M30.9931 26.3716L17.9965 13.3633L5 26.3716L17.9965 39.3799L30.9931 26.3716ZM17.9312 19.8675L11.4329 26.3716L18.0631 33.0079L24.5614 26.5037L17.9312 19.8675Z" fill="#266462"/>
<path fill-rule="evenodd" clip-rule="evenodd" d="M40 12.8701L32.5 5.36328L25 12.8701L32.5 20.3769L40 12.8701ZM32.4623 9.11668L28.7123 12.8701L32.5384 16.6997L36.2884 12.9463L32.4623 9.11668Z" fill="#96A2A2"/>
<path fill-rule="evenodd" clip-rule="evenodd" d="M7.49321 0.363281L0 7.86328L7.49321 15.3633L14.9864 7.86328L7.49321 0.363281ZM7.4555 4.11328L3.7089 7.86328L7.53158 11.6894L11.2782 7.93943L7.4555 4.11328Z" fill="#6B9796"/>
</svg>
