<svg width="24" height="24" viewBox="0 0 24 24" fill="none" xmlns="http://www.w3.org/2000/svg">
<path d="M3.378 5.082L3.86894 5.42693L3.86907 5.42675L3.378 5.082ZM8.265 3.001L8.07081 2.43329L8.07074 2.43332L8.265 3.001ZM8.838 2.805L9.03219 3.37271L9.03251 3.3726L8.838 2.805ZM15.162 2.805L14.9675 3.3726L14.9678 3.37271L15.162 2.805ZM15.735 3.001L15.9293 2.43332L15.9292 2.43329L15.735 3.001ZM20.622 5.082L20.1309 5.42675L20.1311 5.42693L20.622 5.082ZM14.101 21.527L13.861 20.9771L13.8608 20.9772L14.101 21.527ZM9.899 21.527L10.1392 20.9772L10.1392 20.9772L9.899 21.527ZM9.9475 12.0003C9.72677 11.7532 9.34747 11.7318 9.10032 11.9525C8.85317 12.1732 8.83176 12.5525 9.0525 12.7997L9.9475 12.0003ZM10.929 14L10.4815 14.3997C10.5953 14.5271 10.7582 14.6 10.9291 14.6C11.1 14.6 11.2628 14.5271 11.3766 14.3996L10.929 14ZM14.9476 10.3996C15.1683 10.1524 15.1468 9.7731 14.8996 9.55241C14.6524 9.33173 14.2731 9.35322 14.0524 9.60042L14.9476 10.3996ZM3.6 10.417C3.6 8.81037 3.60022 7.63104 3.64636 6.78466C3.6694 6.36203 3.703 6.04291 3.74861 5.8065C3.79612 5.56022 3.84704 5.4581 3.86894 5.42693L2.88706 4.73707C2.71996 4.9749 2.62913 5.27441 2.57033 5.57919C2.50963 5.89384 2.47235 6.27522 2.44814 6.71934C2.39978 7.60646 2.4 8.82563 2.4 10.417H3.6ZM3.86907 5.42675C3.88903 5.39832 3.96498 5.31817 4.17905 5.19388C4.38448 5.0746 4.67197 4.93996 5.06108 4.78188C5.84035 4.46529 6.94839 4.08571 8.45926 3.56868L8.07074 2.43332C6.57461 2.94529 5.42765 3.33771 4.60942 3.67012C4.19978 3.83654 3.8529 3.99565 3.57651 4.15612C3.30877 4.31158 3.05547 4.49718 2.88693 4.73725L3.86907 5.42675ZM8.45919 3.56871L9.03219 3.37271L8.64381 2.23729L8.07081 2.43329L8.45919 3.56871ZM9.03251 3.3726C10.6371 2.82271 11.311 2.6 12 2.6V1.4C11.065 1.4 10.1729 1.71329 8.64349 2.2374L9.03251 3.3726ZM12 2.6C12.689 2.6 13.3629 2.82271 14.9675 3.3726L15.3565 2.2374C13.8271 1.71329 12.935 1.4 12 1.4V2.6ZM14.9678 3.37271L15.5408 3.56871L15.9292 2.43329L15.3562 2.23729L14.9678 3.37271ZM15.5407 3.56868C17.0516 4.08571 18.1597 4.46529 18.9389 4.78188C19.328 4.93996 19.6155 5.0746 19.8209 5.19388C20.035 5.31817 20.111 5.39832 20.1309 5.42675L21.1131 4.73725C20.9445 4.49718 20.6912 4.31158 20.4235 4.15612C20.1471 3.99565 19.8002 3.83654 19.3906 3.67012C18.5723 3.33771 17.4254 2.94529 15.9293 2.43332L15.5407 3.56868ZM20.1311 5.42693C20.1529 5.45806 20.2039 5.5602 20.2514 5.80661C20.297 6.04311 20.3306 6.36233 20.3536 6.78503C20.3998 7.63154 20.4 8.81087 20.4 10.417H21.6C21.6 8.82613 21.6002 7.60696 21.5519 6.71972C21.5277 6.27554 21.4904 5.89407 21.4297 5.57936C21.3709 5.27455 21.2801 4.97494 21.1129 4.73707L20.1311 5.42693ZM20.4 10.417V11.991H21.6V10.417H20.4ZM20.4 11.991C20.4 17.2587 16.4562 19.8444 13.861 20.9771L14.341 22.0769C17.0658 20.8876 21.6 17.9993 21.6 11.991H20.4ZM13.8608 20.9772C13.4914 21.1386 13.2661 21.2357 13.0136 21.3004C12.7698 21.3629 12.4782 21.4 12 21.4V22.6C12.5418 22.6 12.9402 22.5581 13.3116 22.4628C13.6744 22.3698 13.9896 22.2304 14.3412 22.0768L13.8608 20.9772ZM12 21.4C11.5218 21.4 11.2302 21.3629 10.9864 21.3004C10.7339 21.2357 10.5086 21.1386 10.1392 20.9772L9.65879 22.0768C10.0104 22.2304 10.3256 22.3698 10.6884 22.4628C11.0598 22.5581 11.4582 22.6 12 22.6V21.4ZM10.1392 20.9772C7.54368 19.8433 3.6 17.2596 3.6 11.991H2.4C2.4 18.0004 6.93432 20.8867 9.65881 22.0768L10.1392 20.9772ZM3.6 11.991V10.417H2.4V11.991H3.6ZM9.0525 12.7997L10.4815 14.3997L11.3765 13.6003L9.9475 12.0003L9.0525 12.7997ZM11.3766 14.3996L14.9476 10.3996L14.0524 9.60042L10.4814 13.6004L11.3766 14.3996Z" fill="black"/>
</svg>
