<svg width="24" height="24" viewBox="0 0 24 24" fill="none" xmlns="http://www.w3.org/2000/svg">
<path d="M9.58968 5.65152L9.58965 5.65158L9.26175 6.2394C9.24441 6.27051 9.22735 6.30119 9.21053 6.33143C8.89974 6.8902 8.67185 7.29993 8.30703 7.57646C7.93798 7.8562 7.48693 7.95782 6.87702 8.09522C6.8472 8.10194 6.81699 8.10874 6.7864 8.11566C6.78635 8.11567 6.78629 8.11568 6.78623 8.1157L6.1504 8.25966L6.15022 8.2597C4.90331 8.54152 4.02615 8.74143 3.41883 8.9808C2.82081 9.2165 2.61368 9.44111 2.53453 9.69618C2.45356 9.95713 2.49825 10.2765 2.85327 10.8405C3.21167 11.4099 3.81074 12.1125 4.65991 13.1049L4.66015 13.1052L5.09381 13.6128C5.09392 13.613 5.09404 13.6131 5.09415 13.6132C5.11457 13.6371 5.13474 13.6606 5.15466 13.6838C5.57151 14.1701 5.87528 14.5245 6.0125 14.9697C6.15089 15.4119 6.10525 15.8806 6.04178 16.5324C6.03877 16.5632 6.03573 16.5945 6.03267 16.6262L6.03262 16.6266L5.96667 17.3021C5.96666 17.3022 5.96665 17.3023 5.96664 17.3024C5.8386 18.6269 5.74896 19.5655 5.77949 20.2483C5.80998 20.9302 5.95621 21.2094 6.15823 21.3627C6.35089 21.5087 6.63191 21.568 7.25145 21.3904C7.87729 21.211 8.69954 20.8341 9.86694 20.2968L9.86714 20.2967L10.4624 20.0231L9.58968 5.65152ZM9.58968 5.65152C10.2313 4.50087 10.686 3.68809 11.0935 3.15601C11.5007 2.62429 11.7663 2.5 12 2.5C12.2337 2.5 12.4993 2.62429 12.9065 3.15601C13.314 3.68809 13.7686 4.50087 14.4103 5.65152L14.4103 5.65158M9.58968 5.65152L14.4103 5.65158M14.4103 5.65158L14.7382 6.2394C14.7383 6.23946 14.7383 6.23952 14.7383 6.23958C14.7543 6.26815 14.7699 6.29635 14.7854 6.32417C15.0988 6.88742 15.3275 7.29846 15.6923 7.57594C16.0605 7.85604 16.5129 7.9578 17.1224 8.09489C17.1527 8.10172 17.1835 8.10863 17.2146 8.11566C17.2146 8.11566 17.2146 8.11566 17.2146 8.11567C17.2147 8.11569 17.2148 8.11571 17.2149 8.11573L17.8506 8.25966C19.0976 8.54201 19.9742 8.7419 20.5813 8.98117C21.1785 9.21658 21.3859 9.44094 21.4655 9.69633C21.5463 9.95659 21.5018 10.2756 21.1467 10.8398C20.7883 11.4092 20.1892 12.112 19.34 13.105L18.9062 13.6119L18.9059 13.6122M14.4103 5.65158L18.9059 13.6122M18.9059 13.6122C18.8847 13.6369 18.8638 13.6613 18.8432 13.6854C18.4269 14.1719 18.1244 14.5254 17.9866 14.9685L17.9864 14.9689M18.9059 13.6122L17.9864 14.9689M17.9864 14.9689C17.849 15.4118 17.8947 15.8801 17.9583 16.5328C17.9613 16.5632 17.9643 16.594 17.9673 16.6252L17.9674 16.6255M17.9864 14.9689L17.9674 16.6255M17.9674 16.6255L18.0333 17.3021L17.9674 16.6255ZM14.1336 20.2966L14.1341 20.2968C15.301 20.8342 16.123 21.2109 16.7487 21.3902C17.3681 21.5677 17.6495 21.5083 17.8428 21.3616C18.0441 21.209 18.1902 20.9303 18.2206 20.2482C18.251 19.5655 18.1614 18.6269 18.0333 17.3025L14.1336 20.2966ZM14.1336 20.2966L13.5376 20.0231M14.1336 20.2966L13.5376 20.0231M13.5376 20.0231C13.5375 20.023 13.5374 20.023 13.5373 20.0229M13.5376 20.0231L13.5373 20.0229M13.5373 20.0229C13.5101 20.0103 13.4832 19.9979 13.4566 19.9856C12.885 19.7212 12.4608 19.525 12 19.525C11.5392 19.525 11.115 19.7212 10.5434 19.9856C10.517 19.9978 10.4902 20.0102 10.4631 20.0227L13.5373 20.0229Z" fill="#222222" stroke="#222222"/>
</svg>
