<svg width="20" height="20" viewBox="0 0 20 20" fill="none" xmlns="http://www.w3.org/2000/svg">
<path d="M8.06422 4.75021L8.06419 4.75027L7.79096 5.24008C7.79093 5.24014 7.79089 5.2402 7.79086 5.24026C7.77509 5.26856 7.75956 5.2965 7.74423 5.32407C7.48972 5.78196 7.29141 6.13872 6.9729 6.38015C6.65048 6.62455 6.25722 6.71304 5.75764 6.82545C5.73001 6.83166 5.70206 6.83795 5.67378 6.84434C5.67376 6.84435 5.67374 6.84435 5.67373 6.84436C5.67368 6.84437 5.67364 6.84437 5.6736 6.84438L5.14378 6.96434L5.14359 6.96439C4.10168 7.19987 3.37832 7.365 2.87962 7.56155C2.39023 7.75443 2.24655 7.92822 2.19174 8.10487C2.1351 8.2874 2.15704 8.5267 2.44829 8.9894C2.74292 9.45747 3.2372 10.0375 3.94662 10.8666L3.94686 10.8669L4.30819 11.2899L8.06422 4.75021ZM8.06422 4.75021C8.60031 3.78889 8.97575 3.11811 9.31074 2.6807C9.64546 2.24365 9.84521 2.16669 10 2.16669C10.1549 2.16669 10.3546 2.24365 10.6893 2.6807C11.0243 3.11811 11.3998 3.78889 11.9358 4.75021L11.9359 4.75027M8.06422 4.75021L11.9359 4.75027M11.9359 4.75027L12.2091 5.24008C12.2091 5.24014 12.2092 5.24021 12.2092 5.24026C12.2239 5.26667 12.2384 5.29275 12.2527 5.31851C12.5093 5.77981 12.7081 6.13747 13.0265 6.37963C13.3483 6.62442 13.7428 6.71304 14.242 6.8252C14.2701 6.83149 14.2984 6.83787 14.3271 6.84434L11.9359 4.75027ZM15.6916 11.2894L15.6919 11.289L16.0534 10.8667C16.0534 10.8667 16.0535 10.8666 16.0535 10.8665C16.7629 10.0371 17.2571 9.45687 17.5518 8.98877C17.843 8.52618 17.8649 8.28722 17.8085 8.10533L15.6916 11.2894ZM15.6916 11.2894C15.6721 11.3121 15.6529 11.3346 15.6339 11.3568C15.2926 11.7554 15.0294 12.0629 14.9093 12.449L14.9091 12.4494M15.6916 11.2894L14.9091 12.4494M14.9091 12.4494C14.7895 12.8351 14.8292 13.2417 14.8815 13.7765C14.8843 13.8048 14.8871 13.8334 14.8899 13.8624L14.8899 13.8627M14.9091 12.4494L14.8899 13.8627M14.8899 13.8627L14.9449 14.4265C15.0518 15.533 15.1257 16.3082 15.1006 16.8699C15.0756 17.4308 14.9562 17.6307 14.8187 17.735C14.6892 17.8332 14.4877 17.8905 13.9802 17.7451C13.4664 17.5979 12.7884 17.2873 11.8133 16.8384L11.8128 16.8381M14.8899 13.8627L11.8128 16.8381M11.8128 16.8381L11.3163 16.6102C11.3162 16.6102 11.316 16.6101 11.3158 16.61C11.2904 16.5983 11.2653 16.5867 11.2405 16.5752C10.7728 16.3587 10.403 16.1875 10 16.1875C9.59705 16.1875 9.22723 16.3587 8.75957 16.5752C8.73478 16.5867 8.70971 16.5983 8.68435 16.61C8.68415 16.6101 8.68395 16.6102 8.68375 16.6102L8.18785 16.8382L8.18765 16.8383M11.8128 16.8381L8.18765 16.8383M8.18765 16.8383C7.21217 17.2873 6.53387 17.5979 6.01996 17.7452C5.51237 17.8907 5.31119 17.8335 5.18227 17.7359C5.04417 17.6311 4.92461 17.4306 4.89953 16.8699C4.87442 16.3082 4.94823 15.5331 5.05519 14.4267C5.0552 14.4266 5.05521 14.4265 5.05521 14.4265L5.11017 13.8636L5.11021 13.8632M8.18765 16.8383L5.11021 13.8632M5.11021 13.8632C5.11305 13.8338 5.11588 13.8048 5.11868 13.7762M5.11021 13.8632L5.11868 13.7762M5.11868 13.7762C5.17072 13.243 5.21042 12.8362 5.09048 12.4515M5.11868 13.7762L5.09048 12.4515M5.09048 12.4515C4.97104 12.0628 4.70655 11.7544 4.3645 11.3555C4.34606 11.334 4.3274 11.3123 4.30852 11.2902L5.09048 12.4515ZM17.1205 7.56186C17.6092 7.75446 17.7532 7.92802 17.8084 8.10502L14.3274 6.84442L14.8571 6.96434C15.8991 7.20028 16.6221 7.36538 17.1205 7.56186Z" fill="white" stroke="white"/>
</svg>
