<svg width="29" height="29" viewBox="0 0 29 29" fill="none" xmlns="http://www.w3.org/2000/svg">
<path d="M14.01 5.94352C14.8208 3.87852 15.2268 2.84486 16.0738 2.71769C16.9208 2.58936 17.6488 3.45269 19.1072 5.17819L19.484 5.62386C19.8982 6.11386 20.1047 6.35886 20.387 6.49886C20.667 6.63886 20.9913 6.65869 21.64 6.69719L22.2303 6.73102C24.5112 6.86402 25.651 6.93169 26.0465 7.67602C26.4432 8.42269 25.8318 9.35369 24.6103 11.2145L24.2942 11.6964C23.9465 12.2249 23.7727 12.4897 23.726 12.7919C23.6793 13.094 23.7645 13.3985 23.9348 14.0087L24.09 14.5652C24.6885 16.7142 24.9883 17.7875 24.3852 18.3755C23.782 18.9647 22.676 18.6765 20.464 18.1014L19.8923 17.9532C19.2623 17.7899 18.9485 17.7082 18.6382 17.7549C18.3278 17.8015 18.056 17.9707 17.5135 18.3102L17.0188 18.6194C15.1078 19.814 14.1535 20.4114 13.3847 20.0287C12.6158 19.6472 12.5447 18.5389 12.3988 16.3222L12.3603 15.7482C12.3195 15.1182 12.2985 14.8032 12.1538 14.5302C12.0092 14.2572 11.7572 14.0565 11.2508 13.6552L10.79 13.2912C9.00967 11.8807 8.11834 11.1749 8.24667 10.3512C8.37501 9.52752 9.43667 9.12969 11.5588 8.33402L12.1072 8.12869C12.7115 7.90236 13.0125 7.79036 13.233 7.57452C13.4547 7.35869 13.569 7.06469 13.8 6.47786L14.01 5.94352Z" fill="#1D4B4A"/>
<path opacity="0.5" d="M6.69501 11.5635C3.85184 14.2783 1.98751 18.812 3.21951 26.0383C4.31967 23.0015 7.33317 20.485 10.8973 18.9835C10.7737 18.2916 10.7177 17.447 10.6593 16.5568L10.6138 15.8626C10.603 15.6953 10.5906 15.5281 10.5765 15.361L10.4762 15.2781L10.1635 15.0273L9.60934 14.5886C8.79967 13.947 8.04601 13.352 7.52917 12.8013C7.23401 12.4875 6.90384 12.0733 6.69501 11.5635ZM12.5715 18.3651L12.554 18.2321L12.6193 18.35L12.5715 18.3651Z" fill="#1D4B4A"/>
</svg>
