<svg width="29" height="29" viewBox="0 0 29 29" fill="none" xmlns="http://www.w3.org/2000/svg">
<path d="M11.6152 6.92448L11.6152 6.92453L11.2326 7.61035C11.214 7.64379 11.1956 7.67674 11.1776 7.70922C10.8099 8.36995 10.5524 8.83274 10.1412 9.14442C9.72549 9.45954 9.21656 9.57429 8.49508 9.73695C8.4635 9.74407 8.4315 9.75129 8.39909 9.75861C8.39903 9.75863 8.39897 9.75864 8.39891 9.75865L7.65709 9.92661L7.6569 9.92665C6.20499 10.2548 5.17405 10.4895 4.4581 10.7717C3.75145 11.0502 3.48086 11.3257 3.37738 11.6591C3.27207 11.9985 3.33952 12.398 3.75831 13.0633C4.18048 13.734 4.88434 14.5591 5.87326 15.7149L5.8735 15.7152L6.3795 16.3075C6.37961 16.3076 6.37972 16.3077 6.37983 16.3078C6.37983 16.3078 6.37983 16.3078 6.37983 16.3078C6.40149 16.3331 6.42288 16.3581 6.444 16.3827C6.93685 16.9578 7.28019 17.3585 7.43501 17.861C7.59135 18.3603 7.53977 18.8907 7.46481 19.6616C7.46164 19.6942 7.45843 19.7273 7.45518 19.7608L7.45514 19.7612L7.37819 20.5494C7.37818 20.5495 7.37816 20.5497 7.37815 20.5498C7.37815 20.5498 7.37814 20.5499 7.37814 20.5499C7.22903 22.0923 7.12356 23.1944 7.15951 23.9984C7.19542 24.8014 7.36831 25.1594 7.63425 25.3611C7.89065 25.5555 8.25154 25.6168 8.98302 25.4071C9.72076 25.1957 10.687 24.7526 12.0463 24.1269L12.0465 24.1268L12.7411 23.8075C12.7697 23.7943 12.7979 23.7812 12.8259 23.7683C13.5026 23.4554 13.9812 23.2341 14.5 23.2341C15.0188 23.2341 15.4975 23.4554 16.1742 23.7683C16.2019 23.7812 16.23 23.7942 16.2585 23.8073C16.2587 23.8074 16.2588 23.8074 16.259 23.8075L16.9544 24.1267L16.955 24.127C18.3137 24.7526 19.2796 25.1957 20.0172 25.407C20.7485 25.6165 21.1098 25.555 21.367 25.3599C21.6321 25.1588 21.8049 24.8014 21.8407 23.9983C21.8765 23.1943 21.771 22.0921 21.6218 20.5494L21.5449 19.76L21.5448 19.7597C21.5416 19.7267 21.5385 19.6942 21.5354 19.6621C21.4602 18.8902 21.4086 18.3603 21.5638 17.86L21.5639 17.8596C21.7194 17.3596 22.0614 16.9598 22.5535 16.3847C22.5754 16.359 22.5977 16.333 22.6202 16.3066L22.6205 16.3063L23.1267 15.715C23.1267 15.7149 23.1268 15.7149 23.1268 15.7148C24.1157 14.5585 24.8195 13.7331 25.2417 13.0624C25.6605 12.3971 25.7278 11.9981 25.6228 11.6596L11.6152 6.92448ZM11.6152 6.92448C12.3625 5.5845 12.8962 4.62971 13.3762 4.00297C13.8559 3.37658 14.1874 3.20496 14.5 3.20496C14.8127 3.20496 15.1441 3.37658 15.6238 4.00297C16.1038 4.62971 16.6376 5.5845 17.3848 6.92448L17.3849 6.92453M11.6152 6.92448L17.3849 6.92453M17.3849 6.92453L17.7674 7.61035C17.7843 7.64071 17.801 7.67067 17.8175 7.70024C18.1883 8.36654 18.4469 8.83106 18.8581 9.1439L19.1608 8.74596M17.3849 6.92453L19.1608 8.74596M19.1608 8.74596L18.8581 9.1439C19.2728 9.45935 19.7832 9.57424 20.5042 9.73656M19.1608 8.74596L20.5042 9.73656M20.5042 9.73656C20.5365 9.74383 20.5693 9.7512 20.6024 9.75869M20.5042 9.73656L20.6024 9.75869M20.6024 9.75869L21.3441 9.92661C22.7961 10.2554 23.8265 10.4901 24.5421 10.7721C25.2479 11.0503 25.5186 11.3255 25.6227 11.6593L20.6024 9.75869Z" fill="#1D4B4A" stroke="#222222"/>
</svg>
