<svg width="20" height="20" viewBox="0 0 20 20" fill="none" xmlns="http://www.w3.org/2000/svg">
<path d="M8.06422 4.75019L8.06419 4.75024L7.79096 5.24006C7.79093 5.24012 7.79089 5.24018 7.79086 5.24024C7.77509 5.26854 7.75956 5.29648 7.74423 5.32405C7.48972 5.78194 7.29141 6.1387 6.9729 6.38013C6.65048 6.62453 6.25722 6.71302 5.75764 6.82543C5.73001 6.83164 5.70206 6.83793 5.67378 6.84432C5.67376 6.84433 5.67374 6.84433 5.67373 6.84434C5.67368 6.84434 5.67364 6.84435 5.6736 6.84436L5.14378 6.96432L5.14359 6.96436C4.10168 7.19985 3.37832 7.36498 2.87962 7.56153C2.39023 7.75441 2.24655 7.92819 2.19174 8.10485C2.1351 8.28738 2.15704 8.52668 2.44829 8.98938C2.74292 9.45745 3.2372 10.0375 3.94662 10.8666L3.94686 10.8669L4.30819 11.2898L8.06422 4.75019ZM8.06422 4.75019C8.60031 3.78887 8.97575 3.11809 9.31074 2.68068C9.64546 2.24362 9.84521 2.16667 10 2.16667C10.1549 2.16667 10.3546 2.24362 10.6893 2.68068C11.0243 3.11809 11.3998 3.78887 11.9358 4.75019L11.9359 4.75024M8.06422 4.75019L11.9359 4.75024M11.9359 4.75024L12.2091 5.24006C12.2091 5.24012 12.2092 5.24018 12.2092 5.24024C12.2239 5.26665 12.2384 5.29273 12.2527 5.31849C12.5093 5.77979 12.7081 6.13744 13.0265 6.37961C13.3483 6.6244 13.7428 6.71302 14.242 6.82517C14.2701 6.83147 14.2984 6.83784 14.3271 6.84432L11.9359 4.75024ZM15.6916 11.2893L15.6919 11.289L16.0534 10.8667C16.0534 10.8666 16.0535 10.8666 16.0535 10.8665C16.7629 10.037 17.2571 9.45685 17.5518 8.98875C17.843 8.52616 17.8649 8.2872 17.8085 8.10531L15.6916 11.2893ZM15.6916 11.2893C15.6721 11.3121 15.6529 11.3346 15.6339 11.3568C15.2926 11.7554 15.0294 12.0628 14.9093 12.449L14.9091 12.4494M15.6916 11.2893L14.9091 12.4494M14.9091 12.4494C14.7895 12.8351 14.8292 13.2417 14.8815 13.7765C14.8843 13.8048 14.8871 13.8334 14.8899 13.8624L14.8899 13.8627M14.9091 12.4494L14.8899 13.8627M14.8899 13.8627L14.9449 14.4264C15.0518 15.533 15.1257 16.3081 15.1006 16.8698C15.0756 17.4307 14.9562 17.6307 14.8187 17.735C14.6892 17.8332 14.4877 17.8905 13.9802 17.7451C13.4664 17.5979 12.7884 17.2873 11.8133 16.8383L11.8128 16.8381M14.8899 13.8627L11.8128 16.8381M11.8128 16.8381L11.3163 16.6102C11.3162 16.6102 11.316 16.6101 11.3158 16.61C11.2904 16.5983 11.2653 16.5867 11.2405 16.5752C10.7728 16.3587 10.403 16.1875 10 16.1875C9.59705 16.1875 9.22723 16.3587 8.75957 16.5752C8.73478 16.5866 8.70971 16.5982 8.68435 16.6099C8.68415 16.61 8.68395 16.6101 8.68375 16.6102L8.18785 16.8382L8.18765 16.8383M11.8128 16.8381L8.18765 16.8383M8.18765 16.8383C7.21217 17.2873 6.53387 17.5979 6.01996 17.7452C5.51237 17.8907 5.31119 17.8335 5.18227 17.7359C5.04417 17.6311 4.92461 17.4306 4.89953 16.8699C4.87442 16.3081 4.94823 15.5331 5.05519 14.4267C5.0552 14.4266 5.05521 14.4265 5.05521 14.4264L5.11017 13.8636L5.11021 13.8632M8.18765 16.8383L5.11021 13.8632M5.11021 13.8632C5.11305 13.8338 5.11588 13.8048 5.11868 13.7762M5.11021 13.8632L5.11868 13.7762M5.11868 13.7762C5.17072 13.2429 5.21042 12.8362 5.09048 12.4515M5.11868 13.7762L5.09048 12.4515M5.09048 12.4515C4.97104 12.0627 4.70655 11.7543 4.3645 11.3555C4.34606 11.334 4.3274 11.3123 4.30852 11.2902L5.09048 12.4515ZM17.1205 7.56183C17.6092 7.75444 17.7532 7.928 17.8084 8.10499L14.3274 6.8444L14.8571 6.96432C15.8991 7.20026 16.6221 7.36536 17.1205 7.56183Z" fill="white" stroke="white"/>
</svg>
