<svg width="32" height="33" viewBox="0 0 32 33" fill="none" xmlns="http://www.w3.org/2000/svg">
<path d="M15.44 6.868C16.3667 4.508 16.8307 3.32666 17.7987 3.18133C18.7667 3.03466 19.5987 4.02133 21.2653 5.99333L21.696 6.50266C22.1693 7.06266 22.4053 7.34266 22.728 7.50266C23.048 7.66266 23.4187 7.68533 24.16 7.72933L24.8347 7.768C27.4413 7.92 28.744 7.99733 29.196 8.848C29.6493 9.70133 28.9507 10.7653 27.5547 12.892L27.1933 13.4427C26.796 14.0467 26.5973 14.3493 26.544 14.6947C26.4907 15.04 26.588 15.388 26.7827 16.0853L26.96 16.7213C27.644 19.1773 27.9867 20.404 27.2973 21.076C26.608 21.7493 25.344 21.42 22.816 20.7627L22.1627 20.5933C21.4427 20.4067 21.084 20.3133 20.7293 20.3667C20.3747 20.42 20.064 20.6133 19.444 21.0013L18.8787 21.3547C16.6947 22.72 15.604 23.4027 14.7253 22.9653C13.8467 22.5293 13.7653 21.2627 13.5987 18.7293L13.5547 18.0733C13.508 17.3533 13.484 16.9933 13.3187 16.6813C13.1533 16.3693 12.8653 16.14 12.2867 15.6813L11.76 15.2653C9.72533 13.6533 8.70667 12.8467 8.85333 11.9053C9 10.964 10.2133 10.5093 12.6387 9.6L13.2653 9.36533C13.956 9.10666 14.3 8.97866 14.552 8.732C14.8053 8.48533 14.936 8.14933 15.2 7.47866L15.44 6.868Z" fill="#EEC470"/>
<path opacity="0.5" d="M7.08 13.2907C3.83066 16.3933 1.7 21.5747 3.108 29.8333C4.36533 26.3627 7.80933 23.4867 11.8827 21.7707C11.7413 20.98 11.6773 20.0147 11.6107 18.9973L11.5587 18.204C11.5463 18.0128 11.5321 17.8216 11.516 17.6307L11.4013 17.536L11.044 17.2493L10.4107 16.748C9.48533 16.0147 8.624 15.3347 8.03333 14.7053C7.696 14.3467 7.31866 13.8733 7.08 13.2907ZM13.796 21.064L13.776 20.912L13.8507 21.0467L13.796 21.064Z" fill="#EEC470"/>
</svg>
