<svg width="18" height="19" viewBox="0 0 18 19" fill="none" xmlns="http://www.w3.org/2000/svg">
<path d="M6.86474 4.42758C7.81499 2.72358 8.28974 1.87158 8.99999 1.87158C9.71024 1.87158 10.185 2.72358 11.1352 4.42758L11.3812 4.86858C11.6512 5.35308 11.7862 5.59533 11.9962 5.75508C12.2062 5.91483 12.4687 5.97408 12.9937 6.09258L13.4707 6.20058C15.3157 6.61833 16.2375 6.82683 16.4572 7.53258C16.6762 8.23758 16.0477 8.97333 14.79 10.4441L14.4645 10.8243C14.1075 11.2421 13.9282 11.4513 13.848 11.7093C13.7677 11.9681 13.7947 12.2471 13.8487 12.8043L13.8982 13.3121C14.088 15.2748 14.1832 16.2558 13.6087 16.6916C13.0342 17.1273 12.1702 16.7298 10.4437 15.9348L9.99599 15.7293C9.50549 15.5028 9.26024 15.3903 8.99999 15.3903C8.73974 15.3903 8.49449 15.5028 8.00399 15.7293L7.55699 15.9348C5.82974 16.7298 4.96574 17.1273 4.39199 16.6923C3.81674 16.2558 3.91199 15.2748 4.10174 13.3121L4.15124 12.8051C4.20524 12.2471 4.23224 11.9681 4.15124 11.7101C4.07174 11.4513 3.89249 11.2421 3.53549 10.8251L3.20999 10.4441C1.95224 8.97408 1.32374 8.23833 1.54274 7.53258C1.76174 6.82683 2.68499 6.61758 4.52999 6.20058L5.00699 6.09258C5.53124 5.97408 5.79299 5.91483 6.00374 5.75508C6.21449 5.59533 6.34874 5.35308 6.61874 4.86858L6.86474 4.42758Z" fill="#E8B040"/>
</svg>
