<svg width="20" height="20" viewBox="0 0 20 20" fill="none" xmlns="http://www.w3.org/2000/svg">
<path d="M13.3583 8.35834C13.4197 8.30112 13.469 8.23212 13.5031 8.15545C13.5373 8.07879 13.5557 7.99603 13.5571 7.91211C13.5586 7.82819 13.5432 7.74483 13.5118 7.66701C13.4803 7.58918 13.4335 7.51849 13.3742 7.45914C13.3148 7.39979 13.2441 7.353 13.1663 7.32157C13.0885 7.29014 13.0051 7.2747 12.9212 7.27618C12.8373 7.27766 12.7545 7.29603 12.6779 7.33019C12.6012 7.36435 12.5322 7.4136 12.475 7.47501L8.74998 11.2L7.52498 9.97501C7.4065 9.86461 7.2498 9.8045 7.08788 9.80736C6.92596 9.81022 6.77148 9.87581 6.65697 9.99032C6.54245 10.1048 6.47686 10.2593 6.474 10.4212C6.47115 10.5832 6.53125 10.7399 6.64165 10.8583L8.30832 12.525C8.42551 12.642 8.58436 12.7078 8.74998 12.7078C8.91561 12.7078 9.07446 12.642 9.19165 12.525L13.3583 8.35834Z" fill="#222222"/>
<path fill-rule="evenodd" clip-rule="evenodd" d="M9.99996 1.04167C5.05246 1.04167 1.04163 5.05251 1.04163 10C1.04163 14.9475 5.05246 18.9583 9.99996 18.9583C14.9475 18.9583 18.9583 14.9475 18.9583 10C18.9583 5.05251 14.9475 1.04167 9.99996 1.04167ZM2.29163 10C2.29163 7.95563 3.10375 5.99498 4.54934 4.54939C5.99494 3.1038 7.95558 2.29167 9.99996 2.29167C12.0443 2.29167 14.005 3.1038 15.4506 4.54939C16.8962 5.99498 17.7083 7.95563 17.7083 10C17.7083 12.0444 16.8962 14.005 15.4506 15.4506C14.005 16.8962 12.0443 17.7083 9.99996 17.7083C7.95558 17.7083 5.99494 16.8962 4.54934 15.4506C3.10375 14.005 2.29163 12.0444 2.29163 10Z" fill="#222222"/>
</svg>
