<svg width="24" height="24" viewBox="0 0 24 24" fill="none" xmlns="http://www.w3.org/2000/svg">
<path opacity="0.5" d="M9.59199 3.2C9.43416 3.34165 9.26893 3.47484 9.09699 3.599C8.79899 3.799 8.46399 3.937 8.11199 4.007C7.95899 4.037 7.79899 4.05 7.47999 4.075C6.67899 4.139 6.27799 4.171 5.94399 4.289C5.56199 4.42365 5.21502 4.64221 4.92861 4.92862C4.64221 5.21503 4.42364 5.56199 4.28899 5.944C4.17099 6.278 4.13899 6.679 4.07499 7.48C4.06351 7.69172 4.04081 7.90268 4.00699 8.112C3.93699 8.464 3.79899 8.799 3.59899 9.097C3.51199 9.227 3.40799 9.349 3.19999 9.592C2.67899 10.204 2.41799 10.51 2.26499 10.83C1.91199 11.57 1.91199 12.43 2.26499 13.17C2.41799 13.49 2.67899 13.796 3.19999 14.408C3.40799 14.651 3.51199 14.773 3.59899 14.903C3.79899 15.201 3.93699 15.536 4.00699 15.888C4.03699 16.041 4.04999 16.201 4.07499 16.52C4.13899 17.321 4.17099 17.722 4.28899 18.056C4.42364 18.438 4.64221 18.785 4.92861 19.0714C5.21502 19.3578 5.56199 19.5764 5.94399 19.711C6.27799 19.829 6.67899 19.861 7.47999 19.925C7.79899 19.95 7.95899 19.963 8.11199 19.993C8.46399 20.063 8.79899 20.202 9.09699 20.401C9.22699 20.488 9.34899 20.592 9.59199 20.8C10.204 21.321 10.51 21.582 10.83 21.735C11.57 22.088 12.43 22.088 13.17 21.735C13.49 21.582 13.796 21.321 14.408 20.8C14.651 20.592 14.773 20.488 14.903 20.401C15.201 20.201 15.536 20.063 15.888 19.993C16.041 19.963 16.201 19.95 16.52 19.925C17.321 19.861 17.722 19.829 18.056 19.711C18.438 19.5764 18.785 19.3578 19.0714 19.0714C19.3578 18.785 19.5763 18.438 19.711 18.056C19.829 17.722 19.861 17.321 19.925 16.52C19.95 16.201 19.963 16.041 19.993 15.888C20.063 15.536 20.202 15.201 20.401 14.903C20.488 14.773 20.592 14.651 20.8 14.408C21.321 13.796 21.582 13.49 21.735 13.17C22.088 12.43 22.088 11.57 21.735 10.83C21.582 10.51 21.321 10.204 20.8 9.592C20.6583 9.43417 20.5252 9.26893 20.401 9.097C20.2009 8.79905 20.0622 8.46419 19.993 8.112C19.9592 7.90268 19.9365 7.69172 19.925 7.48C19.861 6.679 19.829 6.278 19.711 5.944C19.5763 5.56199 19.3578 5.21503 19.0714 4.92862C18.785 4.64221 18.438 4.42365 18.056 4.289C17.722 4.171 17.321 4.139 16.52 4.075C16.3083 4.06351 16.0973 4.04082 15.888 4.007C15.5358 3.93782 15.2009 3.79912 14.903 3.599C14.7311 3.47484 14.5658 3.34165 14.408 3.2C13.796 2.679 13.49 2.418 13.17 2.265C12.8047 2.09017 12.4049 1.99942 12 1.99942C11.5951 1.99942 11.1953 2.09017 10.83 2.265C10.51 2.418 10.204 2.679 9.59199 3.2Z" fill="#222222"/>
<path d="M16.374 9.863C16.5223 9.70948 16.6044 9.50385 16.6026 9.29039C16.6007 9.07694 16.5151 8.87274 16.3642 8.7218C16.2132 8.57086 16.0091 8.48525 15.7956 8.48341C15.5821 8.48158 15.3765 8.56367 15.223 8.712L10.373 13.562L8.77799 11.967C8.62448 11.8187 8.41884 11.7366 8.20539 11.7384C7.99193 11.7402 7.78773 11.8259 7.63679 11.9768C7.48585 12.1277 7.40024 12.3319 7.39841 12.5454C7.39657 12.7588 7.47866 12.9645 7.62699 13.118L9.79699 15.288C9.9496 15.4403 10.1564 15.5258 10.372 15.5258C10.5876 15.5258 10.7944 15.4403 10.947 15.288L16.374 9.863Z" fill="#222222"/>
</svg>
