<svg width="18" height="18" viewBox="0 0 18 18" fill="none" xmlns="http://www.w3.org/2000/svg">
<mask id="path-1-inside-1_1850_4397" fill="white">
<path fill-rule="evenodd" clip-rule="evenodd" d="M4.836 1.3125C4.1625 1.3125 3.6 1.3125 3.1545 1.3725C2.6835 1.4355 2.25825 1.575 1.917 1.91625C1.575 2.25825 1.4355 2.6835 1.3725 3.15375C1.3125 3.6 1.3125 4.1625 1.3125 4.836V4.914C1.3125 5.5875 1.3125 6.15 1.3725 6.5955C1.4355 7.0665 1.575 7.49175 1.91625 7.833C2.25825 8.175 2.6835 8.3145 3.15375 8.3775C3.6 8.4375 4.1625 8.4375 4.836 8.4375H4.914C5.5875 8.4375 6.15 8.4375 6.5955 8.3775C7.0665 8.3145 7.49175 8.175 7.833 7.833C8.175 7.49175 8.3145 7.0665 8.3775 6.5955C8.4375 6.15 8.4375 5.5875 8.4375 4.914V4.836C8.4375 4.1625 8.4375 3.6 8.3775 3.1545C8.3145 2.6835 8.175 2.25825 7.833 1.917C7.49175 1.575 7.0665 1.4355 6.5955 1.3725C6.15 1.3125 5.5875 1.3125 4.914 1.3125H4.836ZM2.712 2.712C2.8095 2.6145 2.958 2.53425 3.3045 2.487C3.666 2.439 4.152 2.4375 4.875 2.4375C5.598 2.4375 6.084 2.439 6.44625 2.48775C6.792 2.53425 6.9405 2.6145 7.038 2.71275C7.1355 2.811 7.21575 2.958 7.263 3.30375C7.311 3.666 7.3125 4.152 7.3125 4.875C7.3125 5.598 7.311 6.084 7.26225 6.44625C7.21575 6.792 7.1355 6.9405 7.03725 7.038C6.939 7.1355 6.792 7.21575 6.44625 7.263C6.084 7.311 5.598 7.3125 4.875 7.3125C4.152 7.3125 3.666 7.311 3.30375 7.26225C2.958 7.21575 2.8095 7.1355 2.712 7.03725C2.6145 6.939 2.53425 6.792 2.487 6.44625C2.43975 6.084 2.4375 5.598 2.4375 4.875C2.4375 4.152 2.439 3.666 2.48775 3.30375C2.53425 2.958 2.6145 2.8095 2.71275 2.712M13.086 9.5625C12.4117 9.5625 11.85 9.5625 11.4045 9.6225C10.9335 9.6855 10.5083 9.825 10.167 10.167C9.825 10.5083 9.6855 10.9335 9.6225 11.4045C9.5625 11.85 9.5625 12.4117 9.5625 13.086V13.164C9.5625 13.8383 9.5625 14.4 9.6225 14.8455C9.6855 15.3165 9.825 15.7417 10.167 16.083C10.5083 16.425 10.9335 16.5645 11.4045 16.6275C11.85 16.6875 12.4117 16.6875 13.086 16.6875H13.164C13.8375 16.6875 14.4 16.6875 14.8455 16.6275C15.3165 16.5645 15.7417 16.425 16.083 16.083C16.425 15.7417 16.5645 15.3165 16.6275 14.8455C16.6875 14.4 16.6875 13.8383 16.6875 13.164V13.086C16.6875 12.4125 16.6875 11.85 16.6275 11.4045C16.5645 10.9335 16.425 10.5083 16.083 10.167C15.7417 9.825 15.3165 9.6855 14.8455 9.6225C14.4 9.5625 13.8383 9.5625 13.164 9.5625H13.086ZM10.962 10.962C11.0595 10.8645 11.208 10.7843 11.5545 10.737C11.916 10.689 12.402 10.6875 13.125 10.6875C13.848 10.6875 14.334 10.689 14.6962 10.737C15.042 10.7843 15.1905 10.8645 15.288 10.962C15.3855 11.0595 15.4657 11.208 15.513 11.5545C15.561 11.916 15.5625 12.402 15.5625 13.125C15.5625 13.848 15.561 14.334 15.5123 14.6962C15.4658 15.042 15.3855 15.1905 15.2872 15.288C15.189 15.3855 15.042 15.4657 14.6962 15.513C14.334 15.561 13.848 15.5625 13.125 15.5625C12.402 15.5625 11.916 15.561 11.5538 15.5123C11.208 15.4658 11.0595 15.3855 10.962 15.2872C10.8645 15.189 10.7843 15.042 10.737 14.6962C10.689 14.334 10.6875 13.848 10.6875 13.125C10.6875 12.402 10.689 11.916 10.737 11.5538C10.7843 11.208 10.8645 11.0595 10.962 10.962ZM4.836 9.5625H4.914C5.5875 9.5625 6.15 9.5625 6.5955 9.6225C7.0665 9.6855 7.49175 9.825 7.833 10.167C8.175 10.5083 8.3145 10.9335 8.3775 11.4045C8.4375 11.85 8.4375 12.4117 8.4375 13.086V13.164C8.4375 13.8383 8.4375 14.4 8.3775 14.8455C8.3145 15.3165 8.175 15.7417 7.833 16.083C7.49175 16.425 7.0665 16.5645 6.5955 16.6275C6.15 16.6875 5.58825 16.6875 4.914 16.6875H4.836C4.1625 16.6875 3.6 16.6875 3.1545 16.6275C2.6835 16.5645 2.25825 16.425 1.917 16.083C1.575 15.7417 1.4355 15.3165 1.3725 14.8455C1.3125 14.4 1.3125 13.8383 1.3125 13.164V13.086C1.3125 12.4117 1.3125 11.85 1.3725 11.4045C1.4355 10.9335 1.575 10.5083 1.91625 10.167C2.25825 9.825 2.6835 9.6855 3.15375 9.6225C3.6 9.5625 4.1625 9.5625 4.836 9.5625ZM3.30375 10.737C2.958 10.7843 2.8095 10.8645 2.712 10.962C2.6145 11.0595 2.53425 11.208 2.487 11.5545C2.439 11.916 2.4375 12.402 2.4375 13.125C2.4375 13.848 2.439 14.334 2.48775 14.6962C2.53425 15.042 2.6145 15.1905 2.71275 15.288C2.811 15.3855 2.958 15.4657 3.30375 15.513C3.666 15.561 4.152 15.5625 4.875 15.5625C5.598 15.5625 6.084 15.561 6.44625 15.5123C6.792 15.4658 6.9405 15.3855 7.038 15.2872C7.1355 15.189 7.21575 15.042 7.263 14.6962C7.311 14.334 7.3125 13.848 7.3125 13.125C7.3125 12.402 7.311 11.916 7.26225 11.5538C7.21575 11.208 7.1355 11.0595 7.03725 10.962C6.939 10.8645 6.792 10.7843 6.44625 10.737C6.084 10.689 5.598 10.6875 4.875 10.6875C4.152 10.6875 3.666 10.689 3.30375 10.737ZM13.086 1.3125C12.4117 1.3125 11.85 1.3125 11.4045 1.3725C10.9335 1.4355 10.5083 1.575 10.167 1.91625C9.825 2.25825 9.6855 2.6835 9.6225 3.15375C9.5625 3.6 9.5625 4.1625 9.5625 4.836V4.914C9.5625 5.5875 9.5625 6.15 9.6225 6.5955C9.6855 7.0665 9.825 7.49175 10.167 7.833C10.5083 8.175 10.9335 8.3145 11.4045 8.3775C11.85 8.4375 12.4117 8.4375 13.086 8.4375H13.164C13.8383 8.4375 14.4 8.4375 14.8455 8.3775C15.3165 8.3145 15.7417 8.175 16.083 7.833C16.425 7.49175 16.5645 7.0665 16.6275 6.5955C16.6875 6.15 16.6875 5.5875 16.6875 4.914V4.836C16.6875 4.1625 16.6875 3.6 16.6275 3.1545C16.5645 2.6835 16.425 2.25825 16.083 1.917C15.7417 1.575 15.3165 1.4355 14.8455 1.3725C14.4 1.3125 13.8383 1.3125 13.164 1.3125H13.086ZM10.962 2.712C11.0595 2.6145 11.208 2.53425 11.5545 2.487C11.916 2.439 12.402 2.4375 13.125 2.4375C13.848 2.4375 14.334 2.439 14.6962 2.48775C15.042 2.53425 15.1905 2.6145 15.288 2.71275C15.3855 2.811 15.4657 2.958 15.513 3.30375C15.561 3.666 15.5625 4.152 15.5625 4.875C15.5625 5.598 15.561 6.084 15.5123 6.44625C15.4658 6.792 15.3855 6.9405 15.2872 7.038C15.189 7.1355 15.042 7.21575 14.6962 7.263C14.334 7.311 13.848 7.3125 13.125 7.3125C12.402 7.3125 11.916 7.311 11.5538 7.26225C11.208 7.21575 11.0595 7.1355 10.962 7.03725C10.8645 6.939 10.7843 6.792 10.737 6.44625C10.689 6.084 10.6875 5.598 10.6875 4.875C10.6875 4.152 10.689 3.666 10.737 3.30375C10.7843 2.958 10.8645 2.8095 10.962 2.712Z"/>
</mask>
<path fill-rule="evenodd" clip-rule="evenodd" d="M4.836 1.3125C4.1625 1.3125 3.6 1.3125 3.1545 1.3725C2.6835 1.4355 2.25825 1.575 1.917 1.91625C1.575 2.25825 1.4355 2.6835 1.3725 3.15375C1.3125 3.6 1.3125 4.1625 1.3125 4.836V4.914C1.3125 5.5875 1.3125 6.15 1.3725 6.5955C1.4355 7.0665 1.575 7.49175 1.91625 7.833C2.25825 8.175 2.6835 8.3145 3.15375 8.3775C3.6 8.4375 4.1625 8.4375 4.836 8.4375H4.914C5.5875 8.4375 6.15 8.4375 6.5955 8.3775C7.0665 8.3145 7.49175 8.175 7.833 7.833C8.175 7.49175 8.3145 7.0665 8.3775 6.5955C8.4375 6.15 8.4375 5.5875 8.4375 4.914V4.836C8.4375 4.1625 8.4375 3.6 8.3775 3.1545C8.3145 2.6835 8.175 2.25825 7.833 1.917C7.49175 1.575 7.0665 1.4355 6.5955 1.3725C6.15 1.3125 5.5875 1.3125 4.914 1.3125H4.836ZM2.712 2.712C2.8095 2.6145 2.958 2.53425 3.3045 2.487C3.666 2.439 4.152 2.4375 4.875 2.4375C5.598 2.4375 6.084 2.439 6.44625 2.48775C6.792 2.53425 6.9405 2.6145 7.038 2.71275C7.1355 2.811 7.21575 2.958 7.263 3.30375C7.311 3.666 7.3125 4.152 7.3125 4.875C7.3125 5.598 7.311 6.084 7.26225 6.44625C7.21575 6.792 7.1355 6.9405 7.03725 7.038C6.939 7.1355 6.792 7.21575 6.44625 7.263C6.084 7.311 5.598 7.3125 4.875 7.3125C4.152 7.3125 3.666 7.311 3.30375 7.26225C2.958 7.21575 2.8095 7.1355 2.712 7.03725C2.6145 6.939 2.53425 6.792 2.487 6.44625C2.43975 6.084 2.4375 5.598 2.4375 4.875C2.4375 4.152 2.439 3.666 2.48775 3.30375C2.53425 2.958 2.6145 2.8095 2.71275 2.712M13.086 9.5625C12.4117 9.5625 11.85 9.5625 11.4045 9.6225C10.9335 9.6855 10.5083 9.825 10.167 10.167C9.825 10.5083 9.6855 10.9335 9.6225 11.4045C9.5625 11.85 9.5625 12.4117 9.5625 13.086V13.164C9.5625 13.8383 9.5625 14.4 9.6225 14.8455C9.6855 15.3165 9.825 15.7417 10.167 16.083C10.5083 16.425 10.9335 16.5645 11.4045 16.6275C11.85 16.6875 12.4117 16.6875 13.086 16.6875H13.164C13.8375 16.6875 14.4 16.6875 14.8455 16.6275C15.3165 16.5645 15.7417 16.425 16.083 16.083C16.425 15.7417 16.5645 15.3165 16.6275 14.8455C16.6875 14.4 16.6875 13.8383 16.6875 13.164V13.086C16.6875 12.4125 16.6875 11.85 16.6275 11.4045C16.5645 10.9335 16.425 10.5083 16.083 10.167C15.7417 9.825 15.3165 9.6855 14.8455 9.6225C14.4 9.5625 13.8383 9.5625 13.164 9.5625H13.086ZM10.962 10.962C11.0595 10.8645 11.208 10.7843 11.5545 10.737C11.916 10.689 12.402 10.6875 13.125 10.6875C13.848 10.6875 14.334 10.689 14.6962 10.737C15.042 10.7843 15.1905 10.8645 15.288 10.962C15.3855 11.0595 15.4657 11.208 15.513 11.5545C15.561 11.916 15.5625 12.402 15.5625 13.125C15.5625 13.848 15.561 14.334 15.5123 14.6962C15.4658 15.042 15.3855 15.1905 15.2872 15.288C15.189 15.3855 15.042 15.4657 14.6962 15.513C14.334 15.561 13.848 15.5625 13.125 15.5625C12.402 15.5625 11.916 15.561 11.5538 15.5123C11.208 15.4658 11.0595 15.3855 10.962 15.2872C10.8645 15.189 10.7843 15.042 10.737 14.6962C10.689 14.334 10.6875 13.848 10.6875 13.125C10.6875 12.402 10.689 11.916 10.737 11.5538C10.7843 11.208 10.8645 11.0595 10.962 10.962ZM4.836 9.5625H4.914C5.5875 9.5625 6.15 9.5625 6.5955 9.6225C7.0665 9.6855 7.49175 9.825 7.833 10.167C8.175 10.5083 8.3145 10.9335 8.3775 11.4045C8.4375 11.85 8.4375 12.4117 8.4375 13.086V13.164C8.4375 13.8383 8.4375 14.4 8.3775 14.8455C8.3145 15.3165 8.175 15.7417 7.833 16.083C7.49175 16.425 7.0665 16.5645 6.5955 16.6275C6.15 16.6875 5.58825 16.6875 4.914 16.6875H4.836C4.1625 16.6875 3.6 16.6875 3.1545 16.6275C2.6835 16.5645 2.25825 16.425 1.917 16.083C1.575 15.7417 1.4355 15.3165 1.3725 14.8455C1.3125 14.4 1.3125 13.8383 1.3125 13.164V13.086C1.3125 12.4117 1.3125 11.85 1.3725 11.4045C1.4355 10.9335 1.575 10.5083 1.91625 10.167C2.25825 9.825 2.6835 9.6855 3.15375 9.6225C3.6 9.5625 4.1625 9.5625 4.836 9.5625ZM3.30375 10.737C2.958 10.7843 2.8095 10.8645 2.712 10.962C2.6145 11.0595 2.53425 11.208 2.487 11.5545C2.439 11.916 2.4375 12.402 2.4375 13.125C2.4375 13.848 2.439 14.334 2.48775 14.6962C2.53425 15.042 2.6145 15.1905 2.71275 15.288C2.811 15.3855 2.958 15.4657 3.30375 15.513C3.666 15.561 4.152 15.5625 4.875 15.5625C5.598 15.5625 6.084 15.561 6.44625 15.5123C6.792 15.4658 6.9405 15.3855 7.038 15.2872C7.1355 15.189 7.21575 15.042 7.263 14.6962C7.311 14.334 7.3125 13.848 7.3125 13.125C7.3125 12.402 7.311 11.916 7.26225 11.5538C7.21575 11.208 7.1355 11.0595 7.03725 10.962C6.939 10.8645 6.792 10.7843 6.44625 10.737C6.084 10.689 5.598 10.6875 4.875 10.6875C4.152 10.6875 3.666 10.689 3.30375 10.737ZM13.086 1.3125C12.4117 1.3125 11.85 1.3125 11.4045 1.3725C10.9335 1.4355 10.5083 1.575 10.167 1.91625C9.825 2.25825 9.6855 2.6835 9.6225 3.15375C9.5625 3.6 9.5625 4.1625 9.5625 4.836V4.914C9.5625 5.5875 9.5625 6.15 9.6225 6.5955C9.6855 7.0665 9.825 7.49175 10.167 7.833C10.5083 8.175 10.9335 8.3145 11.4045 8.3775C11.85 8.4375 12.4117 8.4375 13.086 8.4375H13.164C13.8383 8.4375 14.4 8.4375 14.8455 8.3775C15.3165 8.3145 15.7417 8.175 16.083 7.833C16.425 7.49175 16.5645 7.0665 16.6275 6.5955C16.6875 6.15 16.6875 5.5875 16.6875 4.914V4.836C16.6875 4.1625 16.6875 3.6 16.6275 3.1545C16.5645 2.6835 16.425 2.25825 16.083 1.917C15.7417 1.575 15.3165 1.4355 14.8455 1.3725C14.4 1.3125 13.8383 1.3125 13.164 1.3125H13.086ZM10.962 2.712C11.0595 2.6145 11.208 2.53425 11.5545 2.487C11.916 2.439 12.402 2.4375 13.125 2.4375C13.848 2.4375 14.334 2.439 14.6962 2.48775C15.042 2.53425 15.1905 2.6145 15.288 2.71275C15.3855 2.811 15.4657 2.958 15.513 3.30375C15.561 3.666 15.5625 4.152 15.5625 4.875C15.5625 5.598 15.561 6.084 15.5123 6.44625C15.4658 6.792 15.3855 6.9405 15.2872 7.038C15.189 7.1355 15.042 7.21575 14.6962 7.263C14.334 7.311 13.848 7.3125 13.125 7.3125C12.402 7.3125 11.916 7.311 11.5538 7.26225C11.208 7.21575 11.0595 7.1355 10.962 7.03725C10.8645 6.939 10.7843 6.792 10.737 6.44625C10.689 6.084 10.6875 5.598 10.6875 4.875C10.6875 4.152 10.689 3.666 10.737 3.30375C10.7843 2.958 10.8645 2.8095 10.962 2.712Z" fill="#222222"/>
<path d="M3.1545 1.3725L3.28708 2.36367L3.28797 2.36355L3.1545 1.3725ZM1.3725 3.15375L2.36358 3.287L2.36364 3.28653L1.3725 3.15375ZM1.3725 6.5955L2.36367 6.46292L2.36355 6.46202L1.3725 6.5955ZM3.15375 8.3775L3.287 7.38642L3.28653 7.38636L3.15375 8.3775ZM6.5955 8.3775L6.46292 7.38633L6.46202 7.38645L6.5955 8.3775ZM7.833 7.833L7.12667 7.12512L7.12512 7.12667L7.833 7.833ZM8.3775 6.5955L7.38645 6.46202L7.38633 6.46292L8.3775 6.5955ZM8.3775 3.1545L7.38633 3.28708L7.38645 3.28797L8.3775 3.1545ZM7.833 1.917L7.12512 2.62333L7.12667 2.62488L7.833 1.917ZM6.5955 1.3725L6.46202 2.36355L6.46292 2.36367L6.5955 1.3725ZM3.3045 2.487L3.17287 1.49569L3.16939 1.49617L3.3045 2.487ZM6.44625 2.48775L6.31288 3.47882L6.31296 3.47883L6.44625 2.48775ZM7.263 3.30375L8.25434 3.17239L8.25379 3.16835L7.263 3.30375ZM7.26225 6.44625L6.27118 6.31288L6.27117 6.31296L7.26225 6.44625ZM6.44625 7.263L6.57761 8.25434L6.58165 8.25379L6.44625 7.263ZM3.30375 7.26225L3.43712 6.27118L3.43704 6.27117L3.30375 7.26225ZM2.487 6.44625L1.49538 6.57559L1.49621 6.58165L2.487 6.44625ZM2.48775 3.30375L3.47882 3.43712L3.47883 3.43704L2.48775 3.30375ZM11.4045 9.6225L11.5371 10.6137L11.538 10.6136L11.4045 9.6225ZM10.167 10.167L10.8733 10.8749L10.8749 10.8733L10.167 10.167ZM9.6225 11.4045L10.6136 11.538L10.6137 11.5371L9.6225 11.4045ZM9.6225 14.8455L10.6137 14.7129L10.6136 14.712L9.6225 14.8455ZM10.167 16.083L10.8749 15.3767L10.8733 15.3751L10.167 16.083ZM11.4045 16.6275L11.538 15.6364L11.5371 15.6363L11.4045 16.6275ZM14.8455 16.6275L14.7129 15.6363L14.712 15.6364L14.8455 16.6275ZM16.083 16.083L15.3767 15.3751L15.3751 15.3767L16.083 16.083ZM16.6275 14.8455L15.6364 14.712L15.6363 14.7129L16.6275 14.8455ZM16.6275 11.4045L15.6363 11.5371L15.6364 11.538L16.6275 11.4045ZM16.083 10.167L15.3751 10.8733L15.3767 10.8749L16.083 10.167ZM14.8455 9.6225L14.712 10.6136L14.7129 10.6137L14.8455 9.6225ZM11.5545 10.737L11.4229 9.74569L11.4194 9.74617L11.5545 10.737ZM14.6962 10.737L14.8317 9.7462L14.8276 9.74566L14.6962 10.737ZM15.513 11.5545L16.5043 11.4229L16.5038 11.4194L15.513 11.5545ZM15.5123 14.6962L14.5212 14.5629L14.5212 14.563L15.5123 14.6962ZM14.6962 15.513L14.8276 16.5043L14.8317 16.5038L14.6962 15.513ZM11.5538 15.5123L11.6871 14.5212L11.687 14.5212L11.5538 15.5123ZM10.737 14.6962L9.74566 14.8276L9.74621 14.8317L10.737 14.6962ZM10.737 11.5538L9.7462 11.4183L9.74566 11.4224L10.737 11.5538ZM6.5955 9.6225L6.46202 10.6136L6.46292 10.6137L6.5955 9.6225ZM7.833 10.167L7.12512 10.8733L7.12667 10.8749L7.833 10.167ZM8.3775 11.4045L7.38633 11.5371L7.38645 11.538L8.3775 11.4045ZM8.3775 14.8455L7.38645 14.712L7.38633 14.7129L8.3775 14.8455ZM7.833 16.083L7.12667 15.3751L7.12512 15.3767L7.833 16.083ZM6.5955 16.6275L6.46292 15.6363L6.46202 15.6364L6.5955 16.6275ZM3.1545 16.6275L3.28797 15.6364L3.28708 15.6363L3.1545 16.6275ZM1.917 16.083L2.62488 15.3767L2.62333 15.3751L1.917 16.083ZM1.3725 14.8455L2.36367 14.7129L2.36355 14.712L1.3725 14.8455ZM1.3725 11.4045L2.36355 11.538L2.36367 11.5371L1.3725 11.4045ZM3.15375 9.6225L3.28653 10.6136L3.287 10.6136L3.15375 9.6225ZM3.30375 10.737L3.17239 9.74566L3.16835 9.74621L3.30375 10.737ZM2.487 11.5545L1.49616 11.4194L1.4957 11.4229L2.487 11.5545ZM2.48775 14.6962L3.47883 14.563L3.47882 14.5629L2.48775 14.6962ZM3.30375 15.513L3.16835 16.5038L3.17239 16.5043L3.30375 15.513ZM6.44625 15.5123L6.31296 14.5212L6.31288 14.5212L6.44625 15.5123ZM7.263 14.6962L8.2538 14.8317L8.25433 14.8276L7.263 14.6962ZM7.26225 11.5538L6.27117 11.687L6.27118 11.6871L7.26225 11.5538ZM6.44625 10.737L6.58165 9.7462L6.57761 9.74566L6.44625 10.737ZM11.4045 1.3725L11.5371 2.36367L11.538 2.36355L11.4045 1.3725ZM9.6225 3.15375L10.6136 3.287L10.6136 3.28653L9.6225 3.15375ZM9.6225 6.5955L10.6137 6.46292L10.6136 6.46202L9.6225 6.5955ZM10.167 7.833L10.8749 7.12667L10.8733 7.12512L10.167 7.833ZM11.4045 8.3775L11.538 7.38645L11.5371 7.38633L11.4045 8.3775ZM14.8455 8.3775L14.7129 7.38633L14.712 7.38645L14.8455 8.3775ZM16.083 7.833L15.3767 7.12512L15.3751 7.12667L16.083 7.833ZM16.6275 6.5955L15.6364 6.46202L15.6363 6.46292L16.6275 6.5955ZM16.6275 3.1545L15.6363 3.28708L15.6364 3.28797L16.6275 3.1545ZM16.083 1.917L15.3751 2.62333L15.3767 2.62488L16.083 1.917ZM14.8455 1.3725L14.712 2.36355L14.7129 2.36367L14.8455 1.3725ZM11.5545 2.487L11.4229 1.49569L11.4194 1.49617L11.5545 2.487ZM14.6962 2.48775L14.5629 3.47882L14.563 3.47883L14.6962 2.48775ZM15.513 3.30375L16.5043 3.17239L16.5038 3.16835L15.513 3.30375ZM15.5123 6.44625L14.5212 6.31288L14.5212 6.31296L15.5123 6.44625ZM14.6962 7.263L14.8276 8.25434L14.8317 8.25379L14.6962 7.263ZM11.5538 7.26225L11.6871 6.27118L11.687 6.27117L11.5538 7.26225ZM10.737 6.44625L9.74566 6.57761L9.74621 6.58165L10.737 6.44625ZM10.737 3.30375L9.7462 3.16835L9.74566 3.17239L10.737 3.30375ZM4.836 0.3125C4.18768 0.3125 3.54803 0.31047 3.02102 0.381448L3.28797 2.36355C3.65197 2.31453 4.13732 2.3125 4.836 2.3125V0.3125ZM3.02192 0.381327C2.43994 0.459172 1.76816 0.650877 1.20989 1.20914L2.62411 2.62336C2.74834 2.49912 2.92706 2.41183 3.28708 2.36367L3.02192 0.381327ZM1.20989 1.20914C0.651154 1.76788 0.459277 2.43934 0.381355 3.02096L2.36364 3.28653C2.41172 2.92766 2.49885 2.74862 2.62411 2.62336L1.20989 1.20914ZM0.381418 3.0205C0.310479 3.5481 0.3125 4.18756 0.3125 4.836H2.3125C2.3125 4.13744 2.31452 3.6519 2.36358 3.287L0.381418 3.0205ZM0.3125 4.836V4.914H2.3125V4.836H0.3125ZM0.3125 4.914C0.3125 5.56232 0.31047 6.20197 0.381448 6.72897L2.36355 6.46202C2.31453 6.09803 2.3125 5.61268 2.3125 4.914H0.3125ZM0.381327 6.72808C0.459172 7.31006 0.650876 7.98184 1.20914 8.54011L2.62336 7.12589C2.49912 7.00166 2.41183 6.82294 2.36367 6.46292L0.381327 6.72808ZM1.20914 8.54011C1.76788 9.09885 2.43934 9.29072 3.02096 9.36864L3.28653 7.38636C2.92766 7.33828 2.74862 7.25115 2.62336 7.12589L1.20914 8.54011ZM3.0205 9.36858C3.5481 9.43952 4.18756 9.4375 4.836 9.4375V7.4375C4.13744 7.4375 3.6519 7.43548 3.287 7.38642L3.0205 9.36858ZM4.836 9.4375H4.914V7.4375H4.836V9.4375ZM4.914 9.4375C5.56232 9.4375 6.20197 9.43953 6.72897 9.36855L6.46202 7.38645C6.09803 7.43547 5.61268 7.4375 4.914 7.4375V9.4375ZM6.72808 9.36867C7.31015 9.29082 7.98244 9.099 8.54088 8.53933L7.12512 7.12667C7.00106 7.251 6.82285 7.33818 6.46292 7.38633L6.72808 9.36867ZM8.53933 8.54088C9.099 7.98244 9.29082 7.31015 9.36867 6.72808L7.38633 6.46292C7.33818 6.82285 7.251 7.00106 7.12667 7.12512L8.53933 8.54088ZM9.36855 6.72897C9.43953 6.20197 9.4375 5.56232 9.4375 4.914H7.4375C7.4375 5.61268 7.43547 6.09803 7.38645 6.46202L9.36855 6.72897ZM9.4375 4.914V4.836H7.4375V4.914H9.4375ZM9.4375 4.836C9.4375 4.18768 9.43953 3.54803 9.36855 3.02102L7.38645 3.28797C7.43547 3.65197 7.4375 4.13732 7.4375 4.836H9.4375ZM9.36867 3.02192C9.29082 2.43985 9.099 1.76756 8.53933 1.20912L7.12667 2.62488C7.251 2.74894 7.33818 2.92715 7.38633 3.28708L9.36867 3.02192ZM8.54088 1.21067C7.98244 0.650996 7.31015 0.459185 6.72808 0.381327L6.46292 2.36367C6.82285 2.41182 7.00106 2.499 7.12512 2.62333L8.54088 1.21067ZM6.72897 0.381448C6.20197 0.31047 5.56232 0.3125 4.914 0.3125V2.3125C5.61268 2.3125 6.09803 2.31453 6.46202 2.36355L6.72897 0.381448ZM4.914 0.3125H4.836V2.3125H4.914V0.3125ZM3.41911 3.41911C3.40068 3.43753 3.37737 3.45733 3.35066 3.47509C3.32468 3.49236 3.30462 3.50163 3.29577 3.50528C3.28799 3.50848 3.29308 3.5056 3.31698 3.49976C3.34106 3.49387 3.38034 3.48591 3.43961 3.47783L3.16939 1.49617C2.71348 1.55834 2.31905 1.69074 2.00489 2.00489L3.41911 3.41911ZM3.43613 3.4783C3.71643 3.44108 4.12381 3.4375 4.875 3.4375V1.4375C4.18019 1.4375 3.61557 1.43692 3.17288 1.4957L3.43613 3.4783ZM4.875 3.4375C5.62652 3.4375 6.03288 3.44113 6.31288 3.47882L6.57962 1.49668C6.13512 1.43687 5.56948 1.4375 4.875 1.4375V3.4375ZM6.31296 3.47883C6.37184 3.48675 6.41068 3.49457 6.43431 3.50033C6.45775 3.50603 6.46231 3.50876 6.454 3.50533C6.44459 3.50145 6.42401 3.49189 6.39758 3.47423C6.37043 3.4561 6.34682 3.43591 6.32819 3.41714L7.74781 2.00836C7.43249 1.69061 7.03557 1.558 6.57954 1.49667L6.31296 3.47883ZM6.32819 3.41714C6.31154 3.40037 6.29264 3.37823 6.27528 3.35214C6.25834 3.3267 6.24907 3.30683 6.24527 3.29765C6.24193 3.28959 6.24469 3.29429 6.25044 3.3177C6.25624 3.34134 6.26415 3.3802 6.27221 3.43915L8.25379 3.16835C8.19105 2.70923 8.05753 2.32046 7.74781 2.00836L6.32819 3.41714ZM6.27167 3.43511C6.30893 3.71635 6.3125 4.12395 6.3125 4.875H8.3125C8.3125 4.18005 8.31307 3.61565 8.25433 3.17239L6.27167 3.43511ZM6.3125 4.875C6.3125 5.62652 6.30887 6.03288 6.27118 6.31288L8.25332 6.57962C8.31313 6.13512 8.3125 5.56948 8.3125 4.875H6.3125ZM6.27117 6.31296C6.26325 6.37184 6.25543 6.41068 6.24967 6.43431C6.24397 6.45775 6.24124 6.46232 6.24467 6.454C6.24855 6.44459 6.25811 6.42401 6.27577 6.39758C6.2939 6.37043 6.31409 6.34682 6.33286 6.32819L7.74164 7.74781C8.05939 7.43249 8.192 7.03556 8.25333 6.57954L6.27117 6.31296ZM6.33286 6.32819C6.34963 6.31154 6.37177 6.29264 6.39786 6.27528C6.4233 6.25834 6.44317 6.24907 6.45235 6.24527C6.46041 6.24193 6.45571 6.24469 6.4323 6.25044C6.40866 6.25624 6.3698 6.26415 6.31085 6.27221L6.58165 8.25379C7.04077 8.19105 7.42954 8.05753 7.74164 7.74781L6.33286 6.32819ZM6.31489 6.27167C6.03365 6.30893 5.62605 6.3125 4.875 6.3125V8.3125C5.56995 8.3125 6.13435 8.31307 6.57761 8.25433L6.31489 6.27167ZM4.875 6.3125C4.12348 6.3125 3.71712 6.30887 3.43712 6.27118L3.17038 8.25332C3.61488 8.31313 4.18052 8.3125 4.875 8.3125V6.3125ZM3.43704 6.27117C3.37816 6.26325 3.33932 6.25543 3.31569 6.24967C3.29225 6.24397 3.28768 6.24124 3.296 6.24467C3.30541 6.24855 3.32599 6.25811 3.35242 6.27576C3.37957 6.2939 3.40318 6.31409 3.42181 6.33286L2.00219 7.74164C2.31751 8.05939 2.71444 8.192 3.17046 8.25333L3.43704 6.27117ZM3.42181 6.33286C3.43846 6.34963 3.45736 6.37177 3.47472 6.39786C3.49166 6.4233 3.50093 6.44317 3.50473 6.45235C3.50807 6.46041 3.50531 6.45571 3.49956 6.4323C3.49376 6.40866 3.48585 6.3698 3.47779 6.31085L1.49621 6.58165C1.55895 7.04077 1.69247 7.42954 2.00219 7.74164L3.42181 6.33286ZM3.4786 6.31691C3.44171 6.03406 3.4375 5.624 3.4375 4.875H1.4375C1.4375 5.572 1.43779 6.13394 1.4954 6.57559L3.4786 6.31691ZM3.4375 4.875C3.4375 4.12348 3.44113 3.71712 3.47882 3.43712L1.49668 3.17038C1.43687 3.61488 1.4375 4.18052 1.4375 4.875H3.4375ZM3.47883 3.43704C3.48675 3.37816 3.49457 3.33932 3.50033 3.31569C3.50603 3.29225 3.50876 3.28769 3.50533 3.296C3.50145 3.30541 3.49189 3.32599 3.47423 3.35242C3.4561 3.37957 3.43591 3.40318 3.41714 3.42181L2.00836 2.00219C1.69061 2.31751 1.558 2.71444 1.49667 3.17046L3.47883 3.43704ZM13.086 8.5625C12.4369 8.5625 11.798 8.56047 11.271 8.63145L11.538 10.6136C11.902 10.5645 12.3866 10.5625 13.086 10.5625V8.5625ZM11.2719 8.63133C10.6898 8.70918 10.0176 8.901 9.45912 9.46067L10.8749 10.8733C10.9989 10.749 11.1772 10.6618 11.5371 10.6137L11.2719 8.63133ZM9.46067 9.45912C8.901 10.0176 8.70918 10.6898 8.63133 11.2719L10.6137 11.5371C10.6618 11.1772 10.749 10.9989 10.8733 10.8749L9.46067 9.45912ZM8.63145 11.271C8.56047 11.798 8.5625 12.4369 8.5625 13.086H10.5625C10.5625 12.3866 10.5645 11.902 10.6136 11.538L8.63145 11.271ZM8.5625 13.086V13.164H10.5625V13.086H8.5625ZM8.5625 13.164C8.5625 13.8131 8.56047 14.452 8.63145 14.979L10.6136 14.712C10.5645 14.348 10.5625 13.8634 10.5625 13.164H8.5625ZM8.63133 14.9781C8.70918 15.5602 8.901 16.2324 9.46067 16.7909L10.8733 15.3751C10.749 15.2511 10.6618 15.0728 10.6137 14.7129L8.63133 14.9781ZM9.45912 16.7893C10.0176 17.349 10.6898 17.5408 11.2719 17.6187L11.5371 15.6363C11.1772 15.5882 10.9989 15.501 10.8749 15.3767L9.45912 16.7893ZM11.271 17.6186C11.798 17.6895 12.4369 17.6875 13.086 17.6875V15.6875C12.3866 15.6875 11.902 15.6855 11.538 15.6364L11.271 17.6186ZM13.086 17.6875H13.164V15.6875H13.086V17.6875ZM13.164 17.6875C13.8123 17.6875 14.452 17.6895 14.979 17.6186L14.712 15.6364C14.348 15.6855 13.8627 15.6875 13.164 15.6875V17.6875ZM14.9781 17.6187C15.5602 17.5408 16.2324 17.349 16.7909 16.7893L15.3751 15.3767C15.2511 15.501 15.0728 15.5882 14.7129 15.6363L14.9781 17.6187ZM16.7893 16.7909C17.349 16.2324 17.5408 15.5602 17.6187 14.9781L15.6363 14.7129C15.5882 15.0728 15.501 15.2511 15.3767 15.3751L16.7893 16.7909ZM17.6186 14.979C17.6895 14.452 17.6875 13.8131 17.6875 13.164H15.6875C15.6875 13.8634 15.6855 14.348 15.6364 14.712L17.6186 14.979ZM17.6875 13.164V13.086H15.6875V13.164H17.6875ZM17.6875 13.086C17.6875 12.4377 17.6895 11.798 17.6186 11.271L15.6364 11.538C15.6855 11.902 15.6875 12.3873 15.6875 13.086H17.6875ZM17.6187 11.2719C17.5408 10.6898 17.349 10.0176 16.7893 9.45912L15.3767 10.8749C15.501 10.9989 15.5882 11.1772 15.6363 11.5371L17.6187 11.2719ZM16.7909 9.46067C16.2324 8.901 15.5602 8.70918 14.9781 8.63133L14.7129 10.6137C15.0728 10.6618 15.2511 10.749 15.3751 10.8733L16.7909 9.46067ZM14.979 8.63145C14.452 8.56047 13.8131 8.5625 13.164 8.5625V10.5625C13.8634 10.5625 14.348 10.5645 14.712 10.6136L14.979 8.63145ZM13.164 8.5625H13.086V10.5625H13.164V8.5625ZM11.6691 11.6691C11.6507 11.6875 11.6274 11.7073 11.6007 11.7251C11.5747 11.7424 11.5546 11.7516 11.5458 11.7553C11.538 11.7585 11.5431 11.7556 11.567 11.7498C11.5911 11.7439 11.6303 11.7359 11.6896 11.7278L11.4194 9.74617C10.9635 9.80834 10.569 9.94074 10.2549 10.2549L11.6691 11.6691ZM11.6861 11.7283C11.9664 11.6911 12.3738 11.6875 13.125 11.6875V9.6875C12.4302 9.6875 11.8656 9.68692 11.4229 9.7457L11.6861 11.7283ZM13.125 11.6875C13.876 11.6875 14.2837 11.6911 14.5649 11.7283L14.8276 9.74566C14.3843 9.68693 13.82 9.6875 13.125 9.6875V11.6875ZM14.5608 11.7278C14.6199 11.7359 14.659 11.7438 14.683 11.7497C14.7067 11.7555 14.7118 11.7584 14.704 11.7551C14.6951 11.7515 14.6751 11.7422 14.6492 11.725C14.6226 11.7073 14.5993 11.6875 14.5809 11.6691L15.9951 10.2549C15.6812 9.94098 15.2871 9.80844 14.8317 9.74621L14.5608 11.7278ZM14.5809 11.6691C14.5625 11.6507 14.5427 11.6274 14.5249 11.6007C14.5076 11.5747 14.4984 11.5546 14.4947 11.5458C14.4915 11.538 14.4944 11.5431 14.5002 11.567C14.5061 11.5911 14.5141 11.6303 14.5222 11.6896L16.5038 11.4194C16.4417 10.9635 16.3093 10.5691 15.9951 10.2549L14.5809 11.6691ZM14.5217 11.6861C14.5589 11.9664 14.5625 12.3738 14.5625 13.125H16.5625C16.5625 12.4302 16.5631 11.8656 16.5043 11.4229L14.5217 11.6861ZM14.5625 13.125C14.5625 13.8765 14.5589 14.2829 14.5212 14.5629L16.5033 14.8296C16.5631 14.3851 16.5625 13.8195 16.5625 13.125H14.5625ZM14.5212 14.563C14.5133 14.6218 14.5054 14.6607 14.4997 14.6843C14.494 14.7077 14.4912 14.7123 14.4947 14.704C14.4986 14.6946 14.5081 14.674 14.5258 14.6476C14.5439 14.6204 14.5641 14.5968 14.5829 14.5782L15.9916 15.9978C16.3094 15.6825 16.442 15.2856 16.5033 14.8295L14.5212 14.563ZM14.5829 14.5782C14.5996 14.5615 14.6218 14.5426 14.6479 14.5253C14.6733 14.5083 14.6932 14.4991 14.7023 14.4953C14.7104 14.4919 14.7057 14.4947 14.6823 14.5004C14.6587 14.5062 14.6198 14.5142 14.5608 14.5222L14.8317 16.5038C15.2908 16.441 15.6795 16.3075 15.9916 15.9978L14.5829 14.5782ZM14.5649 14.5217C14.2837 14.5589 13.876 14.5625 13.125 14.5625V16.5625C13.82 16.5625 14.3843 16.5631 14.8276 16.5043L14.5649 14.5217ZM13.125 14.5625C12.3735 14.5625 11.9671 14.5589 11.6871 14.5212L11.4204 16.5033C11.8649 16.5631 12.4305 16.5625 13.125 16.5625V14.5625ZM11.687 14.5212C11.6282 14.5133 11.5893 14.5054 11.5657 14.4997C11.5423 14.494 11.5377 14.4912 11.546 14.4947C11.5554 14.4986 11.576 14.5081 11.6024 14.5258C11.6296 14.5439 11.6532 14.5641 11.6718 14.5829L10.2522 15.9916C10.5675 16.3094 10.9644 16.442 11.4205 16.5033L11.687 14.5212ZM11.6718 14.5829C11.6885 14.5996 11.7074 14.6218 11.7247 14.6479C11.7417 14.6733 11.7509 14.6932 11.7547 14.7023C11.7581 14.7104 11.7553 14.7057 11.7496 14.6823C11.7438 14.6587 11.7358 14.6198 11.7278 14.5608L9.74621 14.8317C9.80895 15.2908 9.94247 15.6795 10.2522 15.9916L11.6718 14.5829ZM11.7283 14.5649C11.6911 14.2837 11.6875 13.876 11.6875 13.125H9.6875C9.6875 13.82 9.68693 14.3843 9.74566 14.8276L11.7283 14.5649ZM11.6875 13.125C11.6875 12.374 11.6911 11.9663 11.7283 11.6851L9.74566 11.4224C9.68693 11.8657 9.6875 12.43 9.6875 13.125H11.6875ZM11.7278 11.6892C11.7359 11.6301 11.7438 11.591 11.7497 11.567C11.7555 11.5433 11.7584 11.5382 11.7551 11.546C11.7515 11.5549 11.7422 11.5749 11.725 11.6008C11.7073 11.6274 11.6875 11.6507 11.6691 11.6691L10.2549 10.2549C9.94098 10.5688 9.80844 10.9629 9.74621 11.4183L11.7278 11.6892ZM4.836 10.5625H4.914V8.5625H4.836V10.5625ZM4.914 10.5625C5.61268 10.5625 6.09803 10.5645 6.46202 10.6136L6.72897 8.63145C6.20197 8.56047 5.56232 8.5625 4.914 8.5625V10.5625ZM6.46292 10.6137C6.82285 10.6618 7.00106 10.749 7.12512 10.8733L8.54088 9.46067C7.98244 8.901 7.31015 8.70918 6.72808 8.63133L6.46292 10.6137ZM7.12667 10.8749C7.251 10.9989 7.33818 11.1772 7.38633 11.5371L9.36867 11.2719C9.29082 10.6898 9.099 10.0176 8.53933 9.45912L7.12667 10.8749ZM7.38645 11.538C7.43547 11.902 7.4375 12.3866 7.4375 13.086H9.4375C9.4375 12.4369 9.43953 11.798 9.36855 11.271L7.38645 11.538ZM7.4375 13.086V13.164H9.4375V13.086H7.4375ZM7.4375 13.164C7.4375 13.8634 7.43547 14.348 7.38645 14.712L9.36855 14.979C9.43953 14.452 9.4375 13.8131 9.4375 13.164H7.4375ZM7.38633 14.7129C7.33818 15.0728 7.251 15.2511 7.12667 15.3751L8.53933 16.7909C9.099 16.2324 9.29082 15.5602 9.36867 14.9781L7.38633 14.7129ZM7.12512 15.3767C7.00106 15.501 6.82285 15.5882 6.46292 15.6363L6.72808 17.6187C7.31015 17.5408 7.98244 17.349 8.54088 16.7893L7.12512 15.3767ZM6.46202 15.6364C6.09803 15.6855 5.61341 15.6875 4.914 15.6875V17.6875C5.56309 17.6875 6.20197 17.6895 6.72897 17.6186L6.46202 15.6364ZM4.914 15.6875H4.836V17.6875H4.914V15.6875ZM4.836 15.6875C4.13732 15.6875 3.65197 15.6855 3.28797 15.6364L3.02102 17.6186C3.54803 17.6895 4.18768 17.6875 4.836 17.6875V15.6875ZM3.28708 15.6363C2.92715 15.5882 2.74894 15.501 2.62488 15.3767L1.20912 16.7893C1.76756 17.349 2.43985 17.5408 3.02192 17.6187L3.28708 15.6363ZM2.62333 15.3751C2.499 15.2511 2.41182 15.0728 2.36367 14.7129L0.381327 14.9781C0.459185 15.5602 0.650996 16.2324 1.21067 16.7909L2.62333 15.3751ZM2.36355 14.712C2.31453 14.348 2.3125 13.8634 2.3125 13.164H0.3125C0.3125 13.8131 0.310471 14.452 0.381448 14.979L2.36355 14.712ZM2.3125 13.164V13.086H0.3125V13.164H2.3125ZM2.3125 13.086C2.3125 12.3866 2.31453 11.902 2.36355 11.538L0.381448 11.271C0.310471 11.798 0.3125 12.4369 0.3125 13.086H2.3125ZM2.36367 11.5371C2.41183 11.1771 2.49912 10.9983 2.62336 10.8741L1.20914 9.45989C0.650876 10.0182 0.459172 10.6899 0.381327 11.2719L2.36367 11.5371ZM2.62336 10.8741C2.74862 10.7488 2.92766 10.6617 3.28653 10.6136L3.02096 8.63136C2.43934 8.70928 1.76788 8.90115 1.20914 9.45989L2.62336 10.8741ZM3.287 10.6136C3.6519 10.5645 4.13744 10.5625 4.836 10.5625V8.5625C4.18756 8.5625 3.5481 8.56048 3.0205 8.63142L3.287 10.6136ZM3.16835 9.74621C2.71294 9.80844 2.31881 9.94098 2.00489 10.2549L3.41911 11.6691C3.40069 11.6875 3.37742 11.7073 3.35079 11.725C3.32488 11.7422 3.30486 11.7515 3.296 11.7551C3.28822 11.7584 3.29325 11.7555 3.31703 11.7497C3.341 11.7438 3.38011 11.7359 3.43915 11.7278L3.16835 9.74621ZM2.00489 10.2549C1.69074 10.569 1.55834 10.9635 1.49617 11.4194L3.47783 11.6896C3.48591 11.6303 3.49387 11.5911 3.49976 11.567C3.5056 11.5431 3.50848 11.538 3.50528 11.5458C3.50163 11.5546 3.49236 11.5747 3.47509 11.6007C3.45733 11.6274 3.43753 11.6507 3.41911 11.6691L2.00489 10.2549ZM1.4957 11.4229C1.43692 11.8656 1.4375 12.4302 1.4375 13.125H3.4375C3.4375 12.3738 3.44108 11.9664 3.4783 11.6861L1.4957 11.4229ZM1.4375 13.125C1.4375 13.8195 1.43687 14.3851 1.49668 14.8296L3.47882 14.5629C3.44113 14.2829 3.4375 13.8765 3.4375 13.125H1.4375ZM1.49667 14.8295C1.558 15.2856 1.69061 15.6825 2.00836 15.9978L3.41714 14.5782C3.43591 14.5968 3.4561 14.6204 3.47424 14.6476C3.49189 14.674 3.50145 14.6946 3.50533 14.704C3.50876 14.7123 3.50603 14.7078 3.50033 14.6843C3.49457 14.6607 3.48675 14.6218 3.47883 14.563L1.49667 14.8295ZM2.00836 15.9978C2.32046 16.3075 2.70924 16.441 3.16835 16.5038L3.43915 14.5222C3.3802 14.5142 3.34134 14.5062 3.3177 14.5004C3.29429 14.4947 3.28959 14.4919 3.29765 14.4953C3.30683 14.4991 3.3267 14.5083 3.35214 14.5253C3.37823 14.5426 3.40037 14.5615 3.41714 14.5782L2.00836 15.9978ZM3.17239 16.5043C3.61565 16.5631 4.18005 16.5625 4.875 16.5625V14.5625C4.12395 14.5625 3.71635 14.5589 3.43511 14.5217L3.17239 16.5043ZM4.875 16.5625C5.56948 16.5625 6.13512 16.5631 6.57962 16.5033L6.31288 14.5212C6.03288 14.5589 5.62652 14.5625 4.875 14.5625V16.5625ZM6.57954 16.5033C7.03557 16.442 7.43249 16.3094 7.74781 15.9916L6.32819 14.5829C6.34682 14.5641 6.37043 14.5439 6.39758 14.5258C6.424 14.5081 6.44459 14.4986 6.454 14.4947C6.46231 14.4912 6.45775 14.494 6.43431 14.4997C6.41068 14.5054 6.37184 14.5133 6.31296 14.5212L6.57954 16.5033ZM7.74781 15.9916C8.05753 15.6795 8.19105 15.2908 8.25379 14.8317L6.27221 14.5608C6.26415 14.6198 6.25624 14.6587 6.25044 14.6823C6.24469 14.7057 6.24193 14.7104 6.24527 14.7023C6.24907 14.6932 6.25834 14.6733 6.27528 14.6479C6.29264 14.6218 6.31154 14.5996 6.32819 14.5829L7.74781 15.9916ZM8.25433 14.8276C8.31307 14.3843 8.3125 13.82 8.3125 13.125H6.3125C6.3125 13.876 6.30893 14.2837 6.27167 14.5649L8.25433 14.8276ZM8.3125 13.125C8.3125 12.4305 8.31313 11.8649 8.25332 11.4204L6.27118 11.6871C6.30887 11.9671 6.3125 12.3735 6.3125 13.125H8.3125ZM8.25333 11.4205C8.192 10.9644 8.05939 10.5675 7.74164 10.2522L6.33286 11.6718C6.31409 11.6532 6.2939 11.6296 6.27577 11.6024C6.25811 11.576 6.24855 11.5554 6.24467 11.546C6.24124 11.5377 6.24397 11.5422 6.24967 11.5657C6.25543 11.5893 6.26325 11.6282 6.27117 11.687L8.25333 11.4205ZM7.74164 10.2522C7.42954 9.94247 7.04077 9.80895 6.58165 9.74621L6.31085 11.7278C6.3698 11.7358 6.40866 11.7438 6.4323 11.7496C6.45571 11.7553 6.46041 11.7581 6.45235 11.7547C6.44317 11.7509 6.4233 11.7417 6.39786 11.7247C6.37177 11.7074 6.34963 11.6885 6.33286 11.6718L7.74164 10.2522ZM6.57761 9.74566C6.13435 9.68693 5.56995 9.6875 4.875 9.6875V11.6875C5.62605 11.6875 6.03365 11.6911 6.31489 11.7283L6.57761 9.74566ZM4.875 9.6875C4.18005 9.6875 3.61565 9.68693 3.17239 9.74566L3.43511 11.7283C3.71635 11.6911 4.12395 11.6875 4.875 11.6875V9.6875ZM13.086 0.3125C12.4369 0.3125 11.798 0.310471 11.271 0.381448L11.538 2.36355C11.902 2.31453 12.3866 2.3125 13.086 2.3125V0.3125ZM11.2719 0.381327C10.6899 0.459172 10.0182 0.650876 9.45989 1.20914L10.8741 2.62336C10.9983 2.49912 11.1771 2.41183 11.5371 2.36367L11.2719 0.381327ZM9.45989 1.20914C8.90115 1.76788 8.70928 2.43934 8.63136 3.02096L10.6136 3.28653C10.6617 2.92766 10.7488 2.74862 10.8741 2.62336L9.45989 1.20914ZM8.63142 3.0205C8.56048 3.5481 8.5625 4.18756 8.5625 4.836H10.5625C10.5625 4.13744 10.5645 3.6519 10.6136 3.287L8.63142 3.0205ZM8.5625 4.836V4.914H10.5625V4.836H8.5625ZM8.5625 4.914C8.5625 5.56232 8.56047 6.20197 8.63145 6.72897L10.6136 6.46202C10.5645 6.09803 10.5625 5.61268 10.5625 4.914H8.5625ZM8.63133 6.72808C8.70918 7.31015 8.901 7.98244 9.46067 8.54088L10.8733 7.12512C10.749 7.00106 10.6618 6.82285 10.6137 6.46292L8.63133 6.72808ZM9.45912 8.53933C10.0176 9.099 10.6898 9.29082 11.2719 9.36867L11.5371 7.38633C11.1772 7.33818 10.9989 7.251 10.8749 7.12667L9.45912 8.53933ZM11.271 9.36855C11.798 9.43953 12.4369 9.4375 13.086 9.4375V7.4375C12.3866 7.4375 11.902 7.43547 11.538 7.38645L11.271 9.36855ZM13.086 9.4375H13.164V7.4375H13.086V9.4375ZM13.164 9.4375C13.8131 9.4375 14.452 9.43953 14.979 9.36855L14.712 7.38645C14.348 7.43547 13.8634 7.4375 13.164 7.4375V9.4375ZM14.9781 9.36867C15.5602 9.29082 16.2324 9.099 16.7909 8.53933L15.3751 7.12667C15.2511 7.251 15.0728 7.33818 14.7129 7.38633L14.9781 9.36867ZM16.7893 8.54088C17.349 7.98244 17.5408 7.31015 17.6187 6.72808L15.6363 6.46292C15.5882 6.82285 15.501 7.00106 15.3767 7.12512L16.7893 8.54088ZM17.6186 6.72897C17.6895 6.20197 17.6875 5.56232 17.6875 4.914H15.6875C15.6875 5.61268 15.6855 6.09803 15.6364 6.46202L17.6186 6.72897ZM17.6875 4.914V4.836H15.6875V4.914H17.6875ZM17.6875 4.836C17.6875 4.18768 17.6895 3.54803 17.6186 3.02102L15.6364 3.28797C15.6855 3.65197 15.6875 4.13732 15.6875 4.836H17.6875ZM17.6187 3.02192C17.5408 2.43985 17.349 1.76756 16.7893 1.20912L15.3767 2.62488C15.501 2.74894 15.5882 2.92715 15.6363 3.28708L17.6187 3.02192ZM16.7909 1.21067C16.2324 0.650996 15.5602 0.459185 14.9781 0.381327L14.7129 2.36367C15.0728 2.41182 15.2511 2.499 15.3751 2.62333L16.7909 1.21067ZM14.979 0.381448C14.452 0.310471 13.8131 0.3125 13.164 0.3125V2.3125C13.8634 2.3125 14.348 2.31453 14.712 2.36355L14.979 0.381448ZM13.164 0.3125H13.086V2.3125H13.164V0.3125ZM11.6691 3.41911C11.6507 3.43753 11.6274 3.45733 11.6007 3.47509C11.5747 3.49236 11.5546 3.50163 11.5458 3.50528C11.538 3.50848 11.5431 3.5056 11.567 3.49976C11.5911 3.49387 11.6303 3.48591 11.6896 3.47783L11.4194 1.49617C10.9635 1.55834 10.569 1.69074 10.2549 2.00489L11.6691 3.41911ZM11.6861 3.4783C11.9664 3.44108 12.3738 3.4375 13.125 3.4375V1.4375C12.4302 1.4375 11.8656 1.43692 11.4229 1.4957L11.6861 3.4783ZM13.125 3.4375C13.8765 3.4375 14.2829 3.44113 14.5629 3.47882L14.8296 1.49668C14.3851 1.43687 13.8195 1.4375 13.125 1.4375V3.4375ZM14.563 3.47883C14.6218 3.48675 14.6607 3.49457 14.6843 3.50033C14.7078 3.50603 14.7123 3.50876 14.704 3.50533C14.6946 3.50145 14.674 3.49189 14.6476 3.47424C14.6204 3.4561 14.5968 3.43591 14.5782 3.41714L15.9978 2.00836C15.6825 1.69061 15.2856 1.558 14.8295 1.49667L14.563 3.47883ZM14.5782 3.41714C14.5615 3.40037 14.5426 3.37823 14.5253 3.35214C14.5083 3.3267 14.4991 3.30683 14.4953 3.29765C14.4919 3.28959 14.4947 3.29429 14.5004 3.3177C14.5062 3.34134 14.5142 3.3802 14.5222 3.43915L16.5038 3.16835C16.441 2.70924 16.3075 2.32046 15.9978 2.00836L14.5782 3.41714ZM14.5217 3.43511C14.5589 3.71635 14.5625 4.12395 14.5625 4.875H16.5625C16.5625 4.18005 16.5631 3.61565 16.5043 3.17239L14.5217 3.43511ZM14.5625 4.875C14.5625 5.62652 14.5589 6.03288 14.5212 6.31288L16.5033 6.57962C16.5631 6.13512 16.5625 5.56948 16.5625 4.875H14.5625ZM14.5212 6.31296C14.5133 6.37184 14.5054 6.41068 14.4997 6.43431C14.494 6.45775 14.4912 6.46231 14.4947 6.454C14.4986 6.44459 14.5081 6.424 14.5258 6.39758C14.5439 6.37043 14.5641 6.34682 14.5829 6.32819L15.9916 7.74781C16.3094 7.43249 16.442 7.03557 16.5033 6.57954L14.5212 6.31296ZM14.5829 6.32819C14.5996 6.31154 14.6218 6.29264 14.6479 6.27528C14.6733 6.25834 14.6932 6.24907 14.7023 6.24527C14.7104 6.24193 14.7057 6.24469 14.6823 6.25044C14.6587 6.25624 14.6198 6.26415 14.5608 6.27221L14.8317 8.25379C15.2908 8.19105 15.6795 8.05753 15.9916 7.74781L14.5829 6.32819ZM14.5649 6.27167C14.2837 6.30893 13.876 6.3125 13.125 6.3125V8.3125C13.82 8.3125 14.3843 8.31307 14.8276 8.25433L14.5649 6.27167ZM13.125 6.3125C12.3735 6.3125 11.9671 6.30887 11.6871 6.27118L11.4204 8.25332C11.8649 8.31313 12.4305 8.3125 13.125 8.3125V6.3125ZM11.687 6.27117C11.6282 6.26325 11.5893 6.25543 11.5657 6.24967C11.5422 6.24397 11.5377 6.24124 11.546 6.24467C11.5554 6.24855 11.576 6.25811 11.6024 6.27577C11.6296 6.2939 11.6532 6.31409 11.6718 6.33286L10.2522 7.74164C10.5675 8.05939 10.9644 8.192 11.4205 8.25333L11.687 6.27117ZM11.6718 6.33286C11.6885 6.34963 11.7074 6.37177 11.7247 6.39786C11.7417 6.4233 11.7509 6.44317 11.7547 6.45235C11.7581 6.46041 11.7553 6.45571 11.7496 6.4323C11.7438 6.40866 11.7358 6.3698 11.7278 6.31085L9.74621 6.58165C9.80895 7.04077 9.94247 7.42954 10.2522 7.74164L11.6718 6.33286ZM11.7283 6.31489C11.6911 6.03365 11.6875 5.62605 11.6875 4.875H9.6875C9.6875 5.56995 9.68693 6.13435 9.74566 6.57761L11.7283 6.31489ZM11.6875 4.875C11.6875 4.12395 11.6911 3.71635 11.7283 3.43511L9.74566 3.17239C9.68693 3.61565 9.6875 4.18005 9.6875 4.875H11.6875ZM11.7278 3.43915C11.7359 3.38011 11.7438 3.341 11.7497 3.31703C11.7555 3.29325 11.7584 3.28822 11.7551 3.296C11.7515 3.30486 11.7422 3.32488 11.725 3.35079C11.7073 3.37742 11.6875 3.40069 11.6691 3.41911L10.2549 2.00489C9.94098 2.31881 9.80844 2.71294 9.74621 3.16835L11.7278 3.43915Z" fill="white" mask="url(#path-1-inside-1_1850_4397)"/>
</svg>
